# Blender 5.1.2
# www.blender.org
mtllib fire.mtl
o Fire
v -0.111054 0.217491 -0.161850
v 0.139934 0.214806 -0.075533
v -0.230003 0.833397 -0.177137
v 0.270911 0.808250 -0.158123
v -0.297214 0.710918 -0.150279
v -0.256160 0.517556 -0.133910
v -0.199256 0.372062 -0.139291
v -0.059121 0.221103 -0.136352
v -0.023328 0.217772 -0.110532
v 0.053331 0.216925 -0.088509
v 0.178774 0.344886 -0.128176
v 0.217953 0.506452 -0.112062
v 0.260852 0.669237 -0.151438
v 0.097269 0.751408 -0.225213
v 0.005973 0.937881 -0.265289
v -0.134059 0.774629 -0.197572
v -0.073794 0.363416 -0.183054
v -0.132680 0.566562 -0.117662
v -0.128019 0.694922 -0.170668
v 0.011011 0.350869 -0.189890
v -0.000676 0.602119 -0.179302
v 0.010808 0.757839 -0.234622
v 0.099629 0.351384 -0.171613
v 0.149740 0.546930 -0.176523
v 0.110078 0.661796 -0.213173
v -0.043359 0.161146 0.102135
v 0.137772 0.142563 -0.070405
v 0.054942 0.679611 0.333180
v 0.321014 0.678482 0.026364
v 0.035403 0.543840 0.309130
v -0.020391 0.460008 0.206584
v -0.045327 0.296495 0.180674
v 0.003745 0.156851 0.070511
v 0.053065 0.151318 0.040207
v 0.095157 0.148494 -0.018328
v 0.199146 0.265736 -0.103939
v 0.250826 0.425294 -0.078433
v 0.318097 0.573617 -0.038966
v 0.257649 0.793410 0.061780
v 0.243787 0.699624 0.205294
v 0.132174 0.556971 0.240740
v -0.058334 0.265639 0.080224
v 0.120434 0.411576 0.186465
v 0.132094 0.495547 0.207436
v -0.002548 0.264109 -0.001427
v 0.172300 0.487177 0.134436
v 0.202062 0.630416 0.146022
v 0.129717 0.279992 -0.078728
v 0.196016 0.474847 -0.021761
v 0.233279 0.641190 0.035020
v -0.065260 0.221551 -0.248373
v 0.034510 0.193683 0.039807
v -0.303549 0.739995 -0.106707
v -0.074107 0.738867 0.229509
v -0.281488 0.598868 -0.114643
v -0.183426 0.496587 -0.153110
v -0.141055 0.368421 -0.205432
v -0.046979 0.217891 -0.193896
v -0.037365 0.209096 -0.130661
v -0.014120 0.198509 -0.051924
v -0.054681 0.288360 0.104756
v -0.002701 0.501847 0.165279
v -0.007499 0.634039 0.236614
v -0.092286 0.853795 0.157838
v -0.239088 0.760008 0.122376
v -0.244677 0.616280 -0.000917
v -0.092255 0.358441 -0.163922
v -0.194439 0.465692 -0.026320
v -0.221153 0.550721 0.010568
v -0.106357 0.323524 -0.098510
v -0.160619 0.547446 0.059738
v -0.178967 0.690801 0.099299
v -0.120549 0.293212 0.012627
v -0.032664 0.538994 0.098836
v -0.083128 0.701574 0.145774
v -0.117736 0.148400 0.040351
v -0.044365 0.158323 -0.074530
v -0.172052 0.549316 0.221632
v -0.162275 0.530446 -0.244231
v -0.132267 0.454289 0.284324
v -0.130910 0.327698 0.221685
v -0.129569 0.239472 0.120233
v -0.112267 0.150038 0.016249
v -0.094223 0.150812 -0.000764
v -0.076818 0.151299 -0.037056
v -0.062712 0.194423 -0.100664
v -0.175486 0.285313 -0.179217
v -0.167835 0.422446 -0.233181
v -0.274628 0.486105 -0.075335
v -0.316133 0.631129 0.009158
v -0.227775 0.503866 0.136211
v -0.174015 0.223346 0.034222
v -0.061010 0.306476 0.077582
v -0.194970 0.445282 0.126218
v -0.178066 0.216271 -0.019659
v -0.150679 0.373925 0.004865
v -0.286835 0.490948 0.005382
v -0.139554 0.220604 -0.077739
v -0.259042 0.328409 -0.130308
v -0.262322 0.417026 -0.088015
v 0.046333 0.137874 0.006397
v -0.055546 0.127705 -0.076190
v 0.402899 0.439091 -0.031563
v 0.068369 0.432171 -0.289168
v 0.343926 0.318825 -0.012185
v 0.110307 0.216368 0.004907
v 0.081199 0.186429 0.007880
v 0.023905 0.133479 -0.014583
v 0.005703 0.131233 -0.037015
v -0.029003 0.131249 -0.055985
v -0.048505 0.174746 -0.107101
v -0.058218 0.222619 -0.158535
v -0.043286 0.342204 -0.277840
v 0.111320 0.522744 -0.228812
v 0.268363 0.452218 -0.212025
v 0.269265 0.322717 -0.096088
v 0.035275 0.179899 0.012169
v 0.139930 0.216534 -0.070638
v 0.178670 0.251512 -0.078360
v -0.019625 0.173255 -0.011359
v 0.143186 0.259415 -0.122071
v 0.200691 0.396588 -0.174424
v -0.044414 0.179465 -0.071285
v -0.021982 0.239723 -0.126201
v 0.067460 0.404324 -0.206456
v -0.175564 0.150541 0.017796
v 0.005595 0.147482 -0.028339
v -0.085405 0.477627 0.290938
v 0.280995 0.483253 0.080050
v -0.090132 0.360999 0.249461
v -0.168323 0.317663 0.146698
v -0.198556 0.226502 0.082216
v -0.146873 0.148414 0.010270
v -0.108015 0.146598 0.005910
v -0.055185 0.146957 -0.005572
v 0.045905 0.186734 0.010495
v 0.099638 0.233802 -0.004174
v 0.263611 0.379076 0.021441
v 0.206853 0.571741 0.096738
v 0.150141 0.497491 0.222094
v 0.024814 0.365986 0.190248
v -0.155502 0.219460 0.045319
v -0.031171 0.246052 0.089746
v 0.011286 0.283674 0.118002
v -0.089966 0.213479 0.051161
v 0.063570 0.297136 0.086851
v 0.125866 0.446410 0.153023
v -0.006680 0.186889 0.040239
v 0.093500 0.274500 0.010162
v 0.181346 0.451481 0.074612
s 0
usemtl Fire
f 25 13 4 14
f 5 19 16 3
f 19 22 15 16
f 22 25 14 15
f 1 8 17 7
f 7 17 18 6
f 6 18 19 5
f 8 9 20 17
f 17 20 21 18
f 18 21 22 19
f 9 10 23 20
f 20 23 24 21
f 21 24 25 22
f 10 2 11 23
f 23 11 12 24
f 24 12 13 25
f 50 38 29 39
f 30 44 41 28
f 44 47 40 41
f 47 50 39 40
f 26 33 42 32
f 32 42 43 31
f 31 43 44 30
f 33 34 45 42
f 42 45 46 43
f 43 46 47 44
f 34 35 48 45
f 45 48 49 46
f 46 49 50 47
f 35 27 36 48
f 48 36 37 49
f 49 37 38 50
f 75 63 54 64
f 55 69 66 53
f 69 72 65 66
f 72 75 64 65
f 51 58 67 57
f 57 67 68 56
f 56 68 69 55
f 58 59 70 67
f 67 70 71 68
f 68 71 72 69
f 59 60 73 70
f 70 73 74 71
f 71 74 75 72
f 60 52 61 73
f 73 61 62 74
f 74 62 63 75
f 100 88 79 89
f 80 94 91 78
f 94 97 90 91
f 97 100 89 90
f 82 92 93 81
f 81 93 94 80
f 92 95 96 93
f 93 96 97 94
f 95 98 99 96
f 96 99 100 97
f 108 109 110 102 111 112 124 123 120 117
f 98 86 87 99
f 99 87 88 100
f 125 113 104 114
f 105 119 116 103
f 119 122 115 116
f 122 125 114 115
f 101 108 117 107
f 107 117 118 106
f 106 118 119 105
f 117 120 121 118
f 118 121 122 119
f 120 123 124 121
f 121 124 125 122
f 126 133 134 135 127 136 148 145 146 143 142 132
f 124 112 113 125
f 150 138 129 139
f 130 144 141 128
f 144 147 140 141
f 147 150 139 140
f 132 142 143 131
f 131 143 144 130
f 143 146 147 144
f 145 148 149 146
f 146 149 150 147
f 148 136 137 149
f 149 137 138 150
f 76 83 84 85 77 86 98 95 92 82
