# Blender 5.1.2
# www.blender.org
mtllib fire.mtl
o Fire
v -0.111054 0.217491 -0.161850
v 0.139934 0.214806 -0.075533
v -0.230003 0.833397 -0.177137
v 0.270911 0.808250 -0.158123
v -0.297214 0.710918 -0.150279
v -0.256160 0.517556 -0.133910
v -0.199256 0.372062 -0.139291
v -0.059121 0.221103 -0.136352
v -0.023328 0.217772 -0.110532
v 0.053331 0.216925 -0.088509
v 0.178774 0.344886 -0.128176
v 0.217953 0.506452 -0.112062
v 0.260852 0.669237 -0.151438
v 0.097269 0.751408 -0.225213
v 0.005973 0.937881 -0.265289
v -0.134059 0.774629 -0.197572
v -0.073794 0.363416 -0.183054
v -0.132680 0.566562 -0.117662
v -0.128019 0.694922 -0.170668
v 0.011011 0.350869 -0.189890
v -0.000676 0.602119 -0.179302
v 0.010808 0.757839 -0.234622
v 0.099629 0.351384 -0.171613
v 0.149740 0.546930 -0.176523
v 0.110078 0.661796 -0.213173
v -0.043359 0.161146 0.102135
v 0.137772 0.142563 -0.070405
v 0.054942 0.679611 0.333180
v 0.321014 0.678482 0.026364
v 0.035403 0.543840 0.309130
v -0.020391 0.460008 0.206584
v -0.045327 0.296495 0.180674
v 0.003745 0.156851 0.070511
v 0.053065 0.151318 0.040207
v 0.095157 0.148494 -0.018328
v 0.199146 0.265736 -0.103939
v 0.250826 0.425294 -0.078433
v 0.318097 0.573617 -0.038966
v 0.257649 0.793410 0.061780
v 0.243787 0.699624 0.205294
v 0.132174 0.556971 0.240740
v -0.058334 0.265639 0.080224
v 0.120434 0.411576 0.186465
v 0.132094 0.495547 0.207436
v -0.002548 0.264109 -0.001427
v 0.172300 0.487177 0.134436
v 0.202062 0.630416 0.146022
v 0.129717 0.279992 -0.078728
v 0.196016 0.474847 -0.021761
v 0.233279 0.641190 0.035020
v -0.065260 0.221551 -0.248373
v 0.034510 0.193683 0.039807
v -0.303549 0.739995 -0.106707
v -0.074107 0.738867 0.229509
v -0.281488 0.598868 -0.114643
v -0.183426 0.496587 -0.153110
v -0.141055 0.368421 -0.205432
v -0.046979 0.217891 -0.193896
v -0.037365 0.209096 -0.130661
v -0.014120 0.198509 -0.051924
v -0.054681 0.288360 0.104756
v -0.002701 0.501847 0.165279
v -0.007499 0.634039 0.236614
v -0.092286 0.853795 0.157838
v -0.239088 0.760008 0.122376
v -0.244677 0.616280 -0.000917
v -0.092255 0.358441 -0.163922
v -0.194439 0.465692 -0.026320
v -0.221153 0.550721 0.010568
v -0.106357 0.323524 -0.098510
v -0.160619 0.547446 0.059738
v -0.178967 0.690801 0.099299
v -0.120549 0.293212 0.012627
v -0.032664 0.538994 0.098836
v -0.083128 0.701574 0.145774
v -0.117736 0.148400 0.040351
v -0.044365 0.158323 -0.074530
v -0.172052 0.549316 0.221632
v -0.162275 0.530446 -0.244231
v -0.132267 0.454289 0.284324
v -0.130910 0.327698 0.221685
v -0.129569 0.239472 0.120233
v -0.112267 0.150038 0.016249
v -0.094223 0.150812 -0.000764
v -0.076818 0.151299 -0.037056
v -0.062712 0.194423 -0.100664
v -0.175486 0.285313 -0.179217
v -0.167835 0.422446 -0.233181
v -0.274628 0.486105 -0.075335
v -0.316133 0.631129 0.009158
v -0.227775 0.503866 0.136211
v -0.174015 0.223346 0.034222
v -0.061010 0.306476 0.077582
v -0.194970 0.445282 0.126218
v -0.178066 0.216271 -0.019659
v -0.150679 0.373925 0.004865
v -0.286835 0.490948 0.005382
v -0.139554 0.220604 -0.077739
v -0.259042 0.328409 -0.130308
v -0.262322 0.417026 -0.088015
v 0.046333 0.137874 0.006397
v -0.055546 0.127705 -0.076190
v 0.402899 0.439091 -0.031563
v 0.068369 0.432171 -0.289168
v 0.343926 0.318825 -0.012185
v 0.110307 0.216368 0.004907
v 0.081199 0.186429 0.007880
v 0.023905 0.133479 -0.014583
v 0.005703 0.131233 -0.037015
v -0.029003 0.131249 -0.055985
v -0.048505 0.174746 -0.107101
v -0.058218 0.222619 -0.158535
v -0.043286 0.342204 -0.277840
v 0.111320 0.522744 -0.228812
v 0.268363 0.452218 -0.212025
v 0.269265 0.322717 -0.096088
v 0.035275 0.179899 0.012169
v 0.139930 0.216534 -0.070638
v 0.178670 0.251512 -0.078360
v -0.019625 0.173255 -0.011359
v 0.143186 0.259415 -0.122071
v 0.200691 0.396588 -0.174424
v -0.044414 0.179465 -0.071285
v -0.021982 0.239723 -0.126201
v 0.067460 0.404324 -0.206456
v -0.175564 0.150541 0.017796
v 0.005595 0.147482 -0.028339
v -0.085405 0.477627 0.290938
v 0.280995 0.483253 0.080050
v -0.090132 0.360999 0.249461
v -0.168323 0.317663 0.146698
v -0.198556 0.226502 0.082216
v -0.146873 0.148414 0.010270
v -0.108015 0.146598 0.005910
v -0.055185 0.146957 -0.005572
v 0.045905 0.186734 0.010495
v 0.099638 0.233802 -0.004174
v 0.263611 0.379076 0.021441
v 0.206853 0.571741 0.096738
v 0.150141 0.497491 0.222094
v 0.024814 0.365986 0.190248
v -0.155502 0.219460 0.045319
v -0.031171 0.246052 0.089746
v 0.011286 0.283674 0.118002
v -0.089966 0.213479 0.051161
v 0.063570 0.297136 0.086851
v 0.125866 0.446410 0.153023
v -0.006680 0.186889 0.040239
v 0.093500 0.274500 0.010162
v 0.181346 0.451481 0.074612
v -0.067514 0.798724 0.294608
v -0.054765 0.808464 0.303871
v -0.072384 0.808464 0.309596
v -0.083274 0.808464 0.294608
v -0.072384 0.808464 0.279621
v -0.054765 0.808464 0.285346
v -0.062645 0.824223 0.309596
v -0.080264 0.824223 0.303871
v -0.080264 0.824223 0.285346
v -0.062645 0.824223 0.279621
v -0.051755 0.824223 0.294608
v -0.067514 0.833963 0.294608
v -0.092065 1.002852 -0.239369
v -0.076021 1.015108 -0.227713
v -0.098193 1.015108 -0.220509
v -0.111896 1.015108 -0.239369
v -0.098193 1.015108 -0.258230
v -0.076021 1.015108 -0.251026
v -0.085937 1.034940 -0.220509
v -0.108109 1.034940 -0.227713
v -0.108109 1.034940 -0.251026
v -0.085937 1.034940 -0.258230
v -0.072234 1.034940 -0.239369
v -0.092065 1.047196 -0.239369
v 0.006138 1.471277 0.147304
v 0.016321 1.479056 0.154703
v 0.002248 1.479056 0.159275
v -0.006450 1.479056 0.147304
v 0.002248 1.479056 0.135333
v 0.016321 1.479056 0.139906
v 0.010027 1.491643 0.159275
v -0.004046 1.491643 0.154703
v -0.004046 1.491643 0.139906
v 0.010027 1.491643 0.135333
v 0.018725 1.491643 0.147304
v 0.006138 1.499423 0.147304
v 0.371639 0.877063 -0.244269
v 0.383802 0.886356 -0.235432
v 0.366993 0.886356 -0.229970
v 0.356603 0.886356 -0.244269
v 0.366993 0.886356 -0.258568
v 0.383802 0.886356 -0.253106
v 0.376285 0.901391 -0.229970
v 0.359475 0.901391 -0.235432
v 0.359475 0.901391 -0.253106
v 0.376285 0.901391 -0.258568
v 0.386674 0.901391 -0.244269
v 0.371639 0.910683 -0.244269
v 0.478738 1.453579 0.055239
v 0.488404 1.460963 0.062261
v 0.475047 1.460963 0.066601
v 0.466791 1.460963 0.055239
v 0.475047 1.460963 0.043877
v 0.488404 1.460963 0.048217
v 0.482430 1.472910 0.066601
v 0.469073 1.472910 0.062261
v 0.469073 1.472910 0.048217
v 0.482430 1.472910 0.043877
v 0.490686 1.472910 0.055239
v 0.478738 1.480294 0.055239
v 0.761071 1.983349 0.349847
v 0.769340 1.989666 0.355855
v 0.757913 1.989666 0.359568
v 0.750851 1.989666 0.349848
v 0.757913 1.989666 0.340127
v 0.769340 1.989666 0.343840
v 0.764230 1.999887 0.359568
v 0.752803 1.999887 0.355855
v 0.752803 1.999887 0.343840
v 0.764230 1.999887 0.340127
v 0.771292 1.999887 0.349848
v 0.761071 2.006203 0.349848
v 0.042964 1.003618 -0.006138
v 0.054012 1.012058 0.001889
v 0.038744 1.012058 0.006850
v 0.029307 1.012058 -0.006138
v 0.038744 1.012058 -0.019126
v 0.054012 1.012058 -0.014165
v 0.047184 1.025715 0.006850
v 0.031915 1.025715 0.001889
v 0.031915 1.025715 -0.014165
v 0.047184 1.025715 -0.019126
v 0.056620 1.025715 -0.006138
v 0.042964 1.034155 -0.006138
v 1.160020 2.704545 0.077004
v 1.170495 2.712548 0.084614
v 1.156019 2.712548 0.089318
v 1.147072 2.712548 0.077004
v 1.155859 2.712289 0.064099
v 1.170495 2.712548 0.069393
v 1.164021 2.725496 0.089318
v 1.149545 2.725496 0.084614
v 1.149545 2.725496 0.069393
v 1.164181 2.725755 0.064099
v 1.172968 2.725496 0.077004
v 1.160020 2.733498 0.077004
v -0.104340 1.883002 -0.337572
v -0.094520 1.890504 -0.330437
v -0.108092 1.890504 -0.326027
v -0.116480 1.890504 -0.337572
v -0.108092 1.890504 -0.349117
v -0.094520 1.890504 -0.344707
v -0.100589 1.902644 -0.326027
v -0.114161 1.902644 -0.330437
v -0.114161 1.902644 -0.344707
v -0.100589 1.902644 -0.349117
v -0.092201 1.902644 -0.337572
v -0.104340 1.910146 -0.337572
v 0.270058 1.180264 -0.135029
v 0.277639 1.186056 -0.129521
v 0.267162 1.186056 -0.126117
v 0.260687 1.186056 -0.135029
v 0.267162 1.186056 -0.143941
v 0.277639 1.186056 -0.140537
v 0.272953 1.195427 -0.126117
v 0.262476 1.195427 -0.129521
v 0.262476 1.195427 -0.140537
v 0.272953 1.195427 -0.143941
v 0.279429 1.195427 -0.135029
v 0.270058 1.201219 -0.135029
v 0.619905 1.757276 0.165717
v 0.627435 1.763029 0.171188
v 0.617029 1.763029 0.174569
v 0.610597 1.763029 0.165717
v 0.617029 1.763029 0.156866
v 0.627435 1.763029 0.160247
v 0.622781 1.772336 0.174569
v 0.612375 1.772336 0.171188
v 0.612375 1.772336 0.160247
v 0.622781 1.772336 0.156866
v 0.629212 1.772336 0.165717
v 0.619905 1.778089 0.165717
v 0.450809 0.984365 0.072414
v 0.464101 0.994519 0.082071
v 0.445733 0.994519 0.088039
v 0.434381 0.994519 0.072414
v 0.445733 0.994519 0.056790
v 0.464101 0.994519 0.062758
v 0.455886 1.010948 0.088039
v 0.437518 1.010948 0.082071
v 0.437518 1.010948 0.062758
v 0.455886 1.010948 0.056790
v 0.467238 1.010948 0.072414
v 0.450809 1.021101 0.072414
v -0.153442 1.205500 0.098203
v -0.146357 1.210913 0.103351
v -0.156148 1.210913 0.106532
v -0.162200 1.210913 0.098203
v -0.156148 1.210913 0.089874
v -0.146357 1.210913 0.093055
v -0.150736 1.219671 0.106532
v -0.160527 1.219671 0.103351
v -0.160527 1.219671 0.093055
v -0.150736 1.219671 0.089874
v -0.144684 1.219671 0.098203
v -0.153442 1.225084 0.098203
v -0.276195 0.913105 -0.177993
v -0.261829 0.924080 -0.167555
v -0.281683 0.924080 -0.161104
v -0.293953 0.924080 -0.177993
v -0.281683 0.924080 -0.194881
v -0.261829 0.924080 -0.188430
v -0.270708 0.941838 -0.161104
v -0.290562 0.941838 -0.167555
v -0.290562 0.941838 -0.188430
v -0.270708 0.941838 -0.194881
v -0.258437 0.941838 -0.177993
v -0.276195 0.952813 -0.177993
s 0
usemtl Fire
f 25 13 4 14
f 5 19 16 3
f 19 22 15 16
f 22 25 14 15
f 1 8 17 7
f 7 17 18 6
f 6 18 19 5
f 8 9 20 17
f 17 20 21 18
f 18 21 22 19
f 9 10 23 20
f 20 23 24 21
f 21 24 25 22
f 10 2 11 23
f 23 11 12 24
f 24 12 13 25
f 50 38 29 39
f 30 44 41 28
f 44 47 40 41
f 47 50 39 40
f 26 33 42 32
f 32 42 43 31
f 31 43 44 30
f 33 34 45 42
f 42 45 46 43
f 43 46 47 44
f 34 35 48 45
f 45 48 49 46
f 46 49 50 47
f 35 27 36 48
f 48 36 37 49
f 49 37 38 50
f 75 63 54 64
f 55 69 66 53
f 69 72 65 66
f 72 75 64 65
f 51 58 67 57
f 57 67 68 56
f 56 68 69 55
f 58 59 70 67
f 67 70 71 68
f 68 71 72 69
f 59 60 73 70
f 70 73 74 71
f 71 74 75 72
f 60 52 61 73
f 73 61 62 74
f 74 62 63 75
f 100 88 79 89
f 80 94 91 78
f 94 97 90 91
f 97 100 89 90
f 82 92 93 81
f 81 93 94 80
f 92 95 96 93
f 93 96 97 94
f 95 98 99 96
f 96 99 100 97
f 108 109 110 102 111 112 124 123 120 117
f 98 86 87 99
f 99 87 88 100
f 125 113 104 114
f 105 119 116 103
f 119 122 115 116
f 122 125 114 115
f 101 108 117 107
f 107 117 118 106
f 106 118 119 105
f 117 120 121 118
f 118 121 122 119
f 120 123 124 121
f 121 124 125 122
f 126 133 134 135 127 136 148 145 146 143 142 132
f 124 112 113 125
f 150 138 129 139
f 130 144 141 128
f 144 147 140 141
f 147 150 139 140
f 132 142 143 131
f 131 143 144 130
f 143 146 147 144
f 145 148 149 146
f 146 149 150 147
f 148 136 137 149
f 149 137 138 150
f 76 83 84 85 77 86 98 95 92 82
f 151 152 153
f 152 151 156
f 151 153 154
f 151 154 155
f 151 155 156
f 152 156 161
f 153 152 157
f 154 153 158
f 155 154 159
f 156 155 160
f 152 161 157
f 153 157 158
f 154 158 159
f 155 159 160
f 156 160 161
f 157 161 162
f 158 157 162
f 159 158 162
f 160 159 162
f 161 160 162
f 163 164 165
f 164 163 168
f 163 165 166
f 163 166 167
f 163 167 168
f 164 168 173
f 165 164 169
f 166 165 170
f 167 166 171
f 168 167 172
f 164 173 169
f 165 169 170
f 166 170 171
f 167 171 172
f 168 172 173
f 169 173 174
f 170 169 174
f 171 170 174
f 172 171 174
f 173 172 174
f 175 176 177
f 176 175 180
f 175 177 178
f 175 178 179
f 175 179 180
f 176 180 185
f 177 176 181
f 178 177 182
f 179 178 183
f 180 179 184
f 176 185 181
f 177 181 182
f 178 182 183
f 179 183 184
f 180 184 185
f 181 185 186
f 182 181 186
f 183 182 186
f 184 183 186
f 185 184 186
f 187 188 189
f 188 187 192
f 187 189 190
f 187 190 191
f 187 191 192
f 188 192 197
f 189 188 193
f 190 189 194
f 191 190 195
f 192 191 196
f 188 197 193
f 189 193 194
f 190 194 195
f 191 195 196
f 192 196 197
f 193 197 198
f 194 193 198
f 195 194 198
f 196 195 198
f 197 196 198
f 199 200 201
f 200 199 204
f 199 201 202
f 199 202 203
f 199 203 204
f 200 204 209
f 201 200 205
f 202 201 206
f 203 202 207
f 204 203 208
f 200 209 205
f 201 205 206
f 202 206 207
f 203 207 208
f 204 208 209
f 205 209 210
f 206 205 210
f 207 206 210
f 208 207 210
f 209 208 210
f 211 212 213
f 212 211 216
f 211 213 214
f 211 214 215
f 211 215 216
f 212 216 221
f 213 212 217
f 214 213 218
f 215 214 219
f 216 215 220
f 212 221 217
f 213 217 218
f 214 218 219
f 215 219 220
f 216 220 221
f 217 221 222
f 218 217 222
f 219 218 222
f 220 219 222
f 221 220 222
f 223 224 225
f 224 223 228
f 223 225 226
f 223 226 227
f 223 227 228
f 224 228 233
f 225 224 229
f 226 225 230
f 227 226 231
f 228 227 232
f 224 233 229
f 225 229 230
f 226 230 231
f 227 231 232
f 228 232 233
f 229 233 234
f 230 229 234
f 231 230 234
f 232 231 234
f 233 232 234
f 235 236 237
f 236 235 240
f 235 237 238
f 235 238 239
f 235 239 240
f 236 240 245
f 237 236 241
f 238 237 242
f 239 238 243
f 240 239 244
f 236 245 241
f 237 241 242
f 238 242 243
f 239 243 244
f 240 244 245
f 241 245 246
f 242 241 246
f 243 242 246
f 244 243 246
f 245 244 246
f 247 248 249
f 248 247 252
f 247 249 250
f 247 250 251
f 247 251 252
f 248 252 257
f 249 248 253
f 250 249 254
f 251 250 255
f 252 251 256
f 248 257 253
f 249 253 254
f 250 254 255
f 251 255 256
f 252 256 257
f 253 257 258
f 254 253 258
f 255 254 258
f 256 255 258
f 257 256 258
f 259 260 261
f 260 259 264
f 259 261 262
f 259 262 263
f 259 263 264
f 260 264 269
f 261 260 265
f 262 261 266
f 263 262 267
f 264 263 268
f 260 269 265
f 261 265 266
f 262 266 267
f 263 267 268
f 264 268 269
f 265 269 270
f 266 265 270
f 267 266 270
f 268 267 270
f 269 268 270
f 271 272 273
f 272 271 276
f 271 273 274
f 271 274 275
f 271 275 276
f 272 276 281
f 273 272 277
f 274 273 278
f 275 274 279
f 276 275 280
f 272 281 277
f 273 277 278
f 274 278 279
f 275 279 280
f 276 280 281
f 277 281 282
f 278 277 282
f 279 278 282
f 280 279 282
f 281 280 282
f 283 284 285
f 284 283 288
f 283 285 286
f 283 286 287
f 283 287 288
f 284 288 293
f 285 284 289
f 286 285 290
f 287 286 291
f 288 287 292
f 284 293 289
f 285 289 290
f 286 290 291
f 287 291 292
f 288 292 293
f 289 293 294
f 290 289 294
f 291 290 294
f 292 291 294
f 293 292 294
f 295 296 297
f 296 295 300
f 295 297 298
f 295 298 299
f 295 299 300
f 296 300 305
f 297 296 301
f 298 297 302
f 299 298 303
f 300 299 304
f 296 305 301
f 297 301 302
f 298 302 303
f 299 303 304
f 300 304 305
f 301 305 306
f 302 301 306
f 303 302 306
f 304 303 306
f 305 304 306
f 307 308 309
f 308 307 312
f 307 309 310
f 307 310 311
f 307 311 312
f 308 312 317
f 309 308 313
f 310 309 314
f 311 310 315
f 312 311 316
f 308 317 313
f 309 313 314
f 310 314 315
f 311 315 316
f 312 316 317
f 313 317 318
f 314 313 318
f 315 314 318
f 316 315 318
f 317 316 318
