# Blender 5.1.2
# www.blender.org
mtllib car1.mtl
o Muscle_2
v -0.899547 0.529273 -0.366464
v 1.031875 0.533548 -0.367069
v -1.132134 0.474803 -0.314067
v -1.491565 0.219969 -0.634168
v -1.168082 0.333261 -0.366165
v 0.799287 0.479078 -0.314671
v -1.683925 0.307496 0.032370
v 0.763339 0.337536 -0.366769
v -1.684959 0.774094 0.031857
v 1.758442 0.404683 0.031193
v 0.747400 0.189850 -0.627930
v -0.611923 0.186841 -0.627504
v -1.144379 0.754185 -0.590912
v 0.730799 0.755339 -0.592294
v -1.152645 0.726102 0.031744
v -0.630147 0.334451 -0.366334
v 0.868496 0.730576 0.031111
v -0.611719 0.187566 0.032168
v -0.666687 0.475833 -0.314213
v 0.747605 0.190575 0.031743
v -0.684291 0.997691 -0.470770
v 1.301275 0.338727 -0.366938
v 0.403050 1.123035 -0.470712
v 1.264734 0.480108 -0.314817
v -0.675676 1.027010 0.031265
v 0.387789 1.149305 0.030800
v 0.672711 0.852842 -0.795545
v 0.672965 0.738078 -0.795418
v 0.704143 0.852892 -0.812706
v 0.704397 0.738129 -0.812579
v 0.777189 0.853234 -0.649425
v 0.777443 0.738470 -0.649299
v 0.741377 0.853155 -0.649413
v 0.741632 0.738391 -0.649287
v 0.784853 0.738422 -0.707631
v 0.708011 0.853016 -0.707733
v 0.784599 0.853186 -0.707757
v 0.708265 0.738252 -0.707607
v 0.708418 0.678352 -0.643666
v 0.708436 0.678417 -0.585336
v 0.744247 0.678496 -0.585347
v 0.744229 0.678432 -0.643676
v -1.684150 0.409103 0.032258
v -0.612721 0.537590 -0.696893
v 0.746602 0.540599 -0.697319
v 1.758385 0.404478 -0.154636
v -1.683977 0.307315 -0.131915
v -1.144267 0.754580 -0.232159
v 0.730911 0.755734 -0.232743
v -0.611821 0.187204 -0.297668
v 0.747503 0.190212 -0.298093
v -0.684217 0.997954 -0.231869
v 0.403124 1.123298 -0.232345
v 0.763666 0.190173 -0.366608
v 1.301520 0.191076 -0.628103
v 0.763585 0.189885 -0.627935
v 1.301601 0.191364 -0.366776
v 1.264621 0.479706 -0.680675
v 1.031773 0.533188 -0.693911
v 0.763249 0.337214 -0.659320
v 0.799173 0.478676 -0.680529
v 1.301185 0.338408 -0.656608
v -0.629902 0.186801 -0.627499
v -1.167837 0.185610 -0.627330
v -1.167755 0.185898 -0.366003
v -0.629821 0.187088 -0.366172
v -0.899649 0.528910 -0.695866
v -1.168175 0.332932 -0.665342
v -1.132253 0.474385 -0.694687
v -0.630239 0.334122 -0.665511
v -0.666806 0.475415 -0.694832
v 1.877891 0.633559 -0.610411
v 1.878534 0.634265 0.030904
v 1.878451 0.633968 -0.238963
v 1.758679 0.297966 0.031310
v 1.758104 0.252057 -0.628312
v 1.878228 0.481743 -0.610244
v 1.758621 0.297762 -0.154519
v 1.878775 0.488599 -0.230209
v -1.492680 0.724625 -0.627822
v -1.492283 0.535643 -0.696618
v -1.685117 0.773533 -0.477891
v -1.684201 0.408922 -0.132026
v 1.758779 0.252784 0.031360
v 1.758695 0.252487 -0.238506
v 1.878882 0.477462 0.031076
v 1.773960 0.404717 0.031188
v 1.773902 0.404512 -0.154641
v 1.774196 0.298000 0.031306
v 1.774139 0.297796 -0.154524
v -1.683788 0.245164 0.032438
v -1.683930 0.244659 -0.426335
v -1.684676 0.574439 -0.477672
v -1.684518 0.574999 0.032075
v -1.700485 0.307459 0.032375
v -1.700709 0.409066 0.032263
v -1.700536 0.307278 -0.131910
v -1.700760 0.408886 -0.132022
v -0.153811 0.187855 -0.627648
v -0.155006 0.727585 -0.628241
v -0.155894 1.147523 -0.495366
v -0.154609 0.538604 -0.697037
v -0.153709 0.188218 -0.297812
v -0.155812 1.147812 -0.232198
v -0.153606 0.188581 0.032025
v -0.155730 1.148102 0.030970
v 0.730993 0.756024 0.031126
v 0.868431 0.730348 -0.176639
v 0.387626 1.148726 -0.495536
v 0.387708 1.149016 -0.232368
v 0.746205 0.729580 -0.628523
v 0.403206 1.123587 0.030823
v -1.152850 0.725377 -0.627929
v -0.675840 1.026431 -0.495072
v -0.684135 0.998243 0.031299
v -0.675758 1.026721 -0.231903
v -1.152727 0.725812 -0.232125
v -1.144186 0.754870 0.031710
v -0.185054 0.756797 -0.621756
v -0.834630 0.755359 -0.621553
v -0.653239 0.997204 -0.501554
v -0.185816 1.118179 -0.501832
v 0.693987 0.758742 -0.622031
v -0.125084 0.756930 -0.621774
v -0.125846 1.118312 -0.501851
v 0.370449 1.119410 -0.502007
v -1.115418 0.746411 0.031710
v -0.655368 0.989784 0.031299
v 0.705275 0.740607 0.031151
v 0.377488 1.108170 0.030849
v -1.115500 0.746121 -0.232159
v -0.655450 0.989495 -0.231869
v 0.705193 0.740317 -0.232718
v 0.377406 1.107881 -0.232320
v 0.377332 1.107618 -0.470687
v 0.705081 0.739922 -0.592269
v -1.111917 0.752670 -0.561642
v -0.655524 0.989232 -0.470770
v -0.813146 0.748931 -0.592282
v -0.185030 0.750321 -0.592479
v -0.185793 1.111703 -0.472555
v -0.653215 0.990728 -0.472277
v -0.125060 0.750454 -0.592497
v 0.694011 0.752267 -0.592753
v 0.370473 1.112935 -0.472729
v -0.125822 1.111837 -0.472574
v 0.023622 0.632313 -0.653760
v 0.023551 0.665788 -0.641618
v -0.076512 0.665567 -0.641586
v -0.076442 0.632091 -0.653729
v -0.676143 0.630764 -0.653541
v -0.676213 0.664239 -0.641399
v -0.576150 0.664461 -0.641430
v -0.576080 0.630985 -0.653572
v -0.676167 0.638633 -0.675237
v -0.676238 0.672109 -0.663094
v -0.576174 0.672330 -0.663125
v -0.576104 0.638855 -0.675268
v -0.076466 0.639961 -0.675424
v -0.076536 0.673436 -0.663282
v 0.023527 0.673658 -0.663313
v 0.023597 0.640182 -0.675455
v -1.723700 0.370382 -0.403009
v -1.723710 0.378467 -0.378218
v -1.723658 0.349269 -0.418313
v -1.723601 0.323193 -0.418284
v -1.723549 0.302113 -0.402934
v -1.723523 0.294083 -0.378125
v -1.723534 0.302168 -0.353334
v -1.723575 0.323281 -0.338030
v -1.723634 0.349357 -0.338058
v -1.723685 0.370437 -0.353409
v -1.723671 0.358437 -0.394310
v -1.723677 0.363690 -0.378201
v -1.723644 0.344718 -0.404254
v -1.723606 0.327775 -0.404235
v -1.723573 0.314079 -0.394261
v -1.723556 0.308860 -0.378141
v -1.723563 0.314114 -0.362033
v -1.723590 0.327832 -0.352089
v -1.723627 0.344776 -0.352108
v -1.723661 0.358472 -0.362082
v -1.502983 0.370871 -0.403078
v -1.502993 0.378956 -0.378287
v -1.502940 0.349757 -0.418382
v -1.502883 0.323681 -0.418353
v -1.502832 0.302602 -0.403003
v -1.502806 0.294571 -0.378194
v -1.502816 0.302657 -0.353403
v -1.502858 0.323769 -0.338099
v -1.502916 0.349846 -0.338127
v -1.502967 0.370925 -0.353478
v -1.712913 0.358460 -0.394313
v -1.712920 0.363714 -0.378205
v -1.712885 0.344742 -0.404257
v -1.712848 0.327799 -0.404238
v -1.712814 0.314102 -0.394264
v -1.712798 0.308884 -0.378145
v -1.712805 0.314138 -0.362037
v -1.712831 0.327856 -0.352093
v -1.712869 0.344799 -0.352111
v -1.712903 0.358496 -0.362085
v 1.571206 0.192036 -0.298351
v 1.569908 0.731404 -0.628781
v 1.571308 0.192398 0.031485
v 1.447962 0.731630 -0.176820
v 1.570305 0.542422 -0.697577
v 1.570113 0.732129 0.030892
v 1.571103 0.191673 -0.628188
v 1.877819 0.651897 -0.628789
v 1.878412 0.652333 -0.232985
v 1.878237 0.462991 -0.628582
v 1.878816 0.470246 -0.229806
v 1.878493 0.652623 0.030884
v 1.878841 0.495825 0.031056
v 1.833388 0.633870 -0.238916
v 1.833713 0.488500 -0.230163
v 1.833472 0.634166 0.030918
v 1.833779 0.495725 0.031070
v 1.832828 0.633461 -0.610333
v 1.833166 0.481644 -0.610167
v 1.845152 0.494463 -0.534452
v 1.878389 0.518724 -0.534489
v 1.845065 0.526064 -0.589326
v 1.878336 0.538254 -0.568403
v 1.844925 0.589386 -0.589396
v 1.878249 0.577390 -0.568446
v 1.844872 0.621107 -0.534591
v 1.878216 0.596994 -0.534575
v 1.891018 0.557887 -0.534537
v 1.844959 0.589507 -0.479718
v 1.878270 0.577464 -0.500662
v 1.845099 0.526185 -0.479648
v 1.878357 0.538329 -0.500618
v 1.824491 0.526018 -0.589320
v 1.824350 0.589340 -0.589389
v 1.824298 0.621062 -0.534585
v 1.824385 0.589461 -0.479711
v 1.824525 0.526139 -0.479642
v 1.824577 0.494417 -0.534446
v 1.845191 0.494602 -0.408515
v 1.878428 0.518862 -0.408552
v 1.845104 0.526202 -0.463389
v 1.878375 0.538392 -0.442466
v 1.844964 0.589525 -0.463458
v 1.878288 0.577528 -0.442509
v 1.844912 0.621246 -0.408654
v 1.878255 0.597133 -0.408638
v 1.891057 0.558026 -0.408599
v 1.844998 0.589645 -0.353780
v 1.878309 0.577602 -0.374724
v 1.845139 0.526323 -0.353711
v 1.878396 0.538467 -0.374681
v 1.824530 0.526157 -0.463382
v 1.824389 0.589479 -0.463451
v 1.824337 0.621201 -0.408648
v 1.824423 0.589599 -0.353774
v 1.824564 0.526277 -0.353704
v 1.824617 0.494556 -0.408509
v 0.746410 0.730306 0.031149
v 0.746328 0.730016 -0.232720
v 1.570031 0.731839 -0.232977
v 1.448027 0.731859 0.030930
v 1.447922 0.779240 0.030878
v 1.447858 0.779012 -0.176872
v -1.147804 0.185965 -0.344578
v -1.415800 0.185327 -0.385423
v -1.147686 0.186380 0.032336
v -1.415671 0.185787 0.032420
v -1.496269 0.724827 -0.437088
v -1.505096 0.725322 0.031855
v -1.694288 0.606906 -0.227628
v -1.727632 0.631019 -0.227644
v -1.694341 0.638627 -0.172824
v -1.727665 0.650624 -0.193773
v -1.694481 0.701950 -0.172894
v -1.727752 0.689759 -0.193817
v -1.694569 0.733550 -0.227767
v -1.727806 0.709289 -0.227730
v -1.740435 0.670126 -0.227683
v -1.694515 0.701829 -0.282572
v -1.727773 0.689685 -0.261601
v -1.694375 0.638506 -0.282502
v -1.727686 0.650549 -0.261558
v -1.673767 0.638672 -0.172830
v -1.673907 0.701995 -0.172900
v -1.673994 0.733596 -0.227774
v -1.673941 0.701874 -0.282578
v -1.673801 0.638552 -0.282508
v -1.673713 0.606951 -0.227634
v -1.694327 0.606767 -0.353566
v -1.727671 0.630880 -0.353582
v -1.694381 0.638489 -0.298761
v -1.727704 0.650485 -0.319711
v -1.694521 0.701811 -0.298831
v -1.727791 0.689621 -0.319754
v -1.694608 0.733412 -0.353705
v -1.727845 0.709151 -0.353668
v -1.740474 0.669988 -0.353621
v -1.694554 0.701690 -0.408509
v -1.727812 0.689546 -0.387539
v -1.694414 0.638368 -0.408439
v -1.727725 0.650411 -0.387496
v -1.673806 0.638534 -0.298768
v -1.673946 0.701856 -0.298838
v -1.674033 0.733458 -0.353712
v -1.673980 0.701735 -0.408515
v -1.673840 0.638414 -0.408446
v -1.673753 0.606812 -0.353572
v -1.694250 0.607044 -0.101690
v -1.727594 0.631157 -0.101707
v -1.694302 0.638765 -0.046887
v -1.727626 0.650762 -0.067836
v -1.694442 0.702088 -0.046956
v -1.727713 0.689897 -0.067879
v -1.694530 0.733688 -0.101830
v -1.727766 0.709428 -0.101793
v -1.740396 0.670264 -0.101746
v -1.694477 0.701967 -0.156634
v -1.727734 0.689823 -0.135663
v -1.694336 0.638645 -0.156565
v -1.727647 0.650688 -0.135621
v -1.673728 0.638811 -0.046893
v -1.673868 0.702133 -0.046962
v -1.673955 0.733734 -0.101836
v -1.673902 0.702013 -0.156640
v -1.673761 0.638690 -0.156571
v -1.673675 0.607089 -0.101697
v -1.492442 0.611236 -0.669100
v 0.746503 0.587844 -0.680120
v -0.747754 0.584537 -0.679652
v -0.154708 0.585850 -0.679838
v -1.684628 0.624773 0.032021
v 1.878144 0.519697 -0.610286
v 1.833632 0.524843 -0.232352
v 1.833702 0.530335 0.031032
v 1.833081 0.519598 -0.610208
v -1.684786 0.624212 -0.477726
v 0.746396 0.730256 -0.014368
v -0.675691 1.026960 -0.014253
v -1.683802 0.245114 -0.013080
v -0.611733 0.187516 -0.013349
v 0.747590 0.190525 -0.013775
v -1.684972 0.774044 -0.013661
v 0.387775 1.149255 -0.014717
v -1.684532 0.574949 -0.013442
v 1.758764 0.252734 -0.014157
v -1.152659 0.726053 -0.013773
v 1.878479 0.652573 -0.014634
v 1.878870 0.476373 -0.014441
v 1.758664 0.297916 -0.014207
v 1.758428 0.404632 -0.014324
v 1.774182 0.297950 -0.014211
v 1.773946 0.404667 -0.014329
v -1.683940 0.307446 -0.013148
v -1.684165 0.409053 -0.013260
v -1.700499 0.307409 -0.013143
v -1.700724 0.409016 -0.013254
v -0.153620 0.188530 -0.013492
v -0.155744 1.148052 -0.014547
v 0.730979 0.755974 -0.014391
v 0.403192 1.123537 -0.014694
v -0.684149 0.998193 -0.014218
v -1.144200 0.754820 -0.013808
v 0.705261 0.740557 -0.014366
v 0.377474 1.108120 -0.014669
v -0.655382 0.989734 -0.014218
v -1.115432 0.746361 -0.013807
v 1.570098 0.732079 -0.014626
v 1.571294 0.192348 -0.014033
v 1.878521 0.634215 -0.014614
v 1.878829 0.494734 -0.014460
v 1.833459 0.634116 -0.014599
v 1.833767 0.494634 -0.014446
v 0.868482 0.730527 -0.014406
v 1.448013 0.731809 -0.014588
v 1.447908 0.779191 -0.014639
v -1.415685 0.185737 -0.013098
v -1.147701 0.186330 -0.013181
v -1.503764 0.725276 -0.013664
v 1.833690 0.529505 -0.014485
v -1.684642 0.624723 -0.013497
v -1.685038 0.773811 -0.225127
v -1.498712 0.725046 -0.231939
v -1.684597 0.574716 -0.225704
v -1.684330 0.453949 -0.226055
v -1.683962 0.287178 -0.226540
v -1.683867 0.244879 -0.226662
v -1.684708 0.624490 -0.225560
v -0.899299 0.530149 0.430227
v 1.032122 0.534424 0.429623
v -1.131920 0.475564 0.378094
v -1.491151 0.221435 0.698978
v -1.167834 0.334137 0.430526
v 0.799502 0.479840 0.377489
v 0.763587 0.338412 0.429922
v 0.747810 0.191300 0.691416
v -0.611514 0.188292 0.691841
v -1.143992 0.755555 0.654332
v 0.731187 0.756710 0.654546
v -0.629899 0.335328 0.430357
v -0.666472 0.476594 0.377948
v -0.683979 0.998795 0.533369
v 1.301522 0.339603 0.429753
v 0.403362 1.124139 0.532359
v 1.264950 0.480870 0.377344
v 0.673225 0.854660 0.857618
v 0.673479 0.739896 0.857744
v 0.704667 0.854749 0.874759
v 0.704921 0.739985 0.874885
v 0.777612 0.854730 0.711433
v 0.777866 0.739967 0.711559
v 0.741800 0.854651 0.711443
v 0.742054 0.739887 0.711570
v 0.785312 0.740047 0.769886
v 0.708470 0.854641 0.769784
v 0.785058 0.854811 0.769760
v 0.708724 0.739877 0.769910
v 0.708837 0.679837 0.706101
v 0.708819 0.679773 0.647771
v 0.744630 0.679852 0.647760
v 0.744648 0.679917 0.706089
v -0.612269 0.539193 0.760459
v 0.747054 0.542201 0.760033
v 1.758500 0.404887 0.217022
v -1.683874 0.307676 0.196654
v -1.144104 0.755160 0.295579
v 0.731075 0.756315 0.294995
v -0.611616 0.187929 0.362005
v 0.747707 0.190938 0.361579
v -0.684053 0.998532 0.294467
v 0.403288 1.123876 0.293992
v 0.763913 0.191049 0.430083
v 1.301930 0.192527 0.691242
v 0.763995 0.191336 0.691411
v 1.301849 0.192240 0.429915
v 1.265063 0.481272 0.743201
v 1.032224 0.534783 0.756465
v 0.763678 0.338734 0.722472
v 0.799616 0.480242 0.743347
v 1.301612 0.339921 0.719423
v -0.629492 0.188252 0.691847
v -1.167427 0.187062 0.692015
v -1.167508 0.186774 0.430688
v -0.629573 0.187964 0.430519
v -0.899197 0.530511 0.759629
v -1.167742 0.334466 0.729703
v -1.131801 0.475983 0.758713
v -0.629806 0.335657 0.729535
v -0.666354 0.477013 0.758568
v 1.878289 0.634970 0.672218
v 1.878618 0.634562 0.300770
v 1.758514 0.253508 0.691033
v 1.878627 0.483153 0.672385
v 1.758736 0.298171 0.217140
v 1.878937 0.489174 0.292336
v -1.492270 0.726076 0.691523
v -1.491831 0.537246 0.760734
v -1.684800 0.774654 0.541604
v -1.684099 0.409284 0.196542
v 1.758862 0.253080 0.301226
v 1.774018 0.404921 0.217018
v 1.774254 0.298205 0.217135
v -1.683645 0.245669 0.491210
v -1.684359 0.575560 0.541822
v -1.700433 0.307640 0.196659
v -1.700658 0.409247 0.196548
v -0.153401 0.189306 0.691698
v -0.154596 0.729037 0.691104
v -0.155567 1.148681 0.557307
v -0.154157 0.540207 0.760316
v -0.153504 0.188943 0.361861
v -0.155649 1.148392 0.294139
v 0.868561 0.730805 0.238862
v 0.387953 1.149884 0.557137
v 0.387871 1.149595 0.293968
v 0.746615 0.731031 0.690823
v -1.152440 0.726828 0.691417
v -0.675513 1.027589 0.557602
v -0.675594 1.027300 0.294433
v -1.152562 0.726393 0.295613
v -0.184648 0.758234 0.684574
v -0.834224 0.756796 0.684777
v -0.652908 0.998376 0.564135
v -0.185485 1.119352 0.563856
v 0.694393 0.760179 0.684298
v -0.124678 0.758366 0.684555
v -0.125515 1.119484 0.563837
v 0.370781 1.120583 0.563682
v -1.115337 0.746701 0.295579
v -0.655286 0.990074 0.294468
v 0.705357 0.740897 0.295020
v 0.377570 1.108459 0.294017
v 0.377644 1.108722 0.532384
v 0.705469 0.741293 0.654571
v -1.111549 0.753975 0.625045
v -0.655212 0.990337 0.533369
v -0.812758 0.750303 0.655507
v -0.184643 0.751694 0.655310
v -0.185480 1.112812 0.534593
v -0.652903 0.991836 0.534872
v -0.124673 0.751826 0.655292
v 0.694398 0.753639 0.655035
v 0.370786 1.114042 0.534419
v -0.125510 1.112944 0.534574
v 0.024047 0.633820 0.716722
v 0.023969 0.667269 0.704506
v -0.076094 0.667048 0.704538
v -0.076016 0.633598 0.716753
v -0.675718 0.632271 0.716941
v -0.675795 0.665720 0.704725
v -0.575732 0.665941 0.704694
v -0.575654 0.632492 0.716910
v -0.675728 0.640188 0.738619
v -0.675806 0.673637 0.726403
v -0.575743 0.673859 0.726372
v -0.575665 0.640409 0.738588
v -0.076026 0.641516 0.738431
v -0.076104 0.674965 0.726215
v 0.023959 0.675186 0.726184
v 0.024036 0.641737 0.738400
v -1.723429 0.371340 0.467633
v -1.723455 0.379371 0.442824
v -1.723378 0.350261 0.482984
v -1.723321 0.324184 0.483012
v -1.723279 0.303071 0.467708
v -1.723269 0.294986 0.442917
v -1.723294 0.303017 0.418108
v -1.723345 0.324096 0.402757
v -1.723403 0.350172 0.402728
v -1.723445 0.371285 0.418033
v -1.723406 0.359375 0.458960
v -1.723423 0.364593 0.442840
v -1.723373 0.345679 0.468934
v -1.723335 0.328735 0.468953
v -1.723308 0.315017 0.459009
v -1.723301 0.309763 0.442901
v -1.723318 0.314981 0.426781
v -1.723351 0.328678 0.416807
v -1.723389 0.345621 0.416788
v -1.723416 0.359340 0.426732
v -1.502712 0.371828 0.467564
v -1.502738 0.379859 0.442755
v -1.502661 0.350749 0.482915
v -1.502603 0.324673 0.482943
v -1.502561 0.303560 0.467639
v -1.502551 0.295474 0.442848
v -1.502576 0.303505 0.418039
v -1.502628 0.324584 0.402688
v -1.502686 0.350661 0.402660
v -1.502728 0.371774 0.417964
v -1.712647 0.359399 0.458956
v -1.712664 0.364617 0.442837
v -1.712614 0.345702 0.468931
v -1.712577 0.328759 0.468949
v -1.712549 0.315041 0.459005
v -1.712543 0.309787 0.442897
v -1.712560 0.315005 0.426778
v -1.712593 0.328702 0.416804
v -1.712630 0.345645 0.416785
v -1.712658 0.359363 0.426729
v 1.571410 0.192761 0.361322
v 1.570318 0.732855 0.690565
v 1.448092 0.732087 0.238680
v 1.570758 0.544025 0.759775
v 1.571513 0.193124 0.691158
v 1.878229 0.653348 0.690556
v 1.878576 0.652913 0.294753
v 1.878647 0.464442 0.690764
v 1.878978 0.470819 0.291973
v 1.833556 0.634463 0.300751
v 1.833875 0.489075 0.292319
v 1.833227 0.634871 0.672169
v 1.833564 0.483055 0.672336
v 1.845503 0.495707 0.596586
v 1.878740 0.519967 0.596550
v 1.845451 0.527428 0.651391
v 1.878708 0.539572 0.630420
v 1.845310 0.590751 0.651321
v 1.878621 0.578708 0.630377
v 1.845223 0.622351 0.596447
v 1.878568 0.598238 0.596463
v 1.891370 0.559131 0.596503
v 1.845276 0.590630 0.541643
v 1.878600 0.578633 0.562593
v 1.845416 0.527308 0.541713
v 1.878687 0.539498 0.562636
v 1.824876 0.527382 0.651397
v 1.824735 0.590705 0.651327
v 1.824649 0.622306 0.596454
v 1.824702 0.590585 0.541650
v 1.824842 0.527262 0.541719
v 1.824929 0.495661 0.596593
v 1.845464 0.495569 0.470649
v 1.878701 0.519829 0.470612
v 1.845412 0.527290 0.525453
v 1.878669 0.539434 0.504483
v 1.845271 0.590612 0.525384
v 1.878582 0.578569 0.504440
v 1.845184 0.622213 0.470510
v 1.878528 0.598100 0.470526
v 1.891331 0.558993 0.470565
v 1.845237 0.590492 0.415706
v 1.878561 0.578495 0.436655
v 1.845377 0.527169 0.415775
v 1.878648 0.539359 0.436698
v 1.824837 0.527244 0.525459
v 1.824696 0.590567 0.525390
v 1.824610 0.622168 0.470516
v 1.824662 0.590446 0.415712
v 1.824803 0.527124 0.415781
v 1.824890 0.495523 0.470656
v 0.746492 0.730596 0.295019
v 1.570195 0.732419 0.294761
v 1.447986 0.779469 0.238628
v -1.147569 0.186795 0.409250
v -1.415541 0.186246 0.450263
v -1.495978 0.725858 0.500791
v -1.694127 0.607477 0.291714
v -1.727471 0.631590 0.291698
v -1.694214 0.639078 0.236841
v -1.727525 0.651120 0.257784
v -1.694354 0.702400 0.236771
v -1.727611 0.690256 0.257741
v -1.694407 0.734122 0.291575
v -1.727644 0.709860 0.291612
v -1.740273 0.670697 0.291659
v -1.694320 0.702520 0.346449
v -1.727591 0.690331 0.325526
v -1.694180 0.639198 0.346518
v -1.727504 0.651195 0.325569
v -1.673640 0.639123 0.236834
v -1.673779 0.702446 0.236764
v -1.673832 0.734167 0.291569
v -1.673746 0.702566 0.346442
v -1.673606 0.639244 0.346512
v -1.673553 0.607522 0.291708
v -1.694088 0.607615 0.417652
v -1.727432 0.631729 0.417636
v -1.694175 0.639216 0.362778
v -1.727486 0.651259 0.383721
v -1.694315 0.702539 0.362708
v -1.727572 0.690395 0.383679
v -1.694368 0.734260 0.417512
v -1.727605 0.709999 0.417550
v -1.740234 0.670836 0.417596
v -1.694281 0.702659 0.472386
v -1.727551 0.690469 0.451463
v -1.694141 0.639336 0.472455
v -1.727464 0.651334 0.451506
v -1.673600 0.639261 0.362771
v -1.673741 0.702584 0.362702
v -1.673794 0.734305 0.417506
v -1.673707 0.702705 0.472380
v -1.673566 0.639382 0.472449
v -1.673513 0.607661 0.417646
v -1.694166 0.607338 0.165776
v -1.727510 0.631451 0.165760
v -1.694253 0.638939 0.110903
v -1.727564 0.650982 0.131846
v -1.694393 0.702261 0.110834
v -1.727651 0.690117 0.131803
v -1.694446 0.733983 0.165637
v -1.727683 0.709722 0.165674
v -1.740312 0.670559 0.165721
v -1.694359 0.702382 0.220511
v -1.727630 0.690192 0.199588
v -1.694219 0.639060 0.220581
v -1.727543 0.651056 0.199631
v -1.673679 0.638985 0.110896
v -1.673819 0.702307 0.110827
v -1.673872 0.734028 0.165631
v -1.673785 0.702428 0.220505
v -1.673644 0.639105 0.220574
v -1.673591 0.607383 0.165770
v -1.492006 0.612778 0.733050
v 0.746945 0.589409 0.742731
v -0.747312 0.586102 0.743198
v -0.154267 0.587414 0.743013
v 1.878542 0.521107 0.672344
v 1.833795 0.525422 0.294427
v 1.833480 0.521009 0.672294
v -1.684469 0.625333 0.541768
v 0.746424 0.730356 0.076667
v -0.675662 1.027060 0.076782
v -1.683773 0.245214 0.077955
v -0.611705 0.187616 0.077686
v 0.747619 0.190625 0.077260
v -1.684944 0.774144 0.077374
v 0.387803 1.149355 0.076318
v -1.684504 0.575050 0.077593
v 1.758793 0.252833 0.076878
v -1.152631 0.726153 0.077262
v 1.878508 0.652673 0.076401
v 1.878898 0.476473 0.076594
v 1.758693 0.298017 0.076829
v 1.758456 0.404733 0.076711
v 1.774210 0.298051 0.076824
v 1.773974 0.404767 0.076706
v -1.683911 0.307546 0.077887
v -1.684136 0.409153 0.077775
v -1.700470 0.307509 0.077892
v -1.700695 0.409117 0.077780
v -0.153592 0.188630 0.077542
v -0.155716 1.148152 0.076488
v 0.731007 0.756075 0.076644
v 0.403220 1.123637 0.076341
v -0.684121 0.998293 0.076816
v -1.144171 0.754920 0.077227
v 0.705289 0.740657 0.076669
v 0.377502 1.108220 0.076366
v -0.655354 0.989834 0.076817
v -1.115404 0.746461 0.077228
v 1.570127 0.732180 0.076409
v 1.571322 0.192448 0.077002
v 1.878549 0.634316 0.076421
v 1.878857 0.494834 0.076575
v 1.833486 0.634216 0.076435
v 1.833795 0.494735 0.076589
v 0.868510 0.730626 0.076629
v 1.448041 0.731909 0.076448
v 1.447936 0.779290 0.076396
v -1.415656 0.185837 0.077937
v -1.147672 0.186430 0.077854
v -1.503735 0.725376 0.077371
v 1.833718 0.529605 0.076550
v -1.684613 0.624823 0.077538
v -1.684878 0.774376 0.288840
v -1.498548 0.725627 0.295644
v -1.684437 0.575283 0.289855
v -1.684170 0.454517 0.290471
v -1.683800 0.287748 0.291322
v -1.683707 0.245449 0.291538
v -1.684548 0.625056 0.289602
v 1.032047 0.443177 -0.456880
v 1.031985 0.443893 -0.647993
v 0.918957 0.406155 -0.456804
v 0.918351 0.406693 -0.647917
v 0.849226 0.309731 -0.456676
v 0.848285 0.309806 -0.647788
v 0.849490 0.190736 -0.456545
v 0.848550 0.190238 -0.647657
v 0.919646 0.094622 -0.456461
v 0.919044 0.093661 -0.647572
v 1.032899 0.058101 -0.456456
v 1.032842 0.056965 -0.647567
v 1.145989 0.095123 -0.456532
v 1.146475 0.094165 -0.647644
v 1.215719 0.191547 -0.456660
v 1.216541 0.191052 -0.647772
v 1.215456 0.310542 -0.456790
v 1.216276 0.310620 -0.647904
v 1.145299 0.406656 -0.456874
v 1.145782 0.407197 -0.647988
v 0.887243 0.449312 -0.647954
v 1.031868 0.496658 -0.648051
v 0.798067 0.325999 -0.647790
v 0.798404 0.173822 -0.647623
v 0.888124 0.050905 -0.647516
v 1.032958 0.004200 -0.647510
v 1.177584 0.051546 -0.647607
v 1.266759 0.174859 -0.647770
v 1.266423 0.327036 -0.647937
v 1.176702 0.449952 -0.648044
v 1.012511 0.277767 -0.600163
v 1.032354 0.284263 -0.600177
v 1.000276 0.260849 -0.600141
v 1.000323 0.239971 -0.600118
v 1.012632 0.223107 -0.600103
v 1.032503 0.216700 -0.600102
v 1.052345 0.223195 -0.600115
v 1.064579 0.240113 -0.600138
v 1.064533 0.260992 -0.600161
v 1.052224 0.277855 -0.600175
v 0.918366 0.406746 -0.600276
v 1.032000 0.443946 -0.600352
v 0.848301 0.309858 -0.600147
v 0.848565 0.190291 -0.600016
v 0.919059 0.093714 -0.599932
v 1.032857 0.057017 -0.599927
v 1.146490 0.094217 -0.600003
v 1.216556 0.191105 -0.600131
v 1.216291 0.310672 -0.600263
v 1.145797 0.407249 -0.600347
v 0.848291 0.309823 -0.631540
v 0.918356 0.406711 -0.631668
v 0.919050 0.093679 -0.631324
v 0.848555 0.190256 -0.631409
v 1.146481 0.094183 -0.631395
v 1.032847 0.056983 -0.631319
v 1.216281 0.310638 -0.631655
v 1.216546 0.191070 -0.631524
v 1.031990 0.443911 -0.631744
v 1.145787 0.407214 -0.631739
v 1.012501 0.277733 -0.631556
v 1.032344 0.284229 -0.631569
v 1.000267 0.260815 -0.631534
v 1.000313 0.239937 -0.631510
v 1.012622 0.223073 -0.631496
v 1.032493 0.216665 -0.631495
v 1.052335 0.223161 -0.631508
v 1.064570 0.240079 -0.631531
v 1.064523 0.260958 -0.631553
v 1.052214 0.277821 -0.631568
v 1.031927 0.496868 -0.456938
v 0.887302 0.449522 -0.456841
v 0.798127 0.326210 -0.456678
v 0.798463 0.174032 -0.456511
v 0.888184 0.051116 -0.456404
v 1.033018 0.004410 -0.456397
v 1.177644 0.051756 -0.456494
v 1.266819 0.175069 -0.456658
v 1.266482 0.327246 -0.456825
v 1.176762 0.450163 -0.456932
v 1.032349 0.444252 0.519632
v 1.032407 0.445387 0.710743
v 0.919260 0.407229 0.519707
v 0.918773 0.408188 0.710819
v 0.849529 0.310806 0.519835
v 0.848707 0.311300 0.710948
v 0.849793 0.191810 0.519966
v 0.848972 0.191732 0.711079
v 0.919950 0.095696 0.520050
v 0.919466 0.095156 0.711163
v 1.033202 0.059175 0.520055
v 1.033263 0.058459 0.711168
v 1.146292 0.096197 0.519979
v 1.146897 0.095659 0.711092
v 1.216022 0.192621 0.519851
v 1.216963 0.192547 0.710963
v 1.215759 0.311616 0.519721
v 1.216698 0.312114 0.710832
v 1.145602 0.407731 0.519637
v 1.146204 0.408691 0.710748
v 0.887664 0.450807 0.710782
v 1.032290 0.498152 0.710685
v 0.798489 0.327494 0.710945
v 0.798826 0.175316 0.711112
v 0.888546 0.052400 0.711220
v 1.033380 0.005695 0.711226
v 1.178006 0.053041 0.711129
v 1.267181 0.176353 0.710966
v 1.266844 0.328531 0.710799
v 1.177124 0.451447 0.710691
v 1.012904 0.279157 0.663291
v 1.032745 0.285653 0.663278
v 1.000669 0.262239 0.663313
v 1.000715 0.241361 0.663336
v 1.013025 0.224497 0.663351
v 1.032895 0.218089 0.663352
v 1.052737 0.224585 0.663339
v 1.064971 0.241503 0.663316
v 1.064926 0.262381 0.663293
v 1.052616 0.279245 0.663278
v 0.918758 0.408135 0.663179
v 1.032392 0.445335 0.663102
v 0.848692 0.311247 0.663307
v 0.848957 0.191680 0.663438
v 0.919451 0.095103 0.663523
v 1.033249 0.058407 0.663527
v 1.146882 0.095607 0.663451
v 1.216948 0.192495 0.663323
v 1.216683 0.312062 0.663192
v 1.146189 0.408639 0.663107
v 0.848702 0.311282 0.694699
v 0.918768 0.408170 0.694571
v 0.919461 0.095138 0.694915
v 0.848967 0.191715 0.694831
v 1.146892 0.095641 0.694844
v 1.033258 0.058442 0.694920
v 1.216693 0.312097 0.694584
v 1.216958 0.192529 0.694715
v 1.032402 0.445370 0.694495
v 1.146199 0.408673 0.694500
v 1.012913 0.279192 0.694683
v 1.032755 0.285687 0.694670
v 1.000679 0.262274 0.694706
v 1.000725 0.241395 0.694729
v 1.013034 0.224532 0.694743
v 1.032905 0.218124 0.694744
v 1.052747 0.224620 0.694731
v 1.064981 0.241538 0.694709
v 1.064935 0.262416 0.694686
v 1.052626 0.279280 0.694671
v 1.032231 0.497942 0.519572
v 0.887605 0.450596 0.519670
v 0.798430 0.327284 0.519833
v 0.798767 0.175106 0.520001
v 0.888487 0.052190 0.520108
v 1.033321 0.005485 0.520114
v 1.177947 0.052830 0.520017
v 1.267121 0.176143 0.519854
v 1.266785 0.328321 0.519686
v 1.177065 0.451237 0.519579
v -0.897581 0.438906 -0.456275
v -0.897643 0.439622 -0.647389
v -0.784329 0.402386 -0.456271
v -0.783846 0.402926 -0.647384
v -0.714173 0.306271 -0.456187
v -0.713352 0.306349 -0.647300
v -0.713909 0.187276 -0.456056
v -0.713087 0.186782 -0.647168
v -0.783640 0.090852 -0.455928
v -0.783153 0.089894 -0.647040
v -0.896730 0.053830 -0.455852
v -0.896787 0.052694 -0.646964
v -1.009982 0.090352 -0.455858
v -1.010584 0.089391 -0.646969
v -1.080138 0.186466 -0.455941
v -1.081078 0.185967 -0.647053
v -1.080402 0.305460 -0.456072
v -1.081343 0.305535 -0.647184
v -1.010672 0.401884 -0.456200
v -1.011277 0.402422 -0.647313
v -0.752926 0.445682 -0.647441
v -0.897760 0.492387 -0.647447
v -0.663205 0.322765 -0.647333
v -0.662869 0.170588 -0.647166
v -0.752044 0.047275 -0.647003
v -0.896670 -0.000071 -0.646906
v -1.041504 0.046635 -0.646912
v -1.131224 0.169551 -0.647020
v -1.131561 0.321729 -0.647187
v -1.042386 0.445041 -0.647350
v -0.877404 0.273585 -0.599572
v -0.897275 0.279992 -0.599573
v -0.865095 0.256721 -0.599557
v -0.865048 0.235843 -0.599534
v -0.877283 0.218924 -0.599512
v -0.897125 0.212429 -0.599498
v -0.916996 0.218836 -0.599499
v -0.929305 0.235700 -0.599514
v -0.929351 0.256579 -0.599537
v -0.917117 0.273497 -0.599559
v -0.783831 0.402978 -0.599743
v -0.897629 0.439675 -0.599748
v -0.713337 0.306401 -0.599659
v -0.713072 0.186834 -0.599527
v -0.783138 0.089947 -0.599399
v -0.896772 0.052746 -0.599323
v -1.010569 0.089443 -0.599328
v -1.081063 0.186020 -0.599412
v -1.081328 0.305587 -0.599544
v -1.011262 0.402475 -0.599672
v -0.713347 0.306367 -0.631051
v -0.783841 0.402944 -0.631136
v -0.783148 0.089912 -0.630791
v -0.713082 0.186800 -0.630920
v -1.010579 0.089409 -0.630720
v -0.896782 0.052712 -0.630715
v -1.081338 0.305552 -0.630936
v -1.081073 0.185985 -0.630804
v -0.897638 0.439640 -0.631141
v -1.011272 0.402440 -0.631065
v -0.877414 0.273550 -0.630964
v -0.897285 0.279958 -0.630965
v -0.865105 0.256687 -0.630949
v -0.865058 0.235808 -0.630927
v -0.877293 0.218890 -0.630904
v -0.897135 0.212395 -0.630891
v -0.917006 0.218802 -0.630892
v -0.929315 0.235666 -0.630906
v -0.929361 0.256544 -0.630929
v -0.917126 0.273462 -0.630951
v -0.897701 0.492598 -0.456335
v -0.752867 0.445892 -0.456328
v -0.663146 0.322975 -0.456221
v -0.662809 0.170798 -0.456054
v -0.751985 0.047485 -0.455890
v -0.896610 0.000139 -0.455793
v -1.041444 0.046845 -0.455799
v -1.131165 0.169761 -0.455907
v -1.131502 0.321939 -0.456074
v -1.042326 0.445251 -0.456238
v -0.897278 0.439981 0.520236
v -0.897221 0.441117 0.711347
v -0.784026 0.403460 0.520240
v -0.783424 0.404420 0.711352
v -0.713870 0.307345 0.520324
v -0.712930 0.307844 0.711436
v -0.713606 0.188350 0.520455
v -0.712665 0.188276 0.711568
v -0.783336 0.091926 0.520583
v -0.782731 0.091389 0.711696
v -0.896426 0.054904 0.520659
v -0.896365 0.054188 0.711772
v -1.009678 0.091425 0.520654
v -1.010162 0.090885 0.711767
v -1.079835 0.187539 0.520570
v -1.080656 0.187461 0.711683
v -1.080098 0.306535 0.520439
v -1.080921 0.307029 0.711552
v -1.010368 0.402958 0.520312
v -1.010855 0.403917 0.711423
v -0.752504 0.447177 0.711295
v -0.897338 0.493881 0.711289
v -0.662783 0.324260 0.711403
v -0.662447 0.172082 0.711570
v -0.751622 0.048770 0.711734
v -0.896248 0.001424 0.711830
v -1.041082 0.048129 0.711824
v -1.130802 0.171045 0.711716
v -1.131139 0.323223 0.711549
v -1.041964 0.446536 0.711386
v -0.877012 0.274974 0.663882
v -0.896883 0.281382 0.663882
v -0.864703 0.258110 0.663897
v -0.864656 0.237232 0.663920
v -0.876891 0.220314 0.663942
v -0.896733 0.213818 0.663956
v -0.916604 0.220226 0.663955
v -0.928913 0.237090 0.663940
v -0.928959 0.257968 0.663917
v -0.916725 0.274886 0.663895
v -0.783439 0.404368 0.663711
v -0.897236 0.441064 0.663706
v -0.712944 0.307791 0.663795
v -0.712680 0.188224 0.663927
v -0.782746 0.091336 0.664056
v -0.896379 0.054136 0.664132
v -1.010177 0.090833 0.664127
v -1.080671 0.187409 0.664042
v -1.080935 0.306977 0.663910
v -1.010870 0.403864 0.663782
v -0.712935 0.307826 0.695188
v -0.783429 0.404402 0.695103
v -0.782736 0.091370 0.695448
v -0.712670 0.188258 0.695319
v -1.010167 0.090867 0.695519
v -0.896370 0.054171 0.695524
v -1.080926 0.307011 0.695303
v -1.080661 0.187444 0.695435
v -0.897226 0.441099 0.695098
v -1.010860 0.403899 0.695175
v -0.877002 0.275009 0.695275
v -0.896873 0.281417 0.695274
v -0.864693 0.258145 0.695290
v -0.864647 0.237267 0.695313
v -0.876881 0.220349 0.695335
v -0.896723 0.213853 0.695348
v -0.916594 0.220261 0.695348
v -0.928903 0.237125 0.695333
v -0.928949 0.258003 0.695310
v -0.916715 0.274921 0.695288
v -0.897398 0.493671 0.520177
v -0.752564 0.446966 0.520183
v -0.662843 0.324050 0.520291
v -0.662506 0.171872 0.520458
v -0.751681 0.048560 0.520621
v -0.896307 0.001214 0.520718
v -1.041141 0.047919 0.520712
v -1.130862 0.170835 0.520604
v -1.131198 0.323013 0.520437
v -1.042023 0.446326 0.520274
vn -0.0011 0.3421 -0.9397
vn 0.0022 -1.0000 0.0011
vn 0.2587 0.9660 0.0023
vn 0.2608 0.9654 -0.0011
vn 0.2586 0.9660 0.0023
vn -0.2821 -0.9594 0.0011
vn -0.2048 -0.9760 -0.0736
vn -0.0022 1.0000 -0.0011
vn -0.0021 0.9764 0.2160
vn 0.7936 0.0011 -0.6084
vn -0.4792 -0.0020 -0.8777
vn -0.8399 0.4871 0.2395
vn 0.0003 0.0011 1.0000
vn 0.9920 0.0023 0.1260
vn 0.8759 -0.4793 0.0560
vn -0.0014 0.7298 0.6837
vn 0.0014 -0.7298 -0.6837
vn 0.0001 -0.1941 -0.9810
vn -0.0015 -0.2002 -0.9798
vn 0.0001 -0.1722 -0.9851
vn -0.0031 -0.2063 -0.9785
vn -0.7462 -0.1172 -0.6553
vn -0.0003 -0.0011 -1.0000
vn 0.2821 0.9594 -0.0011
vn 0.1563 0.9877 0.0096
vn 0.2490 0.9685 0.0037
vn 0.2492 0.9684 0.0033
vn 0.2491 0.9685 0.0034
vn 0.2282 -0.9736 0.0010
vn 0.9692 -0.2461 -0.0000
vn 1.0000 0.0022 -0.0003
vn -1.0000 -0.0022 0.0003
vn -0.9681 -0.2504 0.0006
vn -0.2239 -0.9746 0.0011
vn -0.0005 0.0849 -0.9964
vn 0.0017 0.0011 1.0000
vn 0.8723 -0.4889 0.0035
vn -0.2268 0.9739 -0.0010
vn 0.8577 0.5141 -0.0008
vn 0.8577 0.5142 -0.0008
vn 0.7534 0.6575 -0.0010
vn -0.5023 0.8647 -0.0008
vn -0.9594 0.2821 -0.0000
vn -0.0008 0.2160 -0.9764
vn -0.0012 0.4234 -0.9059
vn -0.0550 0.2221 -0.9735
vn -0.0010 0.3078 -0.9514
vn 0.5142 -0.8577 0.0008
vn -0.7598 -0.6350 -0.1398
vn 0.8320 -0.3925 -0.3921
vn -0.5142 0.8577 -0.0008
vn 0.2449 -0.9466 -0.2096
vn 0.1259 -0.2085 0.9699
vn 0.0021 -0.9764 -0.2160
vn -0.3669 0.3158 0.8750
vn -0.0011 0.3410 -0.9401
vn -0.0010 0.3410 -0.9401
vn 0.0020 -0.9401 -0.3410
vn -0.0020 0.9401 0.3410
vn -0.6485 0.1163 -0.7522
vn 0.1545 0.1768 -0.9721
vn 0.2498 0.9683 -0.0013
vn 0.2497 0.9683 -0.0012
vn 0.3068 -0.9518 0.0008
vn 0.3070 -0.9517 0.0008
vn 0.3067 -0.9518 0.0009
vn 0.2497 0.9683 -0.0011
vn 0.1306 -0.1493 -0.9801
vn 0.3066 -0.9518 0.0010
vn 1.0000 0.0023 -0.0005
vn 1.0000 0.0024 -0.0016
vn 1.0000 0.0024 -0.0013
vn 1.0000 0.0022 -0.0017
vn 1.0000 0.0021 -0.0016
vn 1.0000 0.0021 -0.0009
vn -0.0022 0.9997 -0.0232
vn -0.0022 0.9998 -0.0180
vn -0.0837 0.9965 -0.0011
vn -0.2162 -0.9763 0.0011
vn -0.0386 -0.9984 -0.0407
vn -0.7119 0.1488 -0.6863
vn -0.0022 0.9997 -0.0240
vn -0.0022 0.9997 -0.0262
vn 0.3066 -0.9518 0.0009
vn 0.5145 -0.8575 0.0106
vn 0.2540 0.9672 0.0011
vn 0.2539 0.9672 0.0011
vn -0.0005 0.3441 0.9389
vn 0.2587 0.9660 -0.0046
vn 0.2586 0.9660 -0.0046
vn -0.2047 -0.9759 0.0758
vn -0.0022 0.9759 -0.2181
vn 0.7940 0.0024 0.6079
vn -0.4786 -0.0001 0.8780
vn -0.8400 0.4865 -0.2401
vn 0.9919 0.0021 -0.1266
vn 0.8758 -0.4794 -0.0554
vn -0.0018 0.7283 -0.6853
vn 0.0018 -0.7283 0.6853
vn 0.0007 -0.1919 0.9814
vn -0.0009 -0.1980 0.9802
vn 0.0007 -0.1700 0.9854
vn -0.0025 -0.2041 0.9789
vn -0.7458 -0.1158 0.6560
vn 0.1563 0.9876 -0.0119
vn 0.2490 0.9685 -0.0059
vn 0.2491 0.9685 -0.0058
vn 0.2492 0.9684 -0.0056
vn 0.0001 0.0871 0.9962
vn 0.0011 -0.0011 -1.0000
vn 0.8723 -0.4889 -0.0029
vn 0.7534 0.6575 -0.0009
vn -0.0002 0.2181 0.9759
vn -0.0007 0.4254 0.9050
vn -0.0544 0.2242 0.9730
vn -0.0004 0.3099 0.9508
vn -0.7597 -0.6347 0.1417
vn 0.8322 -0.3917 0.3925
vn 0.2450 -0.9462 0.2115
vn 0.1253 -0.2106 -0.9695
vn 0.0022 -0.9759 0.2181
vn -0.3674 0.3138 -0.8755
vn -0.0005 0.3430 0.9393
vn -0.0005 0.3431 0.9393
vn 0.0022 -0.9393 0.3431
vn -0.0022 0.9393 -0.3431
vn -0.6481 0.1180 0.7524
vn 0.1551 0.1789 0.9716
vn 0.2498 0.9683 -0.0010
vn 0.3068 -0.9518 0.0011
vn 0.3067 -0.9518 0.0010
vn 0.3070 -0.9517 0.0011
vn 0.1312 -0.1472 0.9804
vn 1.0000 0.0023 0.0001
vn 1.0000 0.0025 0.0007
vn 1.0000 0.0023 0.0010
vn 1.0000 0.0022 0.0011
vn 1.0000 0.0021 0.0010
vn 1.0000 0.0021 0.0003
vn -0.0022 0.9998 0.0210
vn -0.0022 0.9999 0.0158
vn -0.0385 -0.9983 0.0429
vn -0.7115 0.1503 0.6864
vn -0.0022 0.9998 0.0218
vn -0.0022 0.9997 0.0240
vn 0.5144 -0.8575 -0.0090
vn 0.2539 0.9672 -0.0033
vn 0.2540 0.9672 -0.0034
vn -0.0016 0.5869 -0.8097
vn 0.0020 -0.9514 -0.3080
vn 0.0016 -0.5869 0.8097
vn -0.0022 0.9507 -0.3101
vn -0.0011 0.5887 0.8084
vn -0.0020 0.9514 0.3080
vn 0.0010 -0.5887 -0.8084
vn 0.0011 -0.5887 -0.8084
vn 0.0015 -0.5869 0.8097
vn 0.0022 -0.9507 0.3100
vn 0.0022 -0.9507 0.3101
vn 1.0000 0.0022 -0.0015
vn 1.0000 0.0022 -0.0009
vn -0.0010 0.5887 0.8084
vn -0.0015 0.5869 -0.8097
vn 1.0000 0.0022 0.0009
vn 1.0000 0.0022 0.0003
vn 0.4993 -0.8663 0.0152
vn 0.7783 -0.3021 0.5504
vn 0.4993 -0.8663 -0.0136
vn 0.7780 -0.3033 -0.5502
vn 0.9369 -0.3023 -0.1756
vn 0.5340 -0.7323 -0.4226
vn 0.5323 0.0003 -0.8466
vn 0.9362 0.0017 -0.3516
vn 0.5308 0.7337 -0.4242
vn 0.9355 0.3061 -0.1763
vn 0.5311 0.7346 0.4222
vn 0.9357 0.3065 0.1750
vn 0.5328 0.0021 0.8462
vn 0.9364 0.0025 0.3510
vn 0.5343 -0.7314 0.4238
vn 0.9370 -0.3019 0.1757
vn 0.0021 -0.8655 0.5010
vn -0.0018 0.8666 0.4990
vn -0.0021 0.8655 -0.5010
vn 0.0018 -0.8666 -0.4990
vn 0.0021 -0.8655 0.5009
vn -0.0021 0.8655 -0.5009
vn 0.9370 -0.3020 0.1757
vn -0.9355 -0.3061 0.1763
vn -0.5308 -0.7337 0.4242
vn -0.5323 -0.0002 0.8466
vn -0.9362 -0.0017 0.3516
vn -0.5340 0.7323 0.4226
vn -0.9369 0.3023 0.1756
vn -0.5343 0.7314 -0.4238
vn -0.9370 0.3020 -0.1757
vn -0.5328 -0.0021 -0.8462
vn -0.9364 -0.0025 -0.3510
vn -0.5311 -0.7346 -0.4222
vn -0.9356 -0.3065 -0.1750
vn 0.0018 -0.8666 -0.4991
vn -0.9357 -0.3065 -0.1750
vn -0.9370 0.3019 -0.1757
vn 0.0017 -0.8666 -0.4990
vn -0.5323 -0.0003 0.8466
vn -0.8680 -0.0014 0.4966
vn -0.9278 -0.0016 0.3730
vn -0.0427 0.3790 -0.9244
vn -0.4676 0.8839 -0.0008
vn 0.7463 0.6656 -0.0010
vn -0.4645 0.8856 0.0069
vn -0.4660 0.8848 0.0030
vn -0.0010 0.3150 -0.9491
vn -0.8683 -0.0025 -0.4961
vn -0.9281 -0.0025 -0.3724
vn -0.0422 0.3810 0.9236
vn -0.4645 0.8856 -0.0086
vn -0.4660 0.8847 -0.0047
vn -0.4661 0.8847 -0.0047
vn -0.0004 0.3170 0.9484
vn -0.3111 0.9504 -0.0009
vn -0.8103 0.5860 -0.0004
vn -0.8077 -0.5896 0.0009
vn -0.3069 -0.9517 0.0011
vn 0.3111 -0.9504 0.0009
vn 0.8103 -0.5860 0.0004
vn 0.8077 0.5896 -0.0009
vn 0.3069 0.9517 -0.0011
vn -0.8103 0.5860 -0.0050
vn 0.3111 -0.9504 -0.0037
vn 0.3069 0.9517 -0.0042
vn -0.8077 -0.5896 -0.0037
vn -0.3111 0.9504 -0.0056
vn -0.3111 0.9504 -0.0010
vn -1.0000 -0.0022 -0.0043
vn 0.3069 0.9517 -0.0073
vn 0.8077 0.5896 -0.0070
vn 1.0000 0.0013 -0.0049
vn 0.8103 -0.5860 -0.0042
vn -0.3069 -0.9517 -0.0035
vn 0.3111 -0.9504 0.0010
vn -0.8103 0.5860 0.0042
vn 0.3111 -0.9504 0.0056
vn 0.3069 0.9517 0.0019
vn -0.8077 -0.5896 0.0055
vn -0.3111 0.9504 0.0037
vn -1.0000 -0.0022 0.0049
vn -0.3069 -0.9517 0.0012
vn 0.3069 0.9517 0.0050
vn 0.8077 0.5896 0.0052
vn 1.0000 0.0013 0.0043
vn 0.8103 -0.5860 0.0050
vn -0.3069 -0.9517 0.0057
vn 0.8077 0.5896 -0.0055
vn -0.3111 0.9504 -0.0040
vn 0.3069 0.9517 -0.0058
vn 1.0000 0.0022 -0.0049
vn -0.3111 0.9503 -0.0071
vn -0.8103 0.5860 -0.0065
vn -1.0000 -0.0031 -0.0043
vn 0.8077 0.5896 0.0037
vn -0.3111 0.9504 0.0021
vn 0.3069 0.9517 0.0035
vn 1.0000 0.0022 0.0043
vn -0.3111 0.9504 0.0052
vn -0.8103 0.5860 0.0057
vn -1.0000 -0.0031 0.0049
vt 0.807059 0.430098
vt 0.814422 0.442902
vt 0.813461 0.434618
vt 0.818383 0.449382
vt 0.817344 0.429579
vt 0.932059 0.555098
vt 0.940019 0.556137
vt 0.942344 0.554579
vt 0.182059 0.680098
vt 0.192344 0.679579
vt 0.810059 0.678176
vt 0.560059 0.928176
vt 0.064422 0.317902
vt 0.057059 0.305098
vt 0.937500 0.567500
vt 0.063240 0.179917
vt 0.072824 0.191020
s 1
usemtl body_grey
f 330/1/1 111/1/1 204/1/1 207/1/1
f 57/1/2 55/1/2 209/1/2 203/1/2 51/1/2 11/1/2 56/1/2 54/1/2
f 344/1/3 9/1/4 271/1/4 380/1/5
f 52/1/6 21/1/6 138/1/6 132/1/6
f 4/1/7 267/1/7 92/1/7
f 103/1/2 99/1/2 11/1/2 51/1/2
f 329/1/1 80/1/1 113/1/1 331/1/1
f 360/1/8 106/1/8 26/1/8 345/1/8
f 119/1/9 120/1/9 139/1/9 140/1/9
f 37/2/10 35/2/10 30/2/10 29/2/10
f 29/2/11 30/2/11 28/2/11 27/2/11
f 37/2/8 29/2/8 27/2/8 36/2/8
f 34/2/12 38/2/12 39/2/12 40/2/12
f 34/2/13 32/2/13 31/2/13 33/2/13
f 30/2/2 35/2/2 38/2/2 28/2/2
f 31/2/8 37/2/8 36/2/8 33/2/8
f 31/2/14 32/2/14 35/2/14 37/2/14
f 42/2/2 41/2/2 40/2/2 39/2/2
f 35/2/15 32/2/15 41/2/15 42/2/15
f 32/2/16 34/2/16 40/2/16 41/2/16
f 38/2/17 35/2/17 42/2/17 39/2/17
f 99/1/18 102/1/18 45/1/19 11/1/19
f 4/1/20 81/1/20 44/1/20 12/1/20 63/1/20 70/1/20 71/1/20 67/1/20 69/1/20 68/1/20 64/1/20
f 56/1/21 11/1/19 45/1/19 207/1/21 209/1/21 55/1/21 62/1/21 58/1/21 59/1/21 61/1/21 60/1/21
f 92/1/22 93/1/22 81/1/22 4/1/22
f 83/1/23 47/1/23 97/1/23 98/1/23
f 364/1/24 118/1/24 127/1/24 368/1/24
f 13/1/25 48/1/25 131/1/25 137/1/25
f 101/1/8 104/1/8 110/1/8 109/1/8
f 359/1/2 103/1/2 51/1/2 343/1/2
f 379/1/2 266/1/2 50/1/2 342/1/2
f 80/1/26 82/1/27 270/1/28
f 111/1/8 261/1/8 262/1/8 204/1/8
f 343/1/2 51/1/2 203/1/2 370/1/2
f 2/3/29 6/3/29 61/3/29 59/3/29
f 6/3/30 8/3/30 60/3/30 61/3/30
f 8/3/31 54/3/31 56/3/31 60/3/31
f 55/3/32 57/3/32 22/3/32 62/3/32
f 22/3/33 24/3/33 58/3/33 62/3/33
f 24/3/34 2/3/34 59/3/34 58/3/34
f 8/3/35 6/3/35 2/3/35 24/3/35 22/3/35 57/3/35 54/3/35
f 1/4/29 3/4/29 69/4/29 67/4/29
f 3/4/30 5/4/30 68/4/30 69/4/30
f 5/4/31 65/4/31 64/4/31 68/4/31
f 63/4/32 66/4/32 16/4/32 70/4/32
f 16/4/33 19/4/33 71/4/33 70/4/33
f 19/4/34 1/4/34 67/4/34 71/4/34
f 65/4/35 5/4/35 3/4/35 1/4/35 19/4/35 16/4/35 66/4/35
f 334/5/36 72/5/36 220/5/36 337/5/36
f 78/1/23 46/1/23 88/1/23 90/1/23
f 371/5/2 73/5/2 218/5/2 373/5/2
f 212/1/37 213/1/37 85/1/37 76/1/37
f 351/1/31 75/1/31 84/1/31 347/1/31
f 351/1/2 78/1/2 90/1/2 353/1/2
f 352/1/8 10/1/8 87/1/8 354/1/8
f 356/1/32 43/1/32 94/1/32 346/1/32
f 356/1/8 83/1/8 98/1/8 358/1/8
f 355/1/2 7/1/2 95/1/2 357/1/2
f 342/1/2 50/1/2 103/1/2 359/1/2
f 114/1/38 116/1/38 104/1/38 101/1/38
f 12/1/18 44/1/18 102/1/18 99/1/18
f 340/1/38 25/1/38 106/1/38 360/1/38
f 331/1/1 113/1/1 100/1/1 332/1/1
f 50/1/2 12/1/2 99/1/2 103/1/2
f 361/1/39 107/1/39 260/1/39 339/1/39
f 53/1/40 23/1/40 109/1/40 110/1/40
f 14/1/39 49/1/39 261/1/39 111/1/39
f 23/1/41 14/1/41 111/1/41 109/1/41
f 13/1/42 21/1/42 114/1/42 113/1/42
f 363/1/43 115/1/43 25/1/43 340/1/43
f 48/1/43 13/1/43 113/1/43 117/1/43
f 21/1/43 52/1/43 116/1/43 114/1/43
f 100/1/44 113/1/44 120/1/44 119/1/44
f 113/1/45 114/1/45 121/1/45 120/1/45
f 114/1/46 101/1/46 122/1/46 121/1/46
f 101/1/47 100/1/47 119/1/47 122/1/47
f 111/1/44 100/1/44 124/1/44 123/1/44
f 100/1/47 101/1/47 125/1/47 124/1/47
f 101/1/44 109/1/44 126/1/44 125/1/44
f 109/1/47 111/1/47 123/1/47 126/1/47
f 123/1/9 124/1/9 143/1/9 144/1/9
f 122/1/32 119/1/32 140/1/32 141/1/32
f 23/1/48 53/1/48 134/1/48 135/1/48
f 126/1/49 123/1/49 144/1/49 145/1/49
f 120/1/50 121/1/50 142/1/50 139/1/50
f 49/1/51 14/1/51 136/1/51 133/1/51
f 124/1/31 125/1/31 146/1/31 143/1/31
f 121/1/52 122/1/52 141/1/52 142/1/52
f 14/1/53 23/1/53 135/1/53 136/1/53
f 125/1/54 126/1/54 145/1/54 146/1/54
f 21/1/55 13/1/55 137/1/55 138/1/55
f 362/1/48 112/1/48 130/1/48 366/1/48
f 148/1/31 147/1/31 162/1/31 161/1/31
f 159/1/56 160/1/56 161/1/56 162/1/56
f 150/1/32 149/1/32 160/1/32 159/1/32
f 330/1/1 45/1/1 102/1/1 332/1/1
f 151/1/32 152/1/32 156/1/32 155/1/32
f 155/1/57 156/1/57 157/1/57 158/1/57
f 153/1/31 154/1/31 158/1/31 157/1/31
f 154/1/58 151/1/58 155/1/58 158/1/58
f 152/1/59 153/1/59 157/1/59 156/1/59
f 147/1/58 150/1/58 159/1/58 162/1/58
f 149/1/59 148/1/59 161/1/59 160/1/59
f 329/1/60 338/1/60 82/1/60 80/1/60
f 207/1/61 204/1/61 210/1/61 212/1/61
f 204/1/62 262/1/63 211/1/63 210/1/62
f 203/1/64 209/1/65 76/1/65 85/1/66
f 369/1/67 208/1/67 214/1/67 349/1/67
f 209/1/68 207/1/68 212/1/68 76/1/68
f 370/1/69 203/1/64 85/1/66 347/1/69
f 74/5/70 72/5/71 210/5/71 211/5/72
f 334/5/73 77/5/74 212/5/74
f 77/5/74 79/5/75 213/5/75 212/5/74
f 372/5/31 215/5/31 86/5/31 350/5/31
f 79/5/76 77/5/77 221/5/77 217/5/76
f 72/5/2 74/5/2 216/5/2 220/5/2
f 376/1/8 263/1/8 208/1/8 369/1/8
f 375/1/78 17/1/78 264/1/78 377/1/78
f 341/1/79 388/1/79 92/1/79 267/1/79 378/1/79
f 378/1/2 267/1/2 266/1/2 379/1/2
f 12/1/80 50/1/80 266/1/80 267/1/80 4/1/80 64/1/80 65/1/80 66/1/80 63/1/80
f 270/1/8 117/1/8 113/1/8 80/1/8
f 380/1/8 271/1/8 15/1/8 348/1/8
f 72/5/71 334/5/73 212/5/74 210/5/71
f 81/1/81 93/1/81 338/1/81 329/1/81
f 111/1/1 330/1/1 332/1/1 100/1/1
f 44/1/1 331/1/1 332/1/1 102/1/1
f 77/5/36 334/5/36 337/5/36 221/5/36
f 81/1/1 329/1/1 331/1/1 44/1/1
f 45/1/1 330/1/1 207/1/1
f 94/1/32 333/1/32 382/1/32 346/1/32
f 270/1/8 384/1/8 117/1/8
f 269/1/2 378/1/2 379/1/2 268/1/2
f 91/1/79 341/1/79 378/1/79 269/1/79
f 17/1/8 375/1/8 339/1/8 260/1/8
f 215/5/82 372/5/83 374/5/83 219/5/82
f 73/5/31 371/5/31 349/5/31 214/5/31
f 205/1/84 370/1/69 347/1/69 84/1/84
f 333/1/32 9/1/32 344/1/32 382/1/32
f 118/1/43 364/1/43 348/1/43 15/1/43
f 112/1/40 362/1/40 345/1/40 26/1/40
f 115/1/6 363/1/6 367/1/6 128/1/6
f 18/1/2 342/1/2 359/1/2 105/1/2
f 47/1/2 355/1/2 357/1/2 97/1/2
f 43/1/8 356/1/8 358/1/8 96/1/8
f 7/1/32 355/1/32 341/1/32 91/1/32
f 46/1/8 352/1/8 354/1/8 88/1/8
f 75/1/2 351/1/2 353/1/2 89/1/2
f 10/1/85 352/1/85 350/1/85 86/1/85
f 20/1/2 343/1/2 370/1/2 205/1/2
f 268/1/2 379/1/2 342/1/2 18/1/2
f 105/1/2 359/1/2 343/1/2 20/1/2
f 107/1/51 361/1/51 365/1/51 129/1/51
f 82/1/27 383/1/86 384/1/87 270/1/28
f 386/1/32 385/1/32 93/1/32
f 389/1/32 383/1/32 82/1/32 338/1/32
f 385/1/32 389/1/32 338/1/32 93/1/32
f 388/1/32 387/1/32 92/1/32
f 387/1/32 386/1/32 93/1/32 92/1/32
f 677/1/88 565/1/88 563/1/88 477/1/88
f 436/1/2 433/1/2 435/1/2 397/1/2 430/1/2 562/1/2 566/1/2 434/1/2
f 689/1/89 725/1/90 271/1/4 9/1/4
f 431/1/6 491/1/6 497/1/6 403/1/6
f 393/1/91 464/1/91 617/1/91
f 472/1/2 430/1/2 397/1/2 468/1/2
f 676/1/88 678/1/88 478/1/88 457/1/88
f 705/1/8 690/1/8 26/1/8 106/1/8
f 482/1/92 499/1/92 498/1/92 483/1/92
f 417/2/93 409/2/93 410/2/93 415/2/93
f 409/2/94 407/2/94 408/2/94 410/2/94
f 417/2/8 416/2/8 407/2/8 409/2/8
f 414/2/95 420/2/95 419/2/95 418/2/95
f 414/2/23 413/2/23 411/2/23 412/2/23
f 410/2/2 408/2/2 418/2/2 415/2/2
f 411/2/8 413/2/8 416/2/8 417/2/8
f 411/2/96 417/2/96 415/2/96 412/2/96
f 422/2/2 419/2/2 420/2/2 421/2/2
f 415/2/97 422/2/97 421/2/97 412/2/97
f 412/2/98 421/2/98 420/2/98 414/2/98
f 418/2/99 419/2/99 422/2/99 415/2/99
f 468/1/100 397/1/101 424/1/101 471/1/100
f 393/1/102 443/1/102 447/1/102 448/1/102 446/1/102 450/1/102 449/1/102 442/1/102 398/1/102 423/1/102 458/1/102
f 435/1/103 439/1/103 440/1/103 438/1/103 437/1/103 441/1/103 434/1/103 566/1/103 565/1/103 424/1/101 397/1/101
f 464/1/104 393/1/104 458/1/104 465/1/104
f 460/1/13 467/1/13 466/1/13 426/1/13
f 709/1/24 713/1/24 127/1/24 118/1/24
f 399/1/105 496/1/105 490/1/105 427/1/105
f 470/1/8 475/1/8 476/1/8 473/1/8
f 704/1/2 688/1/2 430/1/2 472/1/2
f 724/1/2 687/1/2 429/1/2 616/1/2
f 457/1/106 618/1/107 459/1/108
f 477/1/8 563/1/8 614/1/8 613/1/8
f 688/1/2 715/1/2 562/1/2 430/1/2
f 391/3/29 438/3/29 440/3/29 395/3/29
f 395/3/30 440/3/30 439/3/30 396/3/30
f 396/3/31 439/3/31 435/3/31 433/3/31
f 434/3/32 441/3/32 404/3/32 436/3/32
f 404/3/33 441/3/33 437/3/33 406/3/33
f 406/3/34 437/3/34 438/3/34 391/3/34
f 396/3/109 433/3/109 436/3/109 404/3/109 406/3/109 391/3/109 395/3/109
f 390/4/29 446/4/29 448/4/29 392/4/29
f 392/4/30 448/4/30 447/4/30 394/4/30
f 394/4/31 447/4/31 443/4/31 444/4/31
f 442/4/32 449/4/32 401/4/32 445/4/32
f 401/4/33 449/4/33 450/4/33 402/4/33
f 402/4/34 450/4/34 446/4/34 390/4/34
f 444/4/109 445/4/109 401/4/109 402/4/109 390/4/109 392/4/109 394/4/109
f 680/5/110 682/5/110 573/5/110 451/5/110
f 455/1/13 463/1/13 462/1/13 425/1/13
f 716/5/2 718/5/2 218/5/2 73/5/2
f 569/1/111 453/1/111 461/1/111 570/1/111
f 696/1/31 692/1/31 84/1/31 75/1/31
f 696/1/2 698/1/2 463/1/2 455/1/2
f 697/1/8 699/1/8 87/1/8 10/1/8
f 701/1/32 691/1/32 94/1/32 43/1/32
f 701/1/8 703/1/8 467/1/8 460/1/8
f 700/1/2 702/1/2 95/1/2 7/1/2
f 687/1/2 704/1/2 472/1/2 429/1/2
f 479/1/38 470/1/38 473/1/38 480/1/38
f 398/1/100 468/1/100 471/1/100 423/1/100
f 685/1/38 705/1/38 106/1/38 25/1/38
f 678/1/88 679/1/88 469/1/88 478/1/88
f 429/1/2 472/1/2 468/1/2 398/1/2
f 706/1/39 684/1/39 260/1/39 107/1/39
f 432/1/40 476/1/40 475/1/40 405/1/40
f 400/1/39 477/1/39 613/1/39 428/1/39
f 405/1/112 475/1/112 477/1/112 400/1/112
f 399/1/42 478/1/42 479/1/42 403/1/42
f 708/1/43 685/1/43 25/1/43 115/1/43
f 427/1/43 481/1/43 478/1/43 399/1/43
f 403/1/43 479/1/43 480/1/43 431/1/43
f 469/1/113 482/1/113 483/1/113 478/1/113
f 478/1/114 483/1/114 484/1/114 479/1/114
f 479/1/115 484/1/115 485/1/115 470/1/115
f 470/1/116 485/1/116 482/1/116 469/1/116
f 477/1/113 486/1/113 487/1/113 469/1/113
f 469/1/116 487/1/116 488/1/116 470/1/116
f 470/1/113 488/1/113 489/1/113 475/1/113
f 475/1/116 489/1/116 486/1/116 477/1/116
f 486/1/92 503/1/92 502/1/92 487/1/92
f 485/1/32 500/1/32 499/1/32 482/1/32
f 405/1/48 494/1/48 493/1/48 432/1/48
f 489/1/117 504/1/117 503/1/117 486/1/117
f 483/1/118 498/1/118 501/1/118 484/1/118
f 428/1/51 492/1/51 495/1/51 400/1/51
f 487/1/31 502/1/31 505/1/31 488/1/31
f 484/1/119 501/1/119 500/1/119 485/1/119
f 400/1/120 495/1/120 494/1/120 405/1/120
f 488/1/121 505/1/121 504/1/121 489/1/121
f 403/1/122 497/1/122 496/1/122 399/1/122
f 707/1/48 711/1/48 130/1/48 112/1/48
f 507/1/31 520/1/31 521/1/31 506/1/31
f 518/1/123 521/1/123 520/1/123 519/1/123
f 509/1/32 518/1/32 519/1/32 508/1/32
f 677/1/88 679/1/88 471/1/88 424/1/88
f 510/1/32 514/1/32 515/1/32 511/1/32
f 514/1/124 517/1/124 516/1/124 515/1/124
f 512/1/31 516/1/31 517/1/31 513/1/31
f 513/1/125 517/1/125 514/1/125 510/1/125
f 511/1/126 515/1/126 516/1/126 512/1/126
f 506/1/125 521/1/125 518/1/125 509/1/125
f 508/1/126 519/1/126 520/1/126 507/1/126
f 676/1/127 457/1/127 459/1/127 683/1/127
f 565/1/128 569/1/128 567/1/128 563/1/128
f 563/1/129 567/1/129 568/1/67 614/1/67
f 562/1/130 461/1/131 453/1/132 566/1/132
f 714/1/67 694/1/67 214/1/67 208/1/67
f 566/1/133 453/1/133 569/1/133 565/1/133
f 715/1/84 692/1/84 461/1/131 562/1/130
f 452/5/134 568/5/135 567/5/136 451/5/136
f 680/5/137 569/5/138 454/5/138
f 454/5/138 569/5/138 570/5/139 456/5/139
f 717/5/31 695/5/31 86/5/31 215/5/31
f 456/5/140 572/5/140 574/5/141 454/5/141
f 451/5/2 573/5/2 571/5/2 452/5/2
f 721/1/8 714/1/8 208/1/8 263/1/8
f 720/1/78 722/1/78 264/1/78 17/1/78
f 686/1/79 723/1/79 617/1/79 464/1/79 733/1/79
f 723/1/2 724/1/2 616/1/2 617/1/2
f 398/1/142 442/1/142 445/1/142 444/1/142 443/1/142 393/1/142 617/1/142 616/1/142 429/1/142
f 618/1/8 457/1/8 478/1/8 481/1/8
f 725/1/8 693/1/8 15/1/8 271/1/8
f 451/5/136 567/5/136 569/5/138 680/5/137
f 458/1/143 676/1/143 683/1/143 465/1/143
f 477/1/88 469/1/88 679/1/88 677/1/88
f 423/1/88 471/1/88 679/1/88 678/1/88
f 454/5/110 574/5/110 682/5/110 680/5/110
f 458/1/88 423/1/88 678/1/88 676/1/88
f 424/1/88 565/1/88 677/1/88
f 94/1/32 691/1/32 727/1/32 333/1/32
f 618/1/8 481/1/8 729/1/8
f 269/1/2 268/1/2 724/1/2 723/1/2
f 91/1/79 269/1/79 723/1/79 686/1/79
f 17/1/8 260/1/8 684/1/8 720/1/8
f 215/5/144 219/5/144 719/5/145 717/5/145
f 73/5/31 214/5/31 694/5/31 716/5/31
f 205/1/84 84/1/84 692/1/84 715/1/84
f 333/1/32 727/1/32 689/1/32 9/1/32
f 118/1/43 15/1/43 693/1/43 709/1/43
f 112/1/40 26/1/40 690/1/40 707/1/40
f 115/1/6 128/1/6 712/1/6 708/1/6
f 18/1/2 105/1/2 704/1/2 687/1/2
f 426/1/2 466/1/2 702/1/2 700/1/2
f 43/1/8 96/1/8 703/1/8 701/1/8
f 7/1/32 91/1/32 686/1/32 700/1/32
f 425/1/8 462/1/8 699/1/8 697/1/8
f 75/1/2 89/1/2 698/1/2 696/1/2
f 10/1/146 86/1/146 695/1/146 697/1/146
f 20/1/2 205/1/2 715/1/2 688/1/2
f 268/1/2 18/1/2 687/1/2 724/1/2
f 105/1/2 20/1/2 688/1/2 704/1/2
f 107/1/51 129/1/51 710/1/51 706/1/51
f 459/1/108 618/1/107 729/1/147 728/1/148
f 731/1/32 465/1/32 730/1/32
f 734/1/32 683/1/32 459/1/32 728/1/32
f 730/1/32 465/1/32 683/1/32 734/1/32
f 733/1/32 464/1/32 732/1/32
f 732/1/32 464/1/32 465/1/32 731/1/32
usemtl tires.001
f 376/6/31 206/6/31 265/6/31 377/6/31
f 170/7/32 180/7/32 179/7/32 169/7/32
f 167/7/32 177/7/32 176/7/32 166/7/32
f 163/7/32 173/7/32 174/7/32 164/7/32
f 171/7/32 181/7/32 180/7/32 170/7/32
f 168/7/32 178/7/32 177/7/32 167/7/32
f 165/7/32 175/7/32 173/7/32 163/7/32
f 172/7/32 182/7/32 181/7/32 171/7/32
f 169/7/32 179/7/32 178/7/32 168/7/32
f 166/7/32 176/7/32 175/7/32 165/7/32
f 164/7/32 174/7/32 182/7/32 172/7/32
f 194/7/32 193/7/32 195/7/32 196/7/32 197/7/32 198/7/32 199/7/32 200/7/32 201/7/32 202/7/32
f 179/7/149 180/7/149 200/7/149 199/7/149
f 182/7/150 174/7/150 194/7/150 202/7/150
f 170/7/151 169/7/151 189/7/151 190/7/151
f 171/7/13 170/7/13 190/7/13 191/7/13
f 163/7/152 164/7/152 184/7/152 183/7/152
f 172/7/153 171/7/153 191/7/153 192/7/153
f 165/7/149 163/7/149 183/7/149 185/7/149
f 178/7/152 179/7/152 199/7/152 198/7/152
f 164/7/154 172/7/154 192/7/154 184/7/154
f 166/7/23 165/7/23 185/7/23 186/7/23
f 181/7/155 182/7/155 202/7/155 201/7/155
f 180/7/23 181/7/23 201/7/23 200/7/23
f 167/7/156 166/7/156 186/7/156 187/7/156
f 173/7/157 175/7/157 195/7/157 193/7/157
f 177/7/154 178/7/154 198/7/154 197/7/154
f 168/7/150 167/7/150 187/7/150 188/7/150
f 174/7/158 173/7/158 193/7/158 194/7/158
f 176/7/153 177/7/153 197/7/153 196/7/153
f 169/7/159 168/7/159 188/7/159 189/7/159
f 175/7/13 176/7/13 196/7/13 195/7/13
f 337/8/160 220/8/160 216/8/161 335/8/161
f 381/8/31 373/8/31 218/8/31 336/8/31
f 374/8/31 381/8/31 336/8/31 219/8/31
f 221/8/160 337/8/160 335/8/161 217/8/161
f 217/8/161 335/8/161 381/8/31 374/8/31
f 335/8/161 216/8/161 373/8/31 381/8/31
f 263/6/31 376/6/31 377/6/31 264/6/31
f 721/6/31 722/6/31 615/6/31 564/6/31
f 529/7/32 528/7/32 538/7/32 539/7/32
f 526/7/32 525/7/32 535/7/32 536/7/32
f 522/7/32 523/7/32 533/7/32 532/7/32
f 530/7/32 529/7/32 539/7/32 540/7/32
f 527/7/32 526/7/32 536/7/32 537/7/32
f 524/7/32 522/7/32 532/7/32 534/7/32
f 531/7/32 530/7/32 540/7/32 541/7/32
f 528/7/32 527/7/32 537/7/32 538/7/32
f 525/7/32 524/7/32 534/7/32 535/7/32
f 523/7/32 531/7/32 541/7/32 533/7/32
f 553/7/32 561/7/32 560/7/32 559/7/32 558/7/32 557/7/32 556/7/32 555/7/32 554/7/32 552/7/32
f 538/7/162 558/7/162 559/7/162 539/7/162
f 541/7/159 561/7/159 553/7/159 533/7/159
f 529/7/155 549/7/155 548/7/155 528/7/155
f 530/7/23 550/7/23 549/7/23 529/7/23
f 522/7/154 542/7/154 543/7/154 523/7/154
f 531/7/149 551/7/149 550/7/149 530/7/149
f 524/7/162 544/7/162 542/7/162 522/7/162
f 537/7/154 557/7/154 558/7/154 538/7/154
f 523/7/152 543/7/152 551/7/152 531/7/152
f 525/7/13 545/7/13 544/7/13 524/7/13
f 540/7/157 560/7/157 561/7/157 541/7/157
f 539/7/13 559/7/13 560/7/13 540/7/13
f 526/7/151 546/7/151 545/7/151 525/7/151
f 532/7/155 552/7/155 554/7/155 534/7/155
f 536/7/152 556/7/152 557/7/152 537/7/152
f 527/7/159 547/7/159 546/7/159 526/7/159
f 533/7/150 553/7/150 552/7/150 532/7/150
f 535/7/163 555/7/163 556/7/163 536/7/163
f 528/7/150 548/7/150 547/7/150 527/7/150
f 534/7/23 554/7/23 555/7/23 535/7/23
f 682/8/164 681/8/165 571/8/165 573/8/164
f 726/8/31 336/8/31 218/8/31 718/8/31
f 719/8/31 219/8/31 336/8/31 726/8/31
f 574/8/164 572/8/165 681/8/165 682/8/164
f 572/8/165 719/8/31 726/8/31 681/8/165
f 681/8/165 726/8/31 718/8/31 571/8/165
f 263/6/31 264/6/31 722/6/31 721/6/31
f 805/15/221 756/15/221 755/15/221 806/15/221
f 806/15/222 755/15/222 757/15/222 807/15/222
f 807/15/32 757/15/32 758/15/32 808/15/32
f 808/15/223 758/15/223 759/15/223 809/15/223
f 809/15/224 759/15/224 760/15/224 810/15/224
f 810/15/225 760/15/225 761/15/225 811/15/225
f 811/15/226 761/15/226 762/15/226 812/15/226
f 812/15/31 762/15/31 763/15/31 813/15/31
f 813/15/227 763/15/227 764/15/227 814/15/227
f 814/15/228 764/15/228 756/15/228 805/15/228
f 736/15/23 738/15/23 755/15/23 756/15/23
f 738/15/23 740/15/23 757/15/23 755/15/23
f 740/15/23 742/15/23 758/15/23 757/15/23
f 742/15/23 744/15/23 759/15/23 758/15/23
f 744/15/23 746/15/23 760/15/23 759/15/23
f 746/15/23 748/15/23 761/15/23 760/15/23
f 748/15/23 750/15/23 762/15/23 761/15/23
f 750/15/23 752/15/23 763/15/23 762/15/23
f 752/15/23 754/15/23 764/15/23 763/15/23
f 754/15/23 736/15/23 756/15/23 764/15/23
f 737/15/13 735/15/13 805/15/13 806/15/13
f 739/15/13 737/15/13 806/15/13 807/15/13
f 741/15/13 739/15/13 807/15/13 808/15/13
f 743/15/13 741/15/13 808/15/13 809/15/13
f 745/15/13 743/15/13 809/15/13 810/15/13
f 747/15/13 745/15/13 810/15/13 811/15/13
f 749/15/13 747/15/13 811/15/13 812/15/13
f 751/15/13 749/15/13 812/15/13 813/15/13
f 753/15/13 751/15/13 813/15/13 814/15/13
f 735/15/13 753/15/13 814/15/13 805/15/13
f 885/15/221 886/15/221 835/15/221 836/15/221
f 886/15/222 887/15/222 837/15/222 835/15/222
f 887/15/32 888/15/32 838/15/32 837/15/32
f 888/15/223 889/15/223 839/15/223 838/15/223
f 889/15/224 890/15/224 840/15/224 839/15/224
f 890/15/241 891/15/241 841/15/241 840/15/241
f 891/15/226 892/15/226 842/15/226 841/15/226
f 892/15/31 893/15/31 843/15/31 842/15/31
f 893/15/227 894/15/227 844/15/227 843/15/227
f 894/15/228 885/15/228 836/15/228 844/15/228
f 816/15/13 836/15/13 835/15/13 818/15/13
f 818/15/13 835/15/13 837/15/13 820/15/13
f 820/15/13 837/15/13 838/15/13 822/15/13
f 822/15/13 838/15/13 839/15/13 824/15/13
f 824/15/13 839/15/13 840/15/13 826/15/13
f 826/15/13 840/15/13 841/15/13 828/15/13
f 828/15/13 841/15/13 842/15/13 830/15/13
f 830/15/13 842/15/13 843/15/13 832/15/13
f 832/15/13 843/15/13 844/15/13 834/15/13
f 834/15/13 844/15/13 836/15/13 816/15/13
f 817/15/23 886/15/23 885/15/23 815/15/23
f 819/15/23 887/15/23 886/15/23 817/15/23
f 821/15/23 888/15/23 887/15/23 819/15/23
f 823/15/23 889/15/23 888/15/23 821/15/23
f 825/15/23 890/15/23 889/15/23 823/15/23
f 827/15/23 891/15/23 890/15/23 825/15/23
f 829/15/23 892/15/23 891/15/23 827/15/23
f 831/15/23 893/15/23 892/15/23 829/15/23
f 833/15/23 894/15/23 893/15/23 831/15/23
f 815/15/23 885/15/23 894/15/23 833/15/23
f 965/15/228 966/15/228 915/15/228 916/15/228
f 966/15/227 967/15/227 917/15/227 915/15/227
f 967/15/31 968/15/31 918/15/31 917/15/31
f 968/15/226 969/15/226 919/15/226 918/15/226
f 969/15/225 970/15/225 920/15/225 919/15/225
f 970/15/224 971/15/224 921/15/224 920/15/224
f 971/15/223 972/15/223 922/15/223 921/15/223
f 972/15/32 973/15/32 923/15/32 922/15/32
f 973/15/222 974/15/222 924/15/222 923/15/222
f 974/15/221 965/15/221 916/15/221 924/15/221
f 896/15/23 916/15/23 915/15/23 898/15/23
f 898/15/23 915/15/23 917/15/23 900/15/23
f 900/15/23 917/15/23 918/15/23 902/15/23
f 902/15/23 918/15/23 919/15/23 904/15/23
f 904/15/23 919/15/23 920/15/23 906/15/23
f 906/15/23 920/15/23 921/15/23 908/15/23
f 908/15/23 921/15/23 922/15/23 910/15/23
f 910/15/23 922/15/23 923/15/23 912/15/23
f 912/15/23 923/15/23 924/15/23 914/15/23
f 914/15/23 924/15/23 916/15/23 896/15/23
f 897/15/13 966/15/13 965/15/13 895/15/13
f 899/15/13 967/15/13 966/15/13 897/15/13
f 901/15/13 968/15/13 967/15/13 899/15/13
f 903/15/13 969/15/13 968/15/13 901/15/13
f 905/15/13 970/15/13 969/15/13 903/15/13
f 907/15/13 971/15/13 970/15/13 905/15/13
f 909/15/13 972/15/13 971/15/13 907/15/13
f 911/15/13 973/15/13 972/15/13 909/15/13
f 913/15/13 974/15/13 973/15/13 911/15/13
f 895/15/13 965/15/13 974/15/13 913/15/13
f 1045/15/228 996/15/228 995/15/228 1046/15/228
f 1046/15/227 995/15/227 997/15/227 1047/15/227
f 1047/15/31 997/15/31 998/15/31 1048/15/31
f 1048/15/226 998/15/226 999/15/226 1049/15/226
f 1049/15/225 999/15/225 1000/15/225 1050/15/225
f 1050/15/224 1000/15/224 1001/15/224 1051/15/224
f 1051/15/223 1001/15/223 1002/15/223 1052/15/223
f 1052/15/32 1002/15/32 1003/15/32 1053/15/32
f 1053/15/222 1003/15/222 1004/15/222 1054/15/222
f 1054/15/221 1004/15/221 996/15/221 1045/15/221
f 976/15/13 978/15/13 995/15/13 996/15/13
f 978/15/13 980/15/13 997/15/13 995/15/13
f 980/15/13 982/15/13 998/15/13 997/15/13
f 982/15/13 984/15/13 999/15/13 998/15/13
f 984/15/13 986/15/13 1000/15/13 999/15/13
f 986/15/13 988/15/13 1001/15/13 1000/15/13
f 988/15/13 990/15/13 1002/15/13 1001/15/13
f 990/15/13 992/15/13 1003/15/13 1002/15/13
f 992/15/13 994/15/13 1004/15/13 1003/15/13
f 994/15/13 976/15/13 996/15/13 1004/15/13
f 977/15/23 975/15/23 1045/15/23 1046/15/23
f 979/15/23 977/15/23 1046/15/23 1047/15/23
f 981/15/23 979/15/23 1047/15/23 1048/15/23
f 983/15/23 981/15/23 1048/15/23 1049/15/23
f 985/15/23 983/15/23 1049/15/23 1050/15/23
f 987/15/23 985/15/23 1050/15/23 1051/15/23
f 989/15/23 987/15/23 1051/15/23 1052/15/23
f 991/15/23 989/15/23 1052/15/23 1053/15/23
f 993/15/23 991/15/23 1053/15/23 1054/15/23
f 975/15/23 993/15/23 1054/15/23 1045/15/23
usemtl body_dark_blue
f 361/9/51 49/9/51 133/9/51 365/9/51
f 352/9/166 46/9/166 213/9/166 350/9/166
f 46/9/167 78/9/167 85/9/167 213/9/167
f 355/9/32 47/9/32 387/9/32 388/9/32 341/9/32
f 47/9/32 83/9/32 386/9/32 387/9/32
f 363/1/6 52/1/6 132/1/6 367/1/6
f 362/9/40 53/9/40 110/9/40 345/9/40
f 364/9/43 48/9/43 117/9/43 348/9/43
f 382/9/32 344/9/32 383/9/32 389/9/32
f 371/10/31 74/10/70 211/10/72 349/10/31
f 372/10/83 79/10/76 217/10/76 374/10/83
f 375/9/8 108/9/8 261/9/8 339/9/8
f 108/9/8 206/9/8 262/9/8 261/9/8
f 206/9/23 108/9/23 265/9/23
f 346/9/32 382/9/32 389/9/32 385/9/32
f 108/9/78 375/9/78 377/9/78 265/9/78
f 206/9/8 376/9/8 369/9/8 262/9/8
f 79/10/75 372/10/31 350/10/31 213/10/75
f 262/9/63 369/9/67 349/9/67 211/9/63
f 53/9/48 362/9/48 366/9/48 134/9/48
f 52/9/43 363/9/43 340/9/43 116/9/43
f 49/9/39 361/9/39 339/9/39 261/9/39
f 116/9/38 340/9/38 360/9/38 104/9/38
f 83/9/32 356/9/32 346/9/32 385/9/32 386/9/32
f 78/9/31 351/9/31 347/9/31 85/9/31
f 74/10/2 371/10/2 373/10/2 216/10/2
f 48/9/24 364/9/24 368/9/24 131/9/24
f 104/9/8 360/9/8 345/9/8 110/9/8
f 117/9/8 384/9/8 380/9/8 348/9/8
f 384/9/87 383/9/86 344/9/3 380/9/5
f 706/9/51 710/9/51 492/9/51 428/9/51
f 697/9/168 695/9/168 570/9/168 425/9/168
f 425/9/169 570/9/169 461/9/169 455/9/169
f 700/9/32 686/9/32 733/9/32 732/9/32 426/9/32
f 426/9/32 732/9/32 731/9/32 460/9/32
f 708/1/6 712/1/6 491/1/6 431/1/6
f 707/9/40 690/9/40 476/9/40 432/9/40
f 709/9/43 693/9/43 481/9/43 427/9/43
f 727/9/32 734/9/32 728/9/32 689/9/32
f 716/10/31 694/10/31 568/10/135 452/10/134
f 717/10/145 719/10/145 572/10/140 456/10/140
f 720/9/8 684/9/8 613/9/8 474/9/8
f 474/9/8 613/9/8 614/9/8 564/9/8
f 564/9/13 615/9/13 474/9/13
f 691/9/32 730/9/32 734/9/32 727/9/32
f 474/9/78 615/9/78 722/9/78 720/9/78
f 564/9/8 614/9/8 714/9/8 721/9/8
f 456/10/139 570/10/139 695/10/31 717/10/31
f 614/9/67 568/9/67 694/9/67 714/9/67
f 432/9/48 493/9/48 711/9/48 707/9/48
f 431/9/43 480/9/43 685/9/43 708/9/43
f 428/9/39 613/9/39 684/9/39 706/9/39
f 480/9/38 473/9/38 705/9/38 685/9/38
f 460/9/32 731/9/32 730/9/32 691/9/32 701/9/32
f 455/9/31 461/9/31 692/9/31 696/9/31
f 452/10/2 571/10/2 718/10/2 716/10/2
f 427/9/24 490/9/24 713/9/24 709/9/24
f 473/9/8 476/9/8 690/9/8 705/9/8
f 481/9/8 693/9/8 725/9/8 729/9/8
f 729/9/147 725/9/90 689/9/89 728/9/148
usemtl headlights.001
f 230/11/170 223/11/170 225/11/170
f 223/11/171 222/11/171 224/11/171 225/11/171
f 225/11/172 224/11/172 226/11/172 227/11/172
f 230/11/173 225/11/173 227/11/173
f 227/11/174 226/11/174 228/11/174 229/11/174
f 230/11/175 227/11/175 229/11/175
f 229/11/176 228/11/176 231/11/176 232/11/176
f 230/11/177 229/11/177 232/11/177
f 232/11/178 231/11/178 233/11/178 234/11/178
f 230/11/179 232/11/179 234/11/179
f 234/11/180 233/11/180 222/11/180 223/11/180
f 230/11/181 234/11/181 223/11/181
f 233/11/182 239/11/182 240/11/182 222/11/182
f 231/11/13 238/11/13 239/11/13 233/11/13
f 228/11/183 237/11/183 238/11/183 231/11/183
f 226/11/184 236/11/184 237/11/184 228/11/184
f 224/11/23 235/11/23 236/11/23 226/11/23
f 222/11/185 240/11/185 235/11/185 224/11/185
f 249/11/170 242/11/170 244/11/170
f 242/11/171 241/11/171 243/11/171 244/11/171
f 244/11/172 243/11/172 245/11/172 246/11/172
f 249/11/173 244/11/173 246/11/173
f 246/11/174 245/11/174 247/11/174 248/11/174
f 249/11/175 246/11/175 248/11/175
f 248/11/176 247/11/176 250/11/176 251/11/176
f 249/11/177 248/11/177 251/11/177
f 251/11/178 250/11/178 252/11/178 253/11/178
f 249/11/179 251/11/179 253/11/179
f 253/11/180 252/11/180 241/11/180 242/11/180
f 249/11/181 253/11/181 242/11/181
f 252/11/186 258/11/186 259/11/186 241/11/186
f 250/11/13 257/11/13 258/11/13 252/11/13
f 247/11/183 256/11/183 257/11/183 250/11/183
f 245/11/187 255/11/187 256/11/187 247/11/187
f 243/11/23 254/11/23 255/11/23 245/11/23
f 241/11/185 259/11/185 254/11/185 243/11/185
f 583/11/188 578/11/188 576/11/188
f 576/11/180 578/11/180 577/11/180 575/11/180
f 578/11/178 580/11/178 579/11/178 577/11/178
f 583/11/179 580/11/179 578/11/179
f 580/11/176 582/11/176 581/11/176 579/11/176
f 583/11/177 582/11/177 580/11/177
f 582/11/174 585/11/174 584/11/174 581/11/174
f 583/11/175 585/11/175 582/11/175
f 585/11/172 587/11/172 586/11/172 584/11/172
f 583/11/173 587/11/173 585/11/173
f 587/11/171 576/11/171 575/11/171 586/11/171
f 583/11/170 576/11/170 587/11/170
f 586/11/185 575/11/185 593/11/185 592/11/185
f 584/11/23 586/11/23 592/11/23 591/11/23
f 581/11/184 584/11/184 591/11/184 590/11/184
f 579/11/183 581/11/183 590/11/183 589/11/183
f 577/11/13 579/11/13 589/11/13 588/11/13
f 575/11/182 577/11/182 588/11/182 593/11/182
f 602/11/181 597/11/181 595/11/181
f 595/11/180 597/11/180 596/11/180 594/11/180
f 597/11/178 599/11/178 598/11/178 596/11/178
f 602/11/179 599/11/179 597/11/179
f 599/11/176 601/11/176 600/11/176 598/11/176
f 602/11/177 601/11/177 599/11/177
f 601/11/174 604/11/174 603/11/174 600/11/174
f 602/11/175 604/11/175 601/11/175
f 604/11/172 606/11/172 605/11/172 603/11/172
f 602/11/173 606/11/173 604/11/173
f 606/11/171 595/11/171 594/11/171 605/11/171
f 602/11/170 595/11/170 606/11/170
f 605/11/185 594/11/185 612/11/185 611/11/185
f 603/11/23 605/11/23 611/11/23 610/11/23
f 600/11/184 603/11/184 610/11/184 609/11/184
f 598/11/183 600/11/183 609/11/183 608/11/183
f 596/11/13 598/11/13 608/11/13 607/11/13
f 594/11/182 596/11/182 607/11/182 612/11/182
usemtl rear_lights.001
f 280/12/189 273/12/189 275/12/189
f 273/12/190 272/12/190 274/12/190 275/12/190
f 275/12/191 274/12/191 276/12/191 277/12/191
f 280/12/192 275/12/192 277/12/192
f 277/12/193 276/12/193 278/12/193 279/12/193
f 280/12/194 277/12/194 279/12/194
f 279/12/195 278/12/195 281/12/195 282/12/195
f 280/12/196 279/12/196 282/12/196
f 282/12/197 281/12/197 283/12/197 284/12/197
f 280/12/198 282/12/198 284/12/198
f 284/12/199 283/12/199 272/12/199 273/12/199
f 280/12/200 284/12/200 273/12/200
f 283/12/185 289/12/185 290/12/185 272/12/185
f 281/12/23 288/12/23 289/12/23 283/12/23
f 278/12/184 287/12/184 288/12/184 281/12/184
f 276/12/183 286/12/183 287/12/183 278/12/183
f 274/12/13 285/12/13 286/12/13 276/12/13
f 272/12/182 290/12/182 285/12/182 274/12/182
f 299/12/189 292/12/189 294/12/189
f 292/12/190 291/12/190 293/12/190 294/12/190
f 294/12/191 293/12/191 295/12/191 296/12/191
f 299/12/192 294/12/192 296/12/192
f 296/12/193 295/12/193 297/12/193 298/12/193
f 299/12/194 296/12/194 298/12/194
f 298/12/195 297/12/195 300/12/195 301/12/195
f 299/12/196 298/12/196 301/12/196
f 301/12/197 300/12/197 302/12/197 303/12/197
f 299/12/198 301/12/198 303/12/198
f 303/12/199 302/12/199 291/12/199 292/12/199
f 299/12/200 303/12/200 292/12/200
f 302/12/201 308/12/201 309/12/201 291/12/201
f 300/12/23 307/12/23 308/12/23 302/12/23
f 297/12/184 306/12/184 307/12/184 300/12/184
f 295/12/183 305/12/183 306/12/183 297/12/183
f 293/12/13 304/12/13 305/12/13 295/12/13
f 291/12/182 309/12/182 304/12/182 293/12/182
f 318/12/189 311/12/189 313/12/189
f 311/12/190 310/12/190 312/12/190 313/12/190
f 313/12/191 312/12/191 314/12/191 315/12/191
f 318/12/192 313/12/192 315/12/192
f 315/12/193 314/12/193 316/12/193 317/12/193
f 318/12/194 315/12/194 317/12/194
f 317/12/195 316/12/195 319/12/195 320/12/195
f 318/12/196 317/12/196 320/12/196
f 320/12/197 319/12/197 321/12/197 322/12/197
f 318/12/198 320/12/198 322/12/198
f 322/12/199 321/12/199 310/12/199 311/12/199
f 318/12/200 322/12/200 311/12/200
f 321/12/185 327/12/185 328/12/185 310/12/185
f 319/12/23 326/12/23 327/12/23 321/12/23
f 316/12/187 325/12/187 326/12/187 319/12/187
f 314/12/183 324/12/183 325/12/183 316/12/183
f 312/12/13 323/12/13 324/12/13 314/12/13
f 310/12/182 328/12/182 323/12/182 312/12/182
f 627/12/202 622/12/202 620/12/202
f 620/12/199 622/12/199 621/12/199 619/12/199
f 622/12/197 624/12/197 623/12/197 621/12/197
f 627/12/198 624/12/198 622/12/198
f 624/12/195 626/12/195 625/12/195 623/12/195
f 627/12/203 626/12/203 624/12/203
f 626/12/193 629/12/193 628/12/193 625/12/193
f 627/12/194 629/12/194 626/12/194
f 629/12/191 631/12/191 630/12/191 628/12/191
f 627/12/192 631/12/192 629/12/192
f 631/12/190 620/12/190 619/12/190 630/12/190
f 627/12/189 620/12/189 631/12/189
f 630/12/182 619/12/182 637/12/182 636/12/182
f 628/12/13 630/12/13 636/12/13 635/12/13
f 625/12/183 628/12/183 635/12/183 634/12/183
f 623/12/184 625/12/184 634/12/184 633/12/184
f 621/12/23 623/12/23 633/12/23 632/12/23
f 619/12/204 621/12/204 632/12/204 637/12/204
f 646/12/202 641/12/202 639/12/202
f 639/12/199 641/12/199 640/12/199 638/12/199
f 641/12/197 643/12/197 642/12/197 640/12/197
f 646/12/198 643/12/198 641/12/198
f 643/12/195 645/12/195 644/12/195 642/12/195
f 646/12/203 645/12/203 643/12/203
f 645/12/193 648/12/193 647/12/193 644/12/193
f 646/12/194 648/12/194 645/12/194
f 648/12/205 650/12/205 649/12/205 647/12/205
f 646/12/192 650/12/192 648/12/192
f 650/12/190 639/12/190 638/12/190 649/12/190
f 646/12/189 639/12/189 650/12/189
f 649/12/182 638/12/182 656/12/182 655/12/182
f 647/12/13 649/12/13 655/12/13 654/12/13
f 644/12/183 647/12/183 654/12/183 653/12/183
f 642/12/184 644/12/184 653/12/184 652/12/184
f 640/12/23 642/12/23 652/12/23 651/12/23
f 638/12/185 640/12/185 651/12/185 656/12/185
f 665/12/202 660/12/202 658/12/202
f 658/12/199 660/12/199 659/12/199 657/12/199
f 660/12/197 662/12/197 661/12/197 659/12/197
f 665/12/198 662/12/198 660/12/198
f 662/12/195 664/12/195 663/12/195 661/12/195
f 665/12/196 664/12/196 662/12/196
f 664/12/193 667/12/193 666/12/193 663/12/193
f 665/12/194 667/12/194 664/12/194
f 667/12/191 669/12/191 668/12/191 666/12/191
f 665/12/192 669/12/192 667/12/192
f 669/12/190 658/12/190 657/12/190 668/12/190
f 665/12/189 658/12/189 669/12/189
f 668/12/182 657/12/182 675/12/182 674/12/182
f 666/12/13 668/12/13 674/12/13 673/12/13
f 663/12/183 666/12/183 673/12/183 672/12/183
f 661/12/184 663/12/184 672/12/184 671/12/184
f 659/12/23 661/12/23 671/12/23 670/12/23
f 657/12/185 659/12/185 670/12/185 675/12/185
usemtl windows.001
f 36/13/206 38/13/206 34/13/206 33/13/206
f 27/13/207 28/13/207 38/13/207 36/13/207
f 140/14/208 139/14/208 142/14/208 141/14/208
f 368/14/209 127/14/209 128/14/209 367/14/209
f 133/14/210 136/14/210 135/14/210 134/14/210
f 365/14/210 133/14/210 134/14/210 366/14/210
f 137/14/211 131/14/212 132/14/212 138/14/211
f 144/14/213 143/14/213 146/14/213 145/14/213
f 129/14/210 365/14/210 366/14/210 130/14/210
f 131/14/212 368/14/209 367/14/209 132/14/212
f 416/13/214 413/13/214 414/13/214 418/13/214
f 407/13/215 416/13/215 418/13/215 408/13/215
f 499/14/216 500/14/216 501/14/216 498/14/216
f 713/14/209 712/14/209 128/14/209 127/14/209
f 492/14/210 493/14/210 494/14/210 495/14/210
f 710/14/210 711/14/210 493/14/210 492/14/210
f 496/14/217 497/14/217 491/14/218 490/14/219
f 503/14/220 504/14/220 505/14/220 502/14/220
f 129/14/210 130/14/210 711/14/210 710/14/210
f 490/14/219 491/14/218 712/14/209 713/14/209
usemtl body_white.001
f 354/1/31 87/1/31 89/1/31 353/1/31
f 357/1/32 358/1/32 98/1/32 97/1/32
f 95/1/32 96/1/32 358/1/32 357/1/32
f 88/1/31 354/1/31 353/1/31 90/1/31
f 699/1/31 698/1/31 89/1/31 87/1/31
f 702/1/32 466/1/32 467/1/32 703/1/32
f 95/1/32 702/1/32 703/1/32 96/1/32
f 462/1/31 463/1/31 698/1/31 699/1/31
usemtl wheels.001
f 750/16/229 748/16/229 747/16/229 749/16/229
f 765/17/221 766/17/221 796/17/221 795/17/221
f 738/16/230 736/16/230 735/16/230 737/16/230
f 746/16/228 744/16/228 779/16/231 780/16/231
f 754/16/232 752/16/232 751/16/232 753/16/232
f 748/16/233 746/16/233 745/16/233 747/16/233
f 769/17/226 779/17/226 787/17/226 799/17/226
f 772/17/226 771/17/226 801/17/226 802/17/226
f 778/17/234 768/17/234 798/17/234 788/17/234
f 795/17/23 796/17/23 804/17/23 803/17/23 802/17/23 801/17/23 800/17/23 799/17/23 798/17/23 797/17/23
f 795/17/23 797/17/23 785/17/23 786/17/23
f 798/17/23 799/17/23 787/17/23 788/17/23
f 800/17/23 801/17/23 789/17/23 790/17/23
f 802/17/23 803/17/23 791/17/23 792/17/23
f 804/17/23 796/17/23 793/17/23 794/17/23
f 780/17/32 770/17/32 800/17/32 790/17/32
f 774/17/227 773/17/227 803/17/227 804/17/227
f 771/17/227 781/17/227 789/17/227 801/17/227
f 752/16/235 750/16/235 749/16/235 751/16/235
f 768/17/32 767/17/32 797/17/32 798/17/32
f 782/17/224 772/17/224 802/17/224 792/17/224
f 766/17/32 776/17/32 793/17/32 796/17/32
f 773/17/221 783/17/221 791/17/221 803/17/221
f 775/17/227 765/17/227 795/17/227 786/17/227
f 770/17/224 769/17/224 799/17/224 800/17/224
f 784/17/226 774/17/226 804/17/226 794/17/226
f 767/17/224 777/17/224 785/17/224 797/17/224
f 780/16/231 779/16/231 743/16/236 745/16/236
f 779/16/237 778/16/237 741/16/237 743/16/237
f 779/16/227 744/16/227 742/16/227 788/16/227 787/16/227
f 788/16/238 742/16/238 740/16/238 739/16/238 741/16/238 778/16/238
f 740/16/239 738/16/239 737/16/239 739/16/239
f 736/16/240 754/16/240 753/16/240 735/16/240
f 775/17/13 777/17/13 767/17/13 765/17/13
f 779/17/13 769/17/13 768/17/13 778/17/13
f 780/17/13 781/17/13 771/17/13 770/17/13
f 782/17/13 783/17/13 773/17/13 772/17/13
f 776/17/13 766/17/13 774/17/13 784/17/13
f 766/17/13 765/17/13 767/17/13 768/17/13 769/17/13 770/17/13 771/17/13 772/17/13 773/17/13 774/17/13
f 830/16/242 829/16/242 827/16/242 828/16/242
f 845/17/221 875/17/221 876/17/221 846/17/221
f 818/16/243 817/16/243 815/16/243 816/16/243
f 826/16/228 860/16/244 859/16/244 824/16/228
f 834/16/245 833/16/245 831/16/245 832/16/245
f 828/16/246 827/16/246 825/16/246 826/16/246
f 849/17/226 879/17/226 867/17/226 859/17/226
f 852/17/226 882/17/226 881/17/226 851/17/226
f 858/17/221 868/17/221 878/17/221 848/17/221
f 875/17/13 877/17/13 878/17/13 879/17/13 880/17/13 881/17/13 882/17/13 883/17/13 884/17/13 876/17/13
f 875/17/13 866/17/13 865/17/13 877/17/13
f 878/17/13 868/17/13 867/17/13 879/17/13
f 880/17/13 870/17/13 869/17/13 881/17/13
f 882/17/13 872/17/13 871/17/13 883/17/13
f 884/17/13 874/17/13 873/17/13 876/17/13
f 860/17/32 870/17/32 880/17/32 850/17/32
f 854/17/227 884/17/227 883/17/227 853/17/227
f 851/17/227 881/17/227 869/17/227 861/17/227
f 832/16/247 831/16/247 829/16/247 830/16/247
f 848/17/32 878/17/32 877/17/32 847/17/32
f 862/17/224 872/17/224 882/17/224 852/17/224
f 846/17/32 876/17/32 873/17/32 856/17/32
f 853/17/221 883/17/221 871/17/221 863/17/221
f 855/17/227 866/17/227 875/17/227 845/17/227
f 850/17/224 880/17/224 879/17/224 849/17/224
f 864/17/226 874/17/226 884/17/226 854/17/226
f 847/17/248 877/17/248 865/17/248 857/17/248
f 860/16/244 825/16/249 823/16/249 859/16/244
f 859/16/250 823/16/250 821/16/250 858/16/250
f 859/16/227 867/16/227 868/16/227 822/16/227 824/16/227
f 868/16/251 858/16/251 821/16/251 819/16/251 820/16/251 822/16/251
f 820/16/252 819/16/252 817/16/252 818/16/252
f 816/16/253 815/16/253 833/16/253 834/16/253
f 855/17/23 845/17/23 847/17/23 857/17/23
f 859/17/23 858/17/23 848/17/23 849/17/23
f 860/17/23 850/17/23 851/17/23 861/17/23
f 862/17/23 852/17/23 853/17/23 863/17/23
f 856/17/23 864/17/23 854/17/23 846/17/23
f 846/17/23 854/17/23 853/17/23 852/17/23 851/17/23 850/17/23 849/17/23 848/17/23 847/17/23 845/17/23
f 910/16/254 909/16/254 907/16/254 908/16/254
f 925/17/228 955/17/228 956/17/228 926/17/228
f 898/16/240 897/16/240 895/16/240 896/16/240
f 906/16/221 940/16/255 939/16/255 904/16/221
f 914/16/239 913/16/239 911/16/239 912/16/239
f 908/16/256 907/16/256 905/16/256 906/16/256
f 929/17/223 959/17/223 947/17/223 939/17/223
f 932/17/223 962/17/223 961/17/223 931/17/223
f 938/17/228 948/17/228 958/17/228 928/17/228
f 955/17/23 957/17/23 958/17/23 959/17/23 960/17/23 961/17/23 962/17/23 963/17/23 964/17/23 956/17/23
f 955/17/23 946/17/23 945/17/23 957/17/23
f 958/17/23 948/17/23 947/17/23 959/17/23
f 960/17/23 950/17/23 949/17/23 961/17/23
f 962/17/23 952/17/23 951/17/23 963/17/23
f 964/17/23 954/17/23 953/17/23 956/17/23
f 940/17/31 950/17/31 960/17/31 930/17/31
f 934/17/222 964/17/222 963/17/222 933/17/222
f 931/17/222 961/17/222 949/17/222 941/17/222
f 912/16/257 911/16/257 909/16/257 910/16/257
f 928/17/31 958/17/31 957/17/31 927/17/31
f 942/17/225 952/17/225 962/17/225 932/17/225
f 926/17/31 956/17/31 953/17/31 936/17/31
f 933/17/228 963/17/228 951/17/228 943/17/228
f 935/17/222 946/17/222 955/17/222 925/17/222
f 930/17/225 960/17/225 959/17/225 929/17/225
f 944/17/223 954/17/223 964/17/223 934/17/223
f 927/17/225 957/17/225 945/17/225 937/17/225
f 940/16/255 905/16/258 903/16/258 939/16/255
f 939/16/259 903/16/259 901/16/259 938/16/259
f 939/16/222 947/16/222 948/16/222 902/16/222 904/16/222
f 948/16/260 938/16/260 901/16/260 899/16/260 900/16/260 902/16/260
f 900/16/232 899/16/232 897/16/232 898/16/232
f 896/16/230 895/16/230 913/16/230 914/16/230
f 940/17/13 930/17/13 931/17/13 941/17/13
f 942/17/13 932/17/13 933/17/13 943/17/13
f 936/17/13 944/17/13 934/17/13 926/17/13
f 935/17/13 925/17/13 927/17/13 937/17/13
f 939/17/13 938/17/13 928/17/13 929/17/13
f 926/17/13 934/17/13 933/17/13 932/17/13 931/17/13 930/17/13 929/17/13 928/17/13 927/17/13 925/17/13
f 990/16/261 988/16/261 987/16/261 989/16/261
f 1005/17/228 1006/17/228 1036/17/228 1035/17/228
f 978/16/253 976/16/253 975/16/253 977/16/253
f 986/16/234 984/16/234 1019/16/262 1020/16/262
f 994/16/252 992/16/252 991/16/252 993/16/252
f 988/16/263 986/16/263 985/16/263 987/16/263
f 1009/17/223 1019/17/223 1027/17/223 1039/17/223
f 1012/17/223 1011/17/223 1041/17/223 1042/17/223
f 1018/17/228 1008/17/228 1038/17/228 1028/17/228
f 1035/17/13 1036/17/13 1044/17/13 1043/17/13 1042/17/13 1041/17/13 1040/17/13 1039/17/13 1038/17/13 1037/17/13
f 1035/17/13 1037/17/13 1025/17/13 1026/17/13
f 1038/17/13 1039/17/13 1027/17/13 1028/17/13
f 1040/17/13 1041/17/13 1029/17/13 1030/17/13
f 1042/17/13 1043/17/13 1031/17/13 1032/17/13
f 1044/17/13 1036/17/13 1033/17/13 1034/17/13
f 1020/17/31 1010/17/31 1040/17/31 1030/17/31
f 1014/17/222 1013/17/222 1043/17/222 1044/17/222
f 1011/17/222 1021/17/222 1029/17/222 1041/17/222
f 992/16/264 990/16/264 989/16/264 991/16/264
f 1008/17/31 1007/17/31 1037/17/31 1038/17/31
f 1022/17/225 1012/17/225 1042/17/225 1032/17/225
f 1006/17/31 1016/17/31 1033/17/31 1036/17/31
f 1013/17/228 1023/17/228 1031/17/228 1043/17/228
f 1015/17/222 1005/17/222 1035/17/222 1026/17/222
f 1010/17/225 1009/17/225 1039/17/225 1040/17/225
f 1024/17/223 1014/17/223 1044/17/223 1034/17/223
f 1007/17/225 1017/17/225 1025/17/225 1037/17/225
f 1020/16/262 1019/16/262 983/16/265 985/16/265
f 1019/16/266 1018/16/266 981/16/266 983/16/266
f 1019/16/222 984/16/222 982/16/222 1028/16/222 1027/16/222
f 1028/16/267 982/16/267 980/16/267 979/16/267 981/16/267 1018/16/267
f 980/16/245 978/16/245 977/16/245 979/16/245
f 976/16/243 994/16/243 993/16/243 975/16/243
f 1020/17/23 1021/17/23 1011/17/23 1010/17/23
f 1022/17/23 1023/17/23 1013/17/23 1012/17/23
f 1016/17/23 1006/17/23 1014/17/23 1024/17/23
f 1015/17/23 1017/17/23 1007/17/23 1005/17/23
f 1019/17/23 1009/17/23 1008/17/23 1018/17/23
f 1006/17/23 1005/17/23 1007/17/23 1008/17/23 1009/17/23 1010/17/23 1011/17/23 1012/17/23 1013/17/23 1014/17/23
