# Blender 5.1.2
# www.blender.org
mtllib car2.mtl
o Police_Muscle
v -0.963550 0.534983 -0.398619
v 0.967876 0.536095 -0.399262
v -1.196226 0.480929 -0.346181
v -1.556079 0.226470 -0.666105
v -1.232406 0.339411 -0.398184
v 0.735200 0.482042 -0.346824
v -1.748283 0.314758 0.000378
v 0.699020 0.340523 -0.398826
v -1.748552 0.781356 -0.000448
v 1.694240 0.406307 -0.000926
v 0.682834 0.192689 -0.659888
v -0.676492 0.191906 -0.659435
v -1.208018 0.760146 -0.623213
v 0.667160 0.758228 -0.624630
v -1.216317 0.732494 -0.000538
v -0.694469 0.339721 -0.398363
v 0.804828 0.733657 -0.001211
v -0.676274 0.193073 0.000237
v -0.730777 0.481197 -0.346336
v 0.683053 0.193856 -0.000215
v -0.747530 1.002978 -0.503243
v 1.236957 0.340833 -0.399006
v 0.340016 1.126542 -0.503287
v 1.200649 0.482309 -0.346978
v -0.738857 1.032619 -0.001227
v 0.141145 1.153067 -0.001732
v 0.609227 0.855690 -0.827945
v 0.609294 0.740926 -0.827741
v 0.640659 0.855678 -0.845106
v 0.640725 0.740914 -0.844903
v 0.713709 0.856009 -0.681827
v 0.713775 0.741245 -0.681624
v 0.677897 0.855988 -0.681815
v 0.677963 0.741224 -0.681612
v 0.721184 0.741146 -0.739956
v 0.644530 0.855866 -0.740134
v 0.721118 0.855910 -0.740159
v 0.644596 0.741101 -0.739930
v 0.644652 0.681245 -0.675949
v 0.644671 0.681348 -0.617620
v 0.680483 0.681368 -0.617631
v 0.680463 0.681265 -0.675961
v -1.748341 0.416365 0.000198
v -0.676717 0.542609 -0.729059
v 0.682609 0.543392 -0.729511
v 1.694178 0.405978 -0.186756
v -1.748337 0.314467 -0.163907
v -1.207921 0.760664 -0.330427
v 0.667258 0.758747 -0.331046
v -0.676383 0.192489 -0.329599
v 0.682944 0.193272 -0.330051
v -0.747450 1.003401 -0.264342
v 0.340095 1.126964 -0.264921
v 0.699105 0.193161 -0.398566
v 1.236955 0.193008 -0.660072
v 0.699018 0.192698 -0.659893
v 1.237042 0.193470 -0.398745
v 1.200527 0.481662 -0.712836
v 0.967768 0.535517 -0.726104
v 0.698924 0.340006 -0.691376
v 0.735079 0.481395 -0.712681
v 1.236861 0.340321 -0.688675
v -0.694470 0.191895 -0.659429
v -1.232407 0.191586 -0.659250
v -1.232321 0.192048 -0.397923
v -0.694384 0.192358 -0.398103
v -0.963659 0.534400 -0.728020
v -1.232505 0.338882 -0.697361
v -1.196352 0.480256 -0.726800
v -0.694568 0.339192 -0.697540
v -0.730903 0.480524 -0.726955
v 1.814050 0.634558 -0.642686
v 1.814708 0.635693 -0.001372
v 1.814597 0.635109 -0.331208
v 1.694301 0.299590 -0.000738
v 1.693638 0.253241 -0.660330
v 1.814139 0.482741 -0.642418
v 1.694239 0.299262 -0.186567
v 1.814685 0.489745 -0.322357
v -1.556367 0.731131 -0.660097
v -1.556282 0.542103 -0.728766
v -1.748721 0.780455 -0.510194
v -1.748396 0.416074 -0.164086
v 1.694327 0.254408 -0.000658
v 1.694217 0.253824 -0.330494
v 1.814798 0.478890 -0.001095
v 1.709757 0.406316 -0.000932
v 1.709695 0.405987 -0.186761
v 1.709819 0.299600 -0.000743
v 1.709757 0.299271 -0.186572
v -1.748247 0.252426 0.000487
v -1.748399 0.251614 -0.458285
v -1.748606 0.581360 -0.509842
v -1.748437 0.582262 -0.000095
v -1.764842 0.314748 0.000383
v -1.764900 0.416356 0.000203
v -1.764896 0.314458 -0.163901
v -1.764955 0.416065 -0.164081
v -0.218379 0.192170 -0.659587
v -0.218690 0.731901 -0.660542
v -0.035165 1.152359 -0.344347
v -0.218604 0.542874 -0.729211
v -0.218270 0.192753 -0.329751
v -0.218801 1.152394 -0.264780
v -0.218160 0.193336 0.000084
v -0.218713 1.152860 -0.001612
v 0.667367 0.759330 -0.001210
v 0.804759 0.733290 -0.208960
v 0.141031 1.152461 -0.344406
v 0.141117 1.152919 -0.084990
v 0.682523 0.732420 -0.660842
v 0.340182 1.127429 -0.001753
v -1.216536 0.731327 -0.660210
v -0.739032 1.031689 -0.527563
v -0.747363 1.003866 -0.001173
v -0.738944 1.032154 -0.264395
v -1.216426 0.731910 -0.330374
v -1.207811 0.761247 -0.000591
v -0.248690 0.761166 -0.654076
v -0.898268 0.760792 -0.653860
v -0.716479 1.002420 -0.534026
v -0.248859 1.122630 -0.534395
v 0.630352 0.761672 -0.654368
v -0.188720 0.761201 -0.654096
v -0.188888 1.122664 -0.534414
v 0.307408 1.122950 -0.534580
v -1.179058 0.752741 -0.000586
v -0.718610 0.995360 -0.001168
v 0.641623 0.743955 -0.001174
v 0.314439 1.112054 -0.001717
v -1.179168 0.752158 -0.330422
v -0.718697 0.994895 -0.264336
v 0.641515 0.743372 -0.331011
v 0.314351 1.111589 -0.264885
v 0.314272 1.111167 -0.503252
v 0.641416 0.742853 -0.624594
v -1.175559 0.758597 -0.593943
v -0.718776 0.994472 -0.503237
v -0.876793 0.754348 -0.624585
v -0.248677 0.754710 -0.624794
v -0.248845 1.116174 -0.505112
v -0.716465 0.995964 -0.504745
v -0.188706 0.754745 -0.624814
v 0.630366 0.755217 -0.625086
v 0.307422 1.116494 -0.505298
v -0.188874 1.116208 -0.505133
v -0.040220 0.636319 -0.686000
v -0.040235 0.669803 -0.673880
v -0.140299 0.669745 -0.673847
v -0.140283 0.636261 -0.685967
v -0.739986 0.635916 -0.685768
v -0.740001 0.669400 -0.673648
v -0.639938 0.669458 -0.673681
v -0.639922 0.635974 -0.685801
v -0.739998 0.643771 -0.707469
v -0.740013 0.677255 -0.695348
v -0.639950 0.677312 -0.695381
v -0.639934 0.643828 -0.707502
v -0.140294 0.644117 -0.707668
v -0.140310 0.677600 -0.695548
v -0.040247 0.677658 -0.695581
v -0.040231 0.644174 -0.707701
v -1.787963 0.377418 -0.435042
v -1.787960 0.385520 -0.410256
v -1.787956 0.356294 -0.450332
v -1.787941 0.330218 -0.450286
v -1.787924 0.309149 -0.434922
v -1.787911 0.301135 -0.410107
v -1.787907 0.309237 -0.385321
v -1.787914 0.330360 -0.370031
v -1.787930 0.356436 -0.370078
v -1.787947 0.377506 -0.385442
v -1.787953 0.365478 -0.426335
v -1.787951 0.370742 -0.410230
v -1.787948 0.351753 -0.436270
v -1.787939 0.334809 -0.436240
v -1.787928 0.321120 -0.426257
v -1.787920 0.315913 -0.410133
v -1.787917 0.321176 -0.394029
v -1.787922 0.334902 -0.384094
v -1.787931 0.351845 -0.384124
v -1.787943 0.365535 -0.394107
v -1.567245 0.377545 -0.435115
v -1.567242 0.385647 -0.410330
v -1.567238 0.356422 -0.450406
v -1.567223 0.330346 -0.450360
v -1.567205 0.309276 -0.434995
v -1.567193 0.301262 -0.410180
v -1.567189 0.309364 -0.385395
v -1.567197 0.330487 -0.370105
v -1.567211 0.356564 -0.370151
v -1.567229 0.377633 -0.385516
v -1.777195 0.365484 -0.426339
v -1.777192 0.370748 -0.410234
v -1.777191 0.351759 -0.436273
v -1.777181 0.334816 -0.436244
v -1.777169 0.321126 -0.426260
v -1.777161 0.315919 -0.410137
v -1.777159 0.321183 -0.394032
v -1.777163 0.334908 -0.384098
v -1.777173 0.351851 -0.384127
v -1.777184 0.365541 -0.394111
v 1.506648 0.193746 -0.330326
v 1.506228 0.732895 -0.661116
v 1.506758 0.194330 -0.000489
v 1.384292 0.733624 -0.209153
v 1.506313 0.543867 -0.729786
v 1.506447 0.734061 -0.001444
v 1.506539 0.193163 -0.660161
v 1.814008 0.652884 -0.661077
v 1.814588 0.653467 -0.331241
v 1.814117 0.463978 -0.660742
v 1.814695 0.471392 -0.321942
v 1.814697 0.654051 -0.001405
v 1.814788 0.497252 -0.001127
v 1.769535 0.635084 -0.331160
v 1.769622 0.489720 -0.322311
v 1.769645 0.635667 -0.001357
v 1.769724 0.497226 -0.001113
v 1.768988 0.634534 -0.642608
v 1.769077 0.482717 -0.642339
v 1.781086 0.495567 -0.566634
v 1.814363 0.519773 -0.566688
v 1.781049 0.527131 -0.621529
v 1.814340 0.539280 -0.600615
v 1.781013 0.590454 -0.621641
v 1.814317 0.578416 -0.600684
v 1.781013 0.622212 -0.566858
v 1.814317 0.598044 -0.566826
v 1.827055 0.558916 -0.566761
v 1.781049 0.590647 -0.511963
v 1.814339 0.578536 -0.532899
v 1.781085 0.527325 -0.511851
v 1.814362 0.539401 -0.532830
v 1.760474 0.527119 -0.621522
v 1.760438 0.590441 -0.621634
v 1.760437 0.622200 -0.566851
v 1.760473 0.590635 -0.511956
v 1.760510 0.527313 -0.511844
v 1.760511 0.495555 -0.566627
v 1.781127 0.495789 -0.440697
v 1.814404 0.519995 -0.440751
v 1.781090 0.527353 -0.495592
v 1.814382 0.539503 -0.474677
v 1.781054 0.590676 -0.495704
v 1.814359 0.578639 -0.474746
v 1.781054 0.622434 -0.440920
v 1.814359 0.598266 -0.440889
v 1.827097 0.559138 -0.440824
v 1.781091 0.590870 -0.386026
v 1.814381 0.578759 -0.406962
v 1.781127 0.527547 -0.385914
v 1.814404 0.539623 -0.406893
v 1.760516 0.527342 -0.495585
v 1.760479 0.590665 -0.495696
v 1.760479 0.622423 -0.440914
v 1.760515 0.590858 -0.386019
v 1.760553 0.527536 -0.385907
v 1.760552 0.495777 -0.440690
v 0.682741 0.733588 -0.001170
v 0.682632 0.733003 -0.331006
v 1.506337 0.733478 -0.331280
v 1.384361 0.733992 -0.001403
v 1.384333 0.781373 -0.001487
v 1.384264 0.781005 -0.209237
v -1.212368 0.192098 -0.376498
v -1.480366 0.191871 -0.417339
v -1.212243 0.192764 0.000416
v -1.480228 0.192610 0.000505
v -1.559952 0.731466 -0.469363
v -1.568769 0.732291 -0.000421
v -1.758161 0.614010 -0.259820
v -1.791465 0.638178 -0.259852
v -1.758160 0.645768 -0.205038
v -1.791465 0.657805 -0.225994
v -1.758197 0.709091 -0.205149
v -1.791487 0.696941 -0.226063
v -1.758233 0.740655 -0.260044
v -1.791510 0.716449 -0.259990
v -1.804204 0.677306 -0.259917
v -1.758234 0.708897 -0.314827
v -1.791510 0.696821 -0.293848
v -1.758197 0.645574 -0.314715
v -1.791488 0.657686 -0.293779
v -1.737586 0.645780 -0.205044
v -1.737622 0.709102 -0.205156
v -1.737659 0.740667 -0.260051
v -1.737659 0.708909 -0.314834
v -1.737622 0.645586 -0.314722
v -1.737586 0.614022 -0.259827
v -1.758202 0.613787 -0.385758
v -1.791507 0.637955 -0.385789
v -1.758202 0.645546 -0.330975
v -1.791507 0.657583 -0.351932
v -1.758239 0.708868 -0.331087
v -1.791529 0.696718 -0.352001
v -1.758276 0.740432 -0.385981
v -1.791552 0.716226 -0.385928
v -1.804246 0.677083 -0.385854
v -1.758275 0.708674 -0.440764
v -1.791552 0.696599 -0.419785
v -1.758239 0.645351 -0.440652
v -1.791529 0.657463 -0.419716
v -1.737628 0.645557 -0.330981
v -1.737664 0.708880 -0.331093
v -1.737701 0.740444 -0.385989
v -1.737701 0.708686 -0.440771
v -1.737664 0.645363 -0.440659
v -1.737628 0.613799 -0.385765
v -1.758118 0.614232 -0.133883
v -1.791423 0.638401 -0.133914
v -1.758119 0.645991 -0.079100
v -1.791423 0.658028 -0.100057
v -1.758155 0.709313 -0.079212
v -1.791445 0.697164 -0.100126
v -1.758191 0.740878 -0.134107
v -1.791469 0.716671 -0.134053
v -1.804162 0.677529 -0.133979
v -1.758192 0.709120 -0.188890
v -1.791468 0.697044 -0.167910
v -1.758155 0.645797 -0.188778
v -1.791445 0.657908 -0.167841
v -1.737544 0.646003 -0.079107
v -1.737581 0.709325 -0.079219
v -1.737617 0.740889 -0.134114
v -1.737617 0.709131 -0.188896
v -1.737581 0.645809 -0.188784
v -1.737545 0.614245 -0.133890
v -1.556316 0.617715 -0.701298
v 0.682588 0.590649 -0.712344
v -0.811672 0.589789 -0.711847
v -0.218626 0.590131 -0.712044
v -1.748465 0.632035 -0.000183
v 1.814117 0.520696 -0.642485
v 1.769601 0.526061 -0.324524
v 1.769705 0.531836 -0.001173
v 1.769054 0.520671 -0.642406
v -1.748635 0.631134 -0.509930
v -0.218888 1.151929 -0.527948
v 0.324632 1.152241 -0.528129
v 0.324720 1.152707 -0.264961
v 0.324807 1.153172 -0.001793
v -0.035079 1.152818 -0.084931
v -0.035051 1.152965 -0.001674
v -0.012805 1.260123 -0.085128
v 0.118720 1.260199 -0.085171
v -0.012777 1.260270 -0.001870
v 0.118747 1.260347 -0.001914
v -0.012891 1.259665 -0.344545
v 0.118634 1.259740 -0.344588
v -0.963285 0.536392 0.398072
v 0.968140 0.537504 0.397429
v -1.195995 0.482153 0.345979
v -1.555636 0.228828 0.667040
v -1.232141 0.340821 0.398507
v 0.735430 0.483266 0.345337
v 0.699285 0.341933 0.397864
v 0.683271 0.195022 0.659457
v -0.676055 0.194239 0.659909
v -1.207605 0.762348 0.622030
v 0.667574 0.760433 0.622209
v -0.694204 0.341130 0.398328
v -0.730547 0.482422 0.345825
v -0.747196 1.004754 0.500896
v 1.237222 0.342242 0.397685
v 0.340348 1.128316 0.499782
v 1.200879 0.483534 0.345181
v 0.609776 0.858614 0.825217
v 0.609842 0.743849 0.825420
v 0.641219 0.858663 0.842357
v 0.641285 0.743898 0.842560
v 0.714160 0.858416 0.679029
v 0.714226 0.743651 0.679232
v 0.678349 0.858395 0.679041
v 0.678415 0.743631 0.679244
v 0.721674 0.743759 0.737559
v 0.645019 0.858479 0.737382
v 0.721608 0.858523 0.737356
v 0.645086 0.743715 0.737585
v 0.645099 0.683631 0.673816
v 0.645080 0.683528 0.615486
v 0.680891 0.683549 0.615474
v 0.680911 0.683652 0.673804
v -0.676234 0.545187 0.728292
v 0.683093 0.545969 0.727840
v 1.694301 0.406636 0.184902
v -1.748228 0.315048 0.164662
v -1.207702 0.761830 0.329244
v 0.667477 0.759914 0.328626
v -0.676164 0.193656 0.330073
v 0.683162 0.194439 0.329621
v -0.747276 1.004332 0.261994
v 0.340269 1.127894 0.261415
v 0.699370 0.194569 0.398124
v 1.237393 0.195341 0.659273
v 0.699456 0.195031 0.659451
v 1.237306 0.194879 0.397946
v 1.201000 0.484181 0.711039
v 0.968249 0.538082 0.724271
v 0.699382 0.342450 0.690414
v 0.735551 0.483913 0.711194
v 1.237317 0.342754 0.687354
v -0.694033 0.194229 0.659915
v -1.231970 0.193919 0.660094
v -1.232056 0.193457 0.398767
v -0.694120 0.193767 0.398588
v -0.963176 0.536974 0.727473
v -1.232042 0.341349 0.697684
v -1.195870 0.482827 0.726599
v -0.694105 0.341659 0.697505
v -0.730421 0.483095 0.726444
v 1.814476 0.636827 0.639942
v 1.814816 0.636276 0.328464
v 1.694076 0.255574 0.659014
v 1.814565 0.485010 0.640211
v 1.694362 0.299919 0.185091
v 1.814898 0.490881 0.320127
v -1.555931 0.733464 0.659248
v -1.555799 0.544680 0.728585
v -1.748382 0.782258 0.509299
v -1.748287 0.416656 0.164482
v 1.694437 0.254991 0.329178
v 1.709818 0.406644 0.184897
v 1.709880 0.299928 0.185086
v -1.748094 0.253237 0.459260
v -1.748268 0.583163 0.509651
v -1.764788 0.315039 0.164667
v -1.764846 0.416646 0.164488
v -0.217942 0.194503 0.659757
v -0.218253 0.734235 0.658802
v -0.034938 1.153572 0.341001
v -0.218121 0.545451 0.728140
v -0.218051 0.193920 0.329921
v -0.218626 1.153325 0.261556
v 0.804897 0.734025 0.206539
v 0.141259 1.153673 0.340942
v 0.141172 1.153214 0.081526
v 0.682961 0.734753 0.658503
v -1.216098 0.733660 0.659134
v -0.738682 1.033550 0.525109
v -0.738770 1.033085 0.261941
v -1.216208 0.733077 0.329298
v -0.248257 0.763476 0.652253
v -0.897834 0.763103 0.652469
v -0.716125 1.004305 0.531661
v -0.248505 1.124514 0.531294
v 0.630786 0.763983 0.651961
v -0.188287 0.763511 0.652233
v -0.188535 1.124549 0.531273
v 0.307762 1.124835 0.531109
v -1.178948 0.753324 0.329250
v -0.718522 0.995826 0.262000
v 0.641733 0.744539 0.328662
v 0.314525 1.112520 0.261451
v 0.314605 1.112942 0.499818
v 0.641830 0.745058 0.622245
v -1.175165 0.760696 0.592744
v -0.718442 0.996248 0.500901
v -0.876379 0.756555 0.623203
v -0.248263 0.756917 0.622994
v -0.248511 1.117955 0.502035
v -0.716131 0.997745 0.502402
v -0.188292 0.756952 0.622974
v 0.630780 0.757423 0.622702
v 0.307756 1.118275 0.501850
v -0.188540 1.117989 0.502015
v -0.039765 0.638743 0.684481
v -0.039788 0.672183 0.672242
v -0.139852 0.672126 0.672275
v -0.139829 0.638685 0.684514
v -0.739531 0.638340 0.684713
v -0.739554 0.671780 0.672475
v -0.639491 0.671838 0.672442
v -0.639467 0.638398 0.684680
v -0.739529 0.646272 0.706386
v -0.739552 0.679712 0.694148
v -0.639488 0.679770 0.694114
v -0.639465 0.646329 0.706353
v -0.139826 0.646617 0.706187
v -0.139849 0.680058 0.693948
v -0.039786 0.680115 0.693914
v -0.039762 0.646674 0.706153
v -1.787674 0.378958 0.435599
v -1.787687 0.386972 0.410785
v -1.787657 0.357888 0.450963
v -1.787642 0.331812 0.451009
v -1.787635 0.310689 0.435720
v -1.787639 0.302587 0.410934
v -1.787652 0.310601 0.386120
v -1.787669 0.331670 0.370755
v -1.787684 0.357746 0.370709
v -1.787691 0.378870 0.385999
v -1.787671 0.366987 0.426934
v -1.787678 0.372194 0.410811
v -1.787659 0.353297 0.436917
v -1.787649 0.336354 0.436947
v -1.787645 0.322628 0.427013
v -1.787647 0.317365 0.410908
v -1.787656 0.322572 0.394784
v -1.787667 0.336261 0.384801
v -1.787677 0.353205 0.384771
v -1.787681 0.366930 0.394706
v -1.566956 0.379085 0.435525
v -1.566969 0.387099 0.410711
v -1.566939 0.358016 0.450890
v -1.566924 0.331939 0.450936
v -1.566916 0.310816 0.435646
v -1.566921 0.302714 0.410860
v -1.566933 0.310729 0.386046
v -1.566951 0.331797 0.370682
v -1.566966 0.357874 0.370636
v -1.566973 0.378997 0.385925
v -1.776912 0.366993 0.426930
v -1.776920 0.372200 0.410807
v -1.776901 0.353304 0.436914
v -1.776891 0.336360 0.436944
v -1.776887 0.322635 0.427009
v -1.776888 0.317371 0.410904
v -1.776897 0.322578 0.394781
v -1.776908 0.336267 0.384798
v -1.776918 0.353211 0.384768
v -1.776923 0.366936 0.394702
v 1.506867 0.194913 0.329347
v 1.506665 0.735228 0.658228
v 1.384430 0.734359 0.206347
v 1.506797 0.546444 0.727566
v 1.506976 0.195496 0.659183
v 1.814446 0.655217 0.658268
v 1.814806 0.654634 0.328432
v 1.814555 0.466311 0.658602
v 1.814908 0.472527 0.319776
v 1.769754 0.636251 0.328446
v 1.769836 0.490856 0.320111
v 1.769414 0.636802 0.639894
v 1.769502 0.484985 0.640162
v 1.781461 0.497567 0.564404
v 1.814737 0.521773 0.564350
v 1.781461 0.529325 0.619187
v 1.814737 0.541401 0.598208
v 1.781424 0.592648 0.619075
v 1.814715 0.580536 0.598139
v 1.781388 0.624212 0.564180
v 1.814692 0.600044 0.564212
v 1.827431 0.560916 0.564277
v 1.781388 0.592453 0.509397
v 1.814693 0.580416 0.530354
v 1.781424 0.529131 0.509509
v 1.814715 0.541281 0.530423
v 1.760886 0.529314 0.619193
v 1.760849 0.592636 0.619082
v 1.760813 0.624200 0.564187
v 1.760813 0.592442 0.509404
v 1.760849 0.529119 0.509516
v 1.760885 0.497555 0.564411
v 1.781419 0.497344 0.438466
v 1.814695 0.521551 0.438413
v 1.781419 0.529103 0.493250
v 1.814696 0.541178 0.472270
v 1.781382 0.592425 0.493138
v 1.814673 0.580313 0.472201
v 1.781346 0.623989 0.438242
v 1.814651 0.599821 0.438274
v 1.827389 0.560693 0.438339
v 1.781345 0.592231 0.383460
v 1.814651 0.580194 0.404417
v 1.781382 0.528908 0.383572
v 1.814673 0.541058 0.404486
v 1.760844 0.529090 0.493256
v 1.760807 0.592413 0.493144
v 1.760771 0.623977 0.438250
v 1.760771 0.592219 0.383466
v 1.760807 0.528897 0.383578
v 1.760844 0.497332 0.438473
v 0.682851 0.734170 0.328666
v 1.506556 0.734645 0.328392
v 1.384402 0.781740 0.206263
v -1.212117 0.193430 0.377329
v -1.480089 0.193349 0.418347
v -1.559641 0.733125 0.468516
v -1.757988 0.614928 0.259522
v -1.791292 0.639096 0.259490
v -1.758025 0.646492 0.204627
v -1.791315 0.658604 0.225563
v -1.758061 0.709815 0.204515
v -1.791338 0.697740 0.225493
v -1.758061 0.741573 0.259298
v -1.791338 0.717367 0.259351
v -1.804031 0.678224 0.259425
v -1.758025 0.710009 0.314193
v -1.791315 0.697859 0.293278
v -1.757988 0.646687 0.314305
v -1.791293 0.658724 0.293347
v -1.737451 0.646505 0.204619
v -1.737486 0.709827 0.204508
v -1.737487 0.741585 0.259291
v -1.737450 0.710021 0.314186
v -1.737414 0.646698 0.314297
v -1.737414 0.614940 0.259515
v -1.757946 0.615151 0.385459
v -1.791251 0.639319 0.385427
v -1.757983 0.646716 0.330564
v -1.791274 0.658827 0.351500
v -1.758019 0.710038 0.330452
v -1.791296 0.697962 0.351431
v -1.758020 0.741796 0.385235
v -1.791296 0.717590 0.385289
v -1.803990 0.678447 0.385362
v -1.757983 0.710232 0.440130
v -1.791273 0.698082 0.419215
v -1.757946 0.646909 0.440242
v -1.791251 0.658947 0.419285
v -1.737409 0.646727 0.330557
v -1.737445 0.710050 0.330445
v -1.737445 0.741808 0.385228
v -1.737409 0.710244 0.440123
v -1.737372 0.646921 0.440235
v -1.737371 0.615163 0.385452
v -1.758030 0.614706 0.133584
v -1.791334 0.638874 0.133552
v -1.758066 0.646270 0.078689
v -1.791357 0.658381 0.099625
v -1.758103 0.709592 0.078577
v -1.791380 0.697517 0.099556
v -1.758103 0.741351 0.133360
v -1.791379 0.717144 0.133414
v -1.804073 0.678002 0.133488
v -1.758067 0.709786 0.188255
v -1.791357 0.697637 0.167341
v -1.758030 0.646464 0.188367
v -1.791334 0.658502 0.167410
v -1.737491 0.646282 0.078682
v -1.737528 0.709604 0.078570
v -1.737529 0.741362 0.133353
v -1.737492 0.709799 0.188248
v -1.737455 0.646476 0.188360
v -1.737455 0.614718 0.133577
v -1.555851 0.620194 0.700850
v 0.683059 0.593166 0.710506
v -0.811200 0.592305 0.711003
v -0.218154 0.592647 0.710805
v 1.814542 0.522964 0.640143
v 1.769815 0.527205 0.322194
v 1.769480 0.522939 0.640095
v -1.748296 0.632937 0.509563
v -0.218539 1.153790 0.524724
v 0.324982 1.154104 0.524543
v 0.324894 1.153638 0.261375
v -0.035024 1.153112 0.081584
v -0.012750 1.260418 0.081387
v 0.118775 1.260494 0.081343
v -0.012664 1.260876 0.340804
v 0.118861 1.260953 0.340760
v 0.967898 0.445664 -0.489012
v 0.967834 0.446252 -0.680126
v 0.854748 0.408828 -0.488909
v 0.854139 0.409239 -0.680023
v 0.784860 0.312518 -0.488716
v 0.783916 0.312466 -0.679828
v 0.784929 0.193523 -0.488505
v 0.783984 0.192898 -0.679617
v 0.854927 0.097294 -0.488358
v 0.854320 0.096206 -0.679469
v 0.968120 0.060587 -0.488331
v 0.968057 0.059323 -0.679442
v 1.081270 0.097425 -0.488434
v 1.081751 0.096338 -0.679545
v 1.151158 0.193734 -0.488627
v 1.151976 0.193110 -0.679739
v 1.151089 0.312729 -0.488838
v 1.151906 0.312678 -0.679951
v 1.081091 0.408958 -0.488985
v 1.081571 0.409370 -0.680098
v 0.823101 0.451909 -0.680088
v 0.967804 0.499017 -0.680219
v 0.733723 0.328742 -0.679840
v 0.733811 0.176564 -0.679571
v 0.823331 0.053501 -0.679383
v 0.968088 0.006559 -0.679348
v 1.112791 0.053668 -0.679480
v 1.202168 0.176834 -0.679727
v 1.202080 0.329012 -0.679996
v 1.112561 0.452075 -0.680184
v 0.948090 0.280191 -0.632184
v 0.967942 0.286654 -0.632203
v 0.935827 0.263293 -0.632151
v 0.935839 0.242414 -0.632114
v 0.948121 0.225531 -0.632088
v 0.967981 0.219090 -0.632083
v 0.987834 0.225554 -0.632101
v 1.000096 0.242452 -0.632135
v 1.000083 0.263330 -0.632172
v 0.987802 0.280214 -0.632198
v 0.854155 0.409323 -0.632382
v 0.967850 0.446337 -0.632485
v 0.783931 0.312550 -0.632188
v 0.784000 0.192983 -0.631976
v 0.854336 0.096291 -0.631828
v 0.968073 0.059408 -0.631801
v 1.081767 0.096422 -0.631904
v 1.151992 0.193194 -0.632098
v 1.151922 0.312762 -0.632310
v 1.081587 0.409454 -0.632457
v 0.783921 0.312495 -0.663580
v 0.854145 0.409267 -0.663774
v 0.854326 0.096235 -0.663221
v 0.783990 0.192927 -0.663368
v 1.081757 0.096366 -0.663296
v 0.968062 0.059352 -0.663193
v 1.151912 0.312707 -0.663702
v 1.151981 0.193139 -0.663491
v 0.967839 0.446281 -0.663877
v 1.081577 0.409399 -0.663850
v 0.948079 0.280135 -0.663577
v 0.967932 0.286598 -0.663595
v 0.935817 0.263238 -0.663543
v 0.935829 0.242360 -0.663506
v 0.948110 0.225476 -0.663480
v 0.967971 0.219035 -0.663476
v 0.987823 0.225499 -0.663494
v 1.000085 0.242396 -0.663527
v 1.000073 0.263274 -0.663564
v 0.987791 0.280158 -0.663590
v 0.967867 0.499355 -0.489107
v 0.823164 0.452247 -0.488975
v 0.733787 0.329080 -0.488728
v 0.733875 0.176902 -0.488459
v 0.823394 0.053839 -0.488271
v 0.968151 0.006897 -0.488236
v 1.112854 0.054006 -0.488367
v 1.202231 0.177172 -0.488615
v 1.202143 0.329350 -0.488884
v 1.112625 0.452413 -0.489072
v 0.968222 0.447391 0.487499
v 0.968285 0.448655 0.678609
v 0.855072 0.410555 0.487601
v 0.854590 0.411642 0.678712
v 0.785183 0.314245 0.487794
v 0.784366 0.314869 0.678907
v 0.785252 0.195250 0.488005
v 0.784435 0.195301 0.679118
v 0.855251 0.099021 0.488152
v 0.854771 0.098609 0.679266
v 0.968444 0.062314 0.488180
v 0.968508 0.061726 0.679293
v 1.081594 0.099152 0.488076
v 1.082202 0.098741 0.679190
v 1.151482 0.195461 0.487883
v 1.152426 0.195513 0.678996
v 1.151413 0.314456 0.487673
v 1.152358 0.315081 0.678784
v 1.081415 0.410685 0.487526
v 1.082022 0.411773 0.678637
v 0.823551 0.454312 0.678647
v 0.968255 0.501420 0.678515
v 0.734174 0.331145 0.678895
v 0.734262 0.178967 0.679164
v 0.823781 0.055904 0.679352
v 0.968538 0.008962 0.679386
v 1.113241 0.056071 0.679255
v 1.202618 0.179237 0.679008
v 1.202531 0.331415 0.678739
v 1.113011 0.454478 0.678551
v 0.948509 0.282425 0.631269
v 0.968361 0.288888 0.631250
v 0.936246 0.265528 0.631303
v 0.936258 0.244649 0.631339
v 0.948540 0.227765 0.631365
v 0.968400 0.221325 0.631370
v 0.988253 0.227788 0.631352
v 1.000515 0.244686 0.631318
v 1.000503 0.265565 0.631281
v 0.988221 0.282448 0.631255
v 0.854575 0.411557 0.631071
v 0.968269 0.448572 0.630968
v 0.784350 0.314784 0.631266
v 0.784419 0.195217 0.631477
v 0.854755 0.098525 0.631625
v 0.968492 0.061642 0.631652
v 1.082186 0.098656 0.631549
v 1.152411 0.195429 0.631355
v 1.152342 0.314997 0.631144
v 1.082006 0.411689 0.630996
v 0.784361 0.314840 0.662658
v 0.854585 0.411613 0.662464
v 0.854765 0.098581 0.663017
v 0.784429 0.195273 0.662870
v 1.082197 0.098712 0.662942
v 0.968503 0.061698 0.663045
v 1.152353 0.315052 0.662536
v 1.152421 0.195484 0.662747
v 0.968280 0.448627 0.662360
v 1.082016 0.411744 0.662388
v 0.948519 0.282481 0.662661
v 0.968371 0.288944 0.662643
v 0.936257 0.265583 0.662695
v 0.936268 0.244704 0.662732
v 0.948551 0.227821 0.662758
v 0.968411 0.221381 0.662762
v 0.988264 0.227843 0.662745
v 1.000525 0.244742 0.662711
v 1.000513 0.265620 0.662674
v 0.988232 0.282504 0.662648
v 0.968191 0.501082 0.487404
v 0.823488 0.453974 0.487535
v 0.734111 0.330807 0.487782
v 0.734198 0.178629 0.488052
v 0.823718 0.055566 0.488239
v 0.968475 0.008624 0.488275
v 1.113178 0.055733 0.488143
v 1.202554 0.178899 0.487895
v 1.202467 0.331077 0.487627
v 1.112949 0.454140 0.487439
v -0.961735 0.444554 -0.488370
v -0.961799 0.445142 -0.679484
v -0.848542 0.407847 -0.488342
v -0.848060 0.408259 -0.679456
v -0.778543 0.311618 -0.488195
v -0.777725 0.311567 -0.679309
v -0.778474 0.192623 -0.487985
v -0.777657 0.191999 -0.679097
v -0.848362 0.096314 -0.487792
v -0.847880 0.095227 -0.678903
v -0.961512 0.059477 -0.487689
v -0.961575 0.058213 -0.678799
v -1.074705 0.096184 -0.487717
v -1.075312 0.095096 -0.678827
v -1.144704 0.192412 -0.487863
v -1.145648 0.191787 -0.678975
v -1.144773 0.311407 -0.488074
v -1.145717 0.311355 -0.679186
v -1.074885 0.407717 -0.488267
v -1.075493 0.408128 -0.679380
v -0.817071 0.450964 -0.679542
v -0.961829 0.497907 -0.679577
v -0.727552 0.327901 -0.679354
v -0.727464 0.175723 -0.679085
v -0.816842 0.052557 -0.678838
v -0.961545 0.005448 -0.678706
v -1.106302 0.052390 -0.678741
v -1.195821 0.175453 -0.678929
v -1.195909 0.327632 -0.679198
v -1.106532 0.450798 -0.679445
v -0.941831 0.279103 -0.631556
v -0.961691 0.285544 -0.631560
v -0.929549 0.262219 -0.631530
v -0.929536 0.241341 -0.631493
v -0.941799 0.224443 -0.631459
v -0.961652 0.217980 -0.631441
v -0.981512 0.224420 -0.631446
v -0.993793 0.241304 -0.631472
v -0.993805 0.262182 -0.631509
v -0.981543 0.279080 -0.631543
v -0.848046 0.408343 -0.631815
v -0.961783 0.445226 -0.631843
v -0.777709 0.311651 -0.631668
v -0.777641 0.192084 -0.631456
v -0.847865 0.095311 -0.631262
v -0.961560 0.058297 -0.631158
v -1.075297 0.095180 -0.631186
v -1.145632 0.191872 -0.631334
v -1.145702 0.311440 -0.631545
v -1.075477 0.408212 -0.631739
v -0.777720 0.311596 -0.663060
v -0.848056 0.408288 -0.663208
v -0.847875 0.095255 -0.662654
v -0.777651 0.192028 -0.662848
v -1.075307 0.095125 -0.662579
v -0.961570 0.058242 -0.662551
v -1.145712 0.311384 -0.662938
v -1.145643 0.191816 -0.662726
v -0.961793 0.445171 -0.663235
v -1.075488 0.408157 -0.663132
v -0.941841 0.279048 -0.662948
v -0.961701 0.285488 -0.662953
v -0.929559 0.262164 -0.662922
v -0.929547 0.241286 -0.662885
v -0.941810 0.224387 -0.662851
v -0.961662 0.217924 -0.662833
v -0.981522 0.224364 -0.662838
v -0.993804 0.241248 -0.662864
v -0.993816 0.262127 -0.662901
v -0.981553 0.279025 -0.662935
v -0.961765 0.498245 -0.488465
v -0.817009 0.451303 -0.488430
v -0.727489 0.328239 -0.488242
v -0.727401 0.176061 -0.487973
v -0.816779 0.052895 -0.487725
v -0.961482 0.005786 -0.487594
v -1.106238 0.052728 -0.487629
v -1.195758 0.175792 -0.487817
v -1.195846 0.327970 -0.488086
v -1.106469 0.451135 -0.488334
v -0.961410 0.446281 0.488140
v -0.961348 0.447545 0.679251
v -0.848217 0.409574 0.488168
v -0.847611 0.410662 0.679278
v -0.778219 0.313345 0.488315
v -0.777274 0.313970 0.679426
v -0.778150 0.194350 0.488526
v -0.777206 0.194402 0.679638
v -0.848038 0.098041 0.488719
v -0.847430 0.097630 0.679832
v -0.961188 0.061204 0.488821
v -0.961125 0.060616 0.679935
v -1.074381 0.097911 0.488794
v -1.074862 0.097499 0.679908
v -1.144380 0.194139 0.488647
v -1.145197 0.194190 0.679760
v -1.144449 0.313135 0.488437
v -1.145267 0.313758 0.679549
v -1.074560 0.409444 0.488244
v -1.075042 0.410531 0.679354
v -0.816621 0.453368 0.679193
v -0.961378 0.500310 0.679158
v -0.727102 0.330304 0.679381
v -0.727014 0.178126 0.679650
v -0.816391 0.054960 0.679897
v -0.961095 0.007851 0.680029
v -1.105851 0.054793 0.679994
v -1.195370 0.177857 0.679806
v -1.195458 0.330034 0.679536
v -1.106081 0.453200 0.679289
v -0.941411 0.281338 0.631897
v -0.961271 0.287778 0.631893
v -0.929129 0.264454 0.631923
v -0.929118 0.243575 0.631960
v -0.941380 0.226677 0.631994
v -0.961233 0.220214 0.632012
v -0.981093 0.226654 0.632007
v -0.993374 0.243538 0.631982
v -0.993386 0.264417 0.631944
v -0.981124 0.281315 0.631911
v -0.847626 0.410577 0.631638
v -0.961363 0.447460 0.631610
v -0.777291 0.313886 0.631785
v -0.777221 0.194318 0.631997
v -0.847446 0.097545 0.632191
v -0.961140 0.060532 0.632294
v -1.074878 0.097415 0.632267
v -1.145213 0.194106 0.632119
v -1.145282 0.313674 0.631908
v -1.075058 0.410447 0.631714
v -0.777280 0.313941 0.663178
v -0.847616 0.410633 0.663030
v -0.847435 0.097601 0.663584
v -0.777212 0.194374 0.663389
v -1.074867 0.097470 0.663660
v -0.961130 0.060587 0.663687
v -1.145272 0.313730 0.663300
v -1.145203 0.194162 0.663512
v -0.961353 0.447516 0.663003
v -1.075047 0.410502 0.663106
v -0.941401 0.281393 0.663290
v -0.961261 0.287834 0.663285
v -0.929119 0.264509 0.663315
v -0.929107 0.243631 0.663353
v -0.941369 0.226733 0.663387
v -0.961222 0.220270 0.663405
v -0.981082 0.226710 0.663400
v -0.993363 0.243594 0.663374
v -0.993376 0.264472 0.663337
v -0.981114 0.281370 0.663303
v -0.961442 0.499972 0.488045
v -0.816684 0.453030 0.488081
v -0.727165 0.329966 0.488268
v -0.727077 0.177788 0.488538
v -0.816455 0.054622 0.488785
v -0.961158 0.007513 0.488916
v -1.105915 0.054455 0.488882
v -1.195434 0.177518 0.488693
v -1.195521 0.329697 0.488425
v -1.106145 0.452862 0.488177
vn -0.0005 0.3414 -0.9399
vn 0.0006 -1.0000 0.0018
vn 0.2513 0.9679 0.0028
vn 0.2571 0.9664 -0.0018
vn 0.2510 0.9680 0.0028
vn -0.2064 -0.9758 -0.0729
vn 0.7936 -0.0006 -0.6084
vn -0.4792 -0.0018 -0.8777
vn -0.0006 1.0000 -0.0018
vn -0.8391 0.4886 0.2392
vn 0.0003 0.0018 1.0000
vn 0.9920 0.0008 0.1260
vn 0.8751 -0.4807 0.0563
vn -0.0002 0.7302 0.6832
vn 0.0002 -0.7302 -0.6832
vn -0.0002 -0.1729 -0.9849
vn -0.0034 -0.2069 -0.9784
vn -0.0018 -0.2008 -0.9796
vn -0.7464 -0.1164 -0.6552
vn -0.0003 -0.0018 -1.0000
vn 0.2506 0.9681 0.0030
vn 0.2266 -0.9740 0.0016
vn 0.9688 -0.2477 0.0001
vn 1.0000 0.0006 -0.0003
vn -1.0000 -0.0006 0.0003
vn -0.9685 -0.2488 0.0008
vn -0.2255 -0.9742 0.0018
vn -0.0004 0.0843 -0.9964
vn 0.0017 0.0018 1.0000
vn 0.8715 -0.4904 0.0044
vn 0.5023 -0.8646 0.0132
vn 0.8739 -0.3336 0.3534
vn -1.0000 -0.0006 0.0004
vn -0.0006 0.5863 -0.8101
vn 0.0004 -0.9516 -0.3073
vn 0.0006 -0.5864 0.8101
vn -0.0007 0.9505 -0.3107
vn -0.0001 0.5892 0.8080
vn -0.0006 0.5864 -0.8101
vn -0.0004 0.9516 0.3073
vn 0.0001 -0.5892 -0.8080
vn -0.0005 0.9516 0.3073
vn 0.0007 -0.9505 0.3107
vn 0.0003 0.0017 1.0000
vn -0.6484 0.1169 -0.7523
vn 0.1548 0.1759 -0.9722
vn 0.2514 0.9679 -0.0020
vn 0.2513 0.9679 -0.0019
vn 0.3052 -0.9523 0.0015
vn 0.3054 -0.9522 0.0014
vn 0.2512 0.9679 -0.0018
vn 0.1304 -0.1502 -0.9800
vn 0.3050 -0.9523 0.0016
vn 1.0000 0.0005 -0.0010
vn 1.0000 0.0006 -0.0017
vn 1.0000 0.0006 -0.0018
vn 1.0000 0.0005 -0.0017
vn 1.0000 0.0006 -0.0011
vn 1.0000 0.0006 -0.0010
vn -0.0006 0.9997 -0.0234
vn -0.0006 0.9997 -0.0226
vn -0.0006 0.9998 -0.0219
vn -0.0821 0.9966 -0.0017
vn -0.2178 -0.9760 0.0018
vn -0.0402 -0.9984 -0.0400
vn -0.7117 0.1495 -0.6864
vn 0.0001 0.3448 0.9387
vn 0.2513 0.9679 -0.0063
vn 0.2509 0.9680 -0.0065
vn -0.2063 -0.9755 0.0765
vn 0.7940 0.0015 0.6079
vn -0.4786 0.0013 0.8780
vn -0.8392 0.4877 -0.2404
vn 0.9919 0.0003 -0.1267
vn 0.8750 -0.4809 -0.0551
vn -0.0006 0.7278 -0.6858
vn 0.0006 -0.7278 0.6858
vn 0.0004 -0.1694 0.9856
vn -0.0028 -0.2034 0.9791
vn -0.0012 -0.1974 0.9803
vn -0.7460 -0.1141 0.6561
vn 0.2506 0.9681 -0.0066
vn 0.0003 0.0878 0.9961
vn 0.0011 -0.0018 -1.0000
vn 0.8715 -0.4904 -0.0032
vn 0.5023 -0.8646 -0.0105
vn 0.8737 -0.3349 -0.3528
vn -1.0000 -0.0005 0.0003
vn 0.0006 -0.5863 0.8101
vn -0.6479 0.1195 0.7523
vn 0.1554 0.1793 0.9714
vn 0.2514 0.9679 -0.0016
vn 0.2513 0.9679 -0.0017
vn 0.3052 -0.9523 0.0017
vn 0.3054 -0.9522 0.0018
vn 0.1310 -0.1467 0.9805
vn 1.0000 0.0006 0.0004
vn 1.0000 0.0006 0.0011
vn 1.0000 0.0005 0.0004
vn 1.0000 0.0005 0.0011
vn -0.0006 0.9998 0.0198
vn -0.0006 0.9998 0.0191
vn -0.0006 0.9998 0.0183
vn -0.0402 -0.9982 0.0436
vn 1.0000 0.0006 0.0003
vn -0.7112 0.1520 0.6863
vn -0.2837 -0.9589 0.0018
vn -0.5127 0.8585 -0.0013
vn -0.5128 0.8585 -0.0013
vn -0.0005 0.9765 0.2153
vn -0.0002 -0.1947 -0.9809
vn 0.2837 0.9589 -0.0018
vn 0.1567 0.9876 0.0115
vn -0.2252 0.9743 -0.0016
vn 0.8585 0.5127 -0.0012
vn 0.7545 0.6563 -0.0014
vn -0.5009 0.8655 -0.0014
vn -0.9589 0.2837 -0.0002
vn -0.9589 0.2836 -0.0002
vn -0.0004 0.2153 -0.9765
vn -0.0005 0.4228 -0.9062
vn -0.0547 0.2215 -0.9736
vn -0.0005 0.3072 -0.9516
vn 0.5127 -0.8585 0.0013
vn -0.7608 -0.6338 -0.1394
vn 0.8313 -0.3942 -0.3919
vn 0.2433 -0.9472 -0.2089
vn 0.1256 -0.2080 0.9700
vn 0.0005 -0.9765 -0.2153
vn -0.3663 0.3169 0.8748
vn -0.0005 0.3404 -0.9403
vn 0.0004 -0.9403 -0.3403
vn -0.0004 0.9403 0.3404
vn 0.0004 -0.9403 -0.3404
vn -0.9791 0.2032 -0.0000
vn 0.9789 0.2044 -0.0007
vn -0.0006 0.9758 -0.2188
vn 0.0004 -0.1913 0.9815
vn 0.1567 0.9875 -0.0151
vn 0.0002 0.2188 0.9758
vn 0.0001 0.4260 0.9047
vn -0.0540 0.2250 0.9729
vn 0.0001 0.3106 0.9506
vn 0.0001 0.3106 0.9505
vn -0.7607 -0.6333 0.1422
vn 0.8316 -0.3928 0.3927
vn 0.2435 -0.9464 0.2121
vn 0.1249 -0.2115 -0.9694
vn 0.0006 -0.9758 0.2188
vn -0.3669 0.3139 -0.8757
vn 0.0001 0.3437 0.9391
vn 0.0007 -0.9391 0.3437
vn -0.0007 0.9391 -0.3437
vn -0.8680 0.0004 0.4966
vn -0.9278 0.0001 0.3730
vn -0.0421 0.3784 -0.9247
vn -0.4660 0.8848 -0.0011
vn -0.4662 0.8847 -0.0014
vn -0.4637 0.8860 0.0069
vn 0.7474 0.6643 -0.0014
vn -0.4636 0.8860 0.0074
vn -0.0005 0.3143 -0.9493
vn -0.8683 -0.0014 -0.4960
vn -0.9281 -0.0012 -0.3724
vn -0.0415 0.3817 0.9234
vn -0.4661 0.8847 -0.0018
vn -0.4637 0.8860 -0.0099
vn -0.4636 0.8860 -0.0102
vn 0.0001 0.3177 0.9482
vn 0.9364 -0.3040 -0.1754
vn 0.5328 -0.7334 -0.4221
vn 0.5323 -0.0012 -0.8466
vn 0.9362 -0.0001 -0.3516
vn 0.5320 0.7326 -0.4247
vn 0.9360 0.3044 -0.1765
vn 0.5323 0.7341 0.4217
vn 0.9362 0.3051 0.1748
vn 0.5328 0.0018 0.8462
vn 0.9364 0.0012 0.3510
vn 0.5331 -0.7319 0.4243
vn 0.9365 -0.3033 0.1759
vn 0.0007 -0.8651 0.5015
vn -0.0003 0.8669 0.4985
vn -0.0007 0.8651 -0.5015
vn 0.0003 -0.8669 -0.4985
vn 0.5323 0.7340 0.4217
vn 0.9365 -0.3034 0.1759
vn 0.9361 0.3051 0.1748
vn 0.9360 0.3045 -0.1765
vn 0.0006 -0.8651 0.5015
vn 0.9365 -0.3034 0.1758
vn 0.9362 0.3050 0.1748
vn -0.9360 -0.3045 0.1765
vn -0.5320 -0.7326 0.4247
vn -0.5323 0.0012 0.8466
vn -0.9362 0.0001 0.3516
vn -0.5328 0.7334 0.4221
vn -0.9364 0.3040 0.1754
vn -0.5331 0.7319 -0.4243
vn -0.9365 0.3034 -0.1759
vn -0.5328 -0.0018 -0.8462
vn -0.9364 -0.0012 -0.3510
vn -0.5323 -0.7341 -0.4217
vn -0.9361 -0.3051 -0.1748
vn -0.9360 -0.3044 0.1765
vn -0.9362 -0.3051 -0.1748
vn -0.5323 -0.7340 -0.4217
vn -0.5320 -0.7325 0.4247
vn -0.9364 -0.0011 -0.3510
vn -0.8093 0.5873 -0.0054
vn -0.3096 0.9509 -0.0016
vn 0.3096 -0.9509 -0.0030
vn 0.3085 0.9512 -0.0018
vn 0.3085 0.9512 -0.0049
vn -0.8087 -0.5882 -0.0033
vn -0.3096 0.9509 -0.0062
vn 0.8094 -0.5873 0.0008
vn 0.8087 0.5882 -0.0013
vn -1.0000 -0.0006 -0.0043
vn -0.3085 -0.9512 0.0018
vn 0.8087 0.5883 -0.0013
vn 0.3085 0.9512 -0.0079
vn 0.8087 0.5882 -0.0074
vn 1.0000 -0.0004 -0.0049
vn 0.8093 -0.5873 -0.0038
vn -0.3085 -0.9512 -0.0028
vn -0.8094 0.5873 -0.0008
vn -0.8087 -0.5883 0.0013
vn 0.3096 -0.9509 0.0016
vn -0.8093 0.5873 0.0038
vn 0.3096 -0.9509 0.0062
vn 0.3085 0.9512 0.0013
vn -0.8087 -0.5882 0.0059
vn -0.3096 0.9509 0.0030
vn -1.0000 -0.0006 0.0049
vn 0.3085 0.9512 0.0044
vn 0.8087 0.5882 0.0048
vn 1.0000 -0.0003 0.0043
vn 0.8093 -0.5873 0.0054
vn -0.3085 -0.9512 0.0064
vn 0.8087 0.5882 -0.0059
vn -0.3096 0.9509 -0.0046
vn 0.3085 0.9512 -0.0064
vn -0.8087 -0.5882 0.0013
vn 1.0000 0.0006 -0.0049
vn -0.3096 0.9508 -0.0077
vn -0.8093 0.5873 -0.0069
vn -1.0000 -0.0015 -0.0043
vn -0.8087 -0.5883 -0.0033
vn 0.8087 0.5883 0.0033
vn -0.3096 0.9509 0.0015
vn 0.3085 0.9512 0.0028
vn 1.0000 0.0006 0.0043
vn -0.3096 0.9509 0.0046
vn -0.8093 0.5873 0.0054
vn -1.0000 -0.0015 0.0049
vt 0.932059 0.555098
vt 0.939422 0.567902
vt 0.938461 0.559618
vt 0.943383 0.574382
vt 0.942344 0.554579
vt 0.940019 0.556137
vt 0.807059 0.680098
vt 0.064422 0.317902
vt 0.057059 0.305098
vt 0.810059 0.678176
vt 0.560059 0.928176
vt 0.682059 0.930098
vt 0.307059 0.680098
vt 0.063240 0.179917
vt 0.072824 0.191020
vt 0.937500 0.567500
s 1
usemtl body_black.001
f 330/1/1 111/1/1 204/1/1 207/1/1
f 57/1/2 55/1/2 209/1/2 203/1/2 51/1/2 11/1/2 56/1/2 54/1/2
f 82/1/3 9/1/4 271/1/4 270/1/5
f 4/1/6 267/1/6 92/1/6
f 103/1/2 99/1/2 11/1/2 51/1/2
f 329/1/1 80/1/1 113/1/1 331/1/1
f 37/2/7 35/2/7 30/2/7 29/2/7
f 29/2/8 30/2/8 28/2/8 27/2/8
f 37/2/9 29/2/9 27/2/9 36/2/9
f 34/2/10 38/2/10 39/2/10 40/2/10
f 34/2/11 32/2/11 31/2/11 33/2/11
f 30/2/2 35/2/2 38/2/2 28/2/2
f 31/2/9 37/2/9 36/2/9 33/2/9
f 31/2/12 32/2/12 35/2/12 37/2/12
f 42/2/2 41/2/2 40/2/2 39/2/2
f 35/2/13 32/2/13 41/2/13 42/2/13
f 32/2/14 34/2/14 40/2/14 41/2/14
f 38/2/15 35/2/15 42/2/15 39/2/15
f 4/1/16 81/1/16 44/1/16 12/1/16 63/1/16 70/1/16 71/1/16 67/1/16 69/1/16 68/1/16 64/1/16
f 56/1/17 11/1/18 45/1/18 207/1/17 209/1/17 55/1/17 62/1/17 58/1/17 59/1/17 61/1/17 60/1/17
f 92/1/19 93/1/19 81/1/19 4/1/19
f 83/1/20 47/1/20 97/1/20 98/1/20
f 105/1/2 103/1/2 51/1/2 20/1/2
f 268/1/2 266/1/2 50/1/2 18/1/2
f 80/1/21 82/1/3 270/1/5
f 111/1/9 261/1/9 262/1/9 204/1/9
f 20/1/2 51/1/2 203/1/2 205/1/2
f 2/3/22 6/3/22 61/3/22 59/3/22
f 6/3/23 8/3/23 60/3/23 61/3/23
f 8/3/24 54/3/24 56/3/24 60/3/24
f 55/3/25 57/3/25 22/3/25 62/3/25
f 22/3/26 24/3/26 58/3/26 62/3/26
f 24/3/27 2/3/27 59/3/27 58/3/27
f 8/3/28 6/3/28 2/3/28 24/3/28 22/3/28 57/3/28 54/3/28
f 1/4/22 3/4/22 69/4/22 67/4/22
f 3/4/23 5/4/23 68/4/23 69/4/23
f 5/4/24 65/4/24 64/4/24 68/4/24
f 63/4/25 66/4/25 16/4/25 70/4/25
f 16/4/26 19/4/26 71/4/26 70/4/26
f 19/4/27 1/4/27 67/4/27 71/4/27
f 65/4/28 5/4/28 3/4/28 1/4/28 19/4/28 16/4/28 66/4/28
f 334/5/29 72/5/29 220/5/29 337/5/29
f 78/1/20 46/1/20 88/1/20 90/1/20
f 74/5/2 73/5/2 218/5/2 216/5/2
f 212/1/30 213/1/30 85/1/30 76/1/30
f 263/1/24 206/1/24 265/1/24 264/1/24
f 78/1/24 75/1/24 84/1/24 85/1/24
f 10/1/31 46/1/31 213/1/31 86/1/31
f 46/1/32 78/1/32 85/1/32 213/1/32
f 75/1/2 78/1/2 90/1/2 89/1/2
f 46/1/9 10/1/9 87/1/9 88/1/9
f 7/1/25 47/1/25 92/1/25 91/1/25
f 47/1/25 83/1/25 93/1/25 92/1/25
f 83/1/25 43/1/25 94/1/25 93/1/25
f 43/1/9 83/1/9 98/1/9 96/1/9
f 47/1/2 7/1/2 95/1/2 97/1/2
f 18/1/2 50/1/2 103/1/2 105/1/2
f 50/1/2 12/1/2 99/1/2 103/1/2
f 170/6/33 180/6/33 179/6/33 169/6/33
f 167/6/25 177/6/25 176/6/25 166/6/25
f 163/6/25 173/6/25 174/6/25 164/6/25
f 171/6/25 181/6/25 180/6/33 170/6/33
f 168/6/25 178/6/25 177/6/25 167/6/25
f 165/6/25 175/6/25 173/6/25 163/6/25
f 172/6/25 182/6/25 181/6/25 171/6/25
f 169/6/33 179/6/33 178/6/25 168/6/25
f 166/6/25 176/6/25 175/6/25 165/6/25
f 164/6/25 174/6/25 182/6/25 172/6/25
f 194/6/25 193/6/25 195/6/25 196/6/25 197/6/25 198/6/25 199/6/25 200/6/25 201/6/25 202/6/25
f 179/6/34 180/6/34 200/6/34 199/6/34
f 182/6/35 174/6/35 194/6/35 202/6/35
f 170/6/36 169/6/36 189/6/36 190/6/36
f 171/6/11 170/6/11 190/6/11 191/6/11
f 163/6/37 164/6/37 184/6/37 183/6/37
f 172/6/38 171/6/38 191/6/38 192/6/38
f 165/6/39 163/6/39 183/6/39 185/6/39
f 178/6/37 179/6/37 199/6/37 198/6/37
f 164/6/40 172/6/40 192/6/40 184/6/40
f 166/6/20 165/6/20 185/6/20 186/6/20
f 181/6/41 182/6/41 202/6/41 201/6/41
f 180/6/20 181/6/20 201/6/20 200/6/20
f 167/6/41 166/6/41 186/6/41 187/6/41
f 173/6/36 175/6/36 195/6/36 193/6/36
f 177/6/42 178/6/42 198/6/42 197/6/42
f 168/6/35 167/6/35 187/6/35 188/6/35
f 174/6/43 173/6/43 193/6/43 194/6/43
f 176/6/38 177/6/38 197/6/38 196/6/38
f 169/6/43 168/6/43 188/6/43 189/6/43
f 175/6/44 176/6/44 196/6/44 195/6/44
f 333/1/25 9/1/25 82/1/25 338/1/25
f 329/1/45 338/1/45 82/1/45 80/1/45
f 207/1/46 204/1/46 210/1/46 212/1/46
f 204/1/47 262/1/48 211/1/48 210/1/47
f 203/1/49 209/1/50 76/1/50 85/1/49
f 262/1/48 208/1/51 214/1/51 211/1/48
f 209/1/52 207/1/52 212/1/52 76/1/52
f 205/1/53 203/1/49 85/1/49 84/1/53
f 74/5/54 72/5/55 210/5/55 211/5/54
f 334/5/55 77/5/56 212/5/55
f 77/5/56 79/5/54 213/5/54 212/5/55
f 73/5/24 74/5/54 211/5/54 214/5/24
f 79/5/54 215/5/24 86/5/24 213/5/54
f 337/5/57 220/5/57 216/5/58 335/5/59
f 335/5/59 216/5/58 218/5/24 336/5/24
f 215/5/60 79/5/61 217/5/61 219/5/60
f 79/5/61 77/5/62 221/5/62 217/5/61
f 72/5/2 74/5/2 216/5/2 220/5/2
f 17/1/9 108/1/9 261/1/9 260/1/9
f 108/1/9 206/1/9 262/1/9 261/1/9
f 206/1/9 263/1/9 208/1/9 262/1/9
f 108/1/63 17/1/63 264/1/63 265/1/63
f 206/1/20 108/1/20 265/1/20
f 91/1/64 92/1/64 267/1/64 269/1/64
f 269/1/2 267/1/2 266/1/2 268/1/2
f 12/1/65 50/1/65 266/1/65 267/1/65 4/1/65 64/1/65 65/1/65 66/1/65 63/1/65
f 270/1/9 117/1/9 113/1/9 80/1/9
f 270/1/9 271/1/9 15/1/9 117/1/9
f 217/5/59 335/5/59 336/5/24 219/5/24
f 221/5/57 337/5/57 335/5/59 217/5/59
f 72/5/55 334/5/55 212/5/55 210/5/55
f 81/1/66 93/1/66 338/1/66 329/1/66
f 94/1/25 333/1/25 338/1/25 93/1/25
f 77/5/29 334/5/29 337/5/29 221/5/29
f 81/1/1 329/1/1 331/1/1 44/1/1
f 45/1/1 330/1/1 207/1/1
f 638/1/67 526/1/67 524/1/67 438/1/67
f 397/1/2 394/1/2 396/1/2 358/1/2 391/1/2 523/1/2 527/1/2 395/1/2
f 420/1/68 579/1/69 271/1/4 9/1/4
f 354/1/70 425/1/70 578/1/70
f 433/1/2 391/1/2 358/1/2 429/1/2
f 637/1/67 639/1/67 439/1/67 418/1/67
f 378/2/71 370/2/71 371/2/71 376/2/71
f 370/2/72 368/2/72 369/2/72 371/2/72
f 378/2/9 377/2/9 368/2/9 370/2/9
f 375/2/73 381/2/73 380/2/73 379/2/73
f 375/2/20 374/2/20 372/2/20 373/2/20
f 371/2/2 369/2/2 379/2/2 376/2/2
f 372/2/9 374/2/9 377/2/9 378/2/9
f 372/2/74 378/2/74 376/2/74 373/2/74
f 383/2/2 380/2/2 381/2/2 382/2/2
f 376/2/75 383/2/75 382/2/75 373/2/75
f 373/2/76 382/2/76 381/2/76 375/2/76
f 379/2/77 380/2/77 383/2/77 376/2/77
f 354/1/78 404/1/78 408/1/78 409/1/78 407/1/78 411/1/78 410/1/78 403/1/78 359/1/78 384/1/78 419/1/78
f 396/1/79 400/1/79 401/1/79 399/1/79 398/1/79 402/1/79 395/1/79 527/1/79 526/1/79 385/1/80 358/1/80
f 425/1/81 354/1/81 419/1/81 426/1/81
f 421/1/11 428/1/11 427/1/11 387/1/11
f 105/1/2 20/1/2 391/1/2 433/1/2
f 268/1/2 18/1/2 390/1/2 577/1/2
f 418/1/82 579/1/69 420/1/68
f 438/1/9 524/1/9 575/1/9 574/1/9
f 20/1/2 205/1/2 523/1/2 391/1/2
f 352/3/22 399/3/22 401/3/22 356/3/22
f 356/3/23 401/3/23 400/3/23 357/3/23
f 357/3/24 400/3/24 396/3/24 394/3/24
f 395/3/25 402/3/25 365/3/25 397/3/25
f 365/3/26 402/3/26 398/3/26 367/3/26
f 367/3/27 398/3/27 399/3/27 352/3/27
f 357/3/83 394/3/83 397/3/83 365/3/83 367/3/83 352/3/83 356/3/83
f 351/4/22 407/4/22 409/4/22 353/4/22
f 353/4/23 409/4/23 408/4/23 355/4/23
f 355/4/24 408/4/24 404/4/24 405/4/24
f 403/4/25 410/4/25 362/4/25 406/4/25
f 362/4/26 410/4/26 411/4/26 363/4/26
f 363/4/27 411/4/27 407/4/27 351/4/27
f 405/4/83 406/4/83 362/4/83 363/4/83 351/4/83 353/4/83 355/4/83
f 641/5/84 643/5/84 534/5/84 412/5/84
f 416/1/11 424/1/11 423/1/11 386/1/11
f 413/5/2 532/5/2 218/5/2 73/5/2
f 530/1/85 414/1/85 422/1/85 531/1/85
f 263/1/24 264/1/24 576/1/24 525/1/24
f 416/1/24 422/1/24 84/1/24 75/1/24
f 10/1/86 86/1/86 531/1/86 386/1/86
f 386/1/87 531/1/87 422/1/87 416/1/87
f 75/1/2 89/1/2 424/1/2 416/1/2
f 386/1/9 423/1/9 87/1/9 10/1/9
f 7/1/25 91/1/25 425/1/25 387/1/25
f 387/1/25 425/1/25 426/1/25 421/1/25
f 421/1/25 426/1/25 94/1/25 43/1/25
f 43/1/9 96/1/9 428/1/9 421/1/9
f 387/1/2 427/1/2 95/1/2 7/1/2
f 18/1/2 105/1/2 433/1/2 390/1/2
f 390/1/2 433/1/2 429/1/2 359/1/2
f 490/6/25 489/6/25 499/6/25 500/6/25
f 487/6/25 486/6/25 496/6/25 497/6/25
f 483/6/88 484/6/25 494/6/25 493/6/88
f 491/6/25 490/6/25 500/6/25 501/6/25
f 488/6/25 487/6/25 497/6/25 498/6/25
f 485/6/25 483/6/88 493/6/88 495/6/25
f 492/6/25 491/6/25 501/6/25 502/6/25
f 489/6/25 488/6/25 498/6/25 499/6/25
f 486/6/25 485/6/25 495/6/25 496/6/25
f 484/6/25 492/6/25 502/6/25 494/6/25
f 514/6/25 522/6/25 521/6/25 520/6/25 519/6/25 518/6/25 517/6/25 516/6/25 515/6/25 513/6/25
f 499/6/38 519/6/38 520/6/38 500/6/38
f 502/6/43 522/6/43 514/6/43 494/6/43
f 490/6/41 510/6/41 509/6/41 489/6/41
f 491/6/20 511/6/20 510/6/20 490/6/20
f 483/6/40 503/6/40 504/6/40 484/6/40
f 492/6/34 512/6/34 511/6/34 491/6/34
f 485/6/38 505/6/38 503/6/38 483/6/38
f 498/6/42 518/6/42 519/6/42 499/6/42
f 484/6/37 504/6/37 512/6/37 492/6/37
f 486/6/11 506/6/11 505/6/11 485/6/11
f 501/6/89 521/6/89 522/6/89 502/6/89
f 500/6/11 520/6/11 521/6/11 501/6/11
f 487/6/36 507/6/36 506/6/36 486/6/36
f 493/6/41 513/6/41 515/6/41 495/6/41
f 497/6/37 517/6/37 518/6/37 498/6/37
f 488/6/43 508/6/43 507/6/43 487/6/43
f 494/6/35 514/6/35 513/6/35 493/6/35
f 496/6/34 516/6/34 517/6/34 497/6/34
f 489/6/35 509/6/35 508/6/35 488/6/35
f 495/6/20 515/6/20 516/6/20 496/6/20
f 333/1/25 644/1/25 420/1/25 9/1/25
f 637/1/90 418/1/90 420/1/90 644/1/90
f 526/1/91 530/1/91 528/1/91 524/1/91
f 524/1/92 528/1/92 529/1/93 575/1/93
f 523/1/94 422/1/94 414/1/95 527/1/95
f 575/1/93 529/1/93 214/1/51 208/1/51
f 527/1/96 414/1/96 530/1/96 526/1/96
f 205/1/53 84/1/53 422/1/94 523/1/94
f 413/5/97 529/5/97 528/5/98 412/5/98
f 641/5/98 530/5/98 415/5/98
f 415/5/98 530/5/98 531/5/99 417/5/99
f 73/5/24 214/5/24 529/5/97 413/5/97
f 417/5/99 531/5/99 86/5/24 215/5/24
f 643/5/100 642/5/97 532/5/97 534/5/100
f 642/5/97 336/5/24 218/5/24 532/5/97
f 215/5/101 219/5/101 533/5/102 417/5/102
f 417/5/102 533/5/102 535/5/103 415/5/103
f 412/5/2 534/5/2 532/5/2 413/5/2
f 17/1/9 260/1/9 574/1/9 435/1/9
f 435/1/9 574/1/9 575/1/9 525/1/9
f 525/1/9 575/1/9 208/1/9 263/1/9
f 435/1/63 576/1/63 264/1/63 17/1/63
f 525/1/11 576/1/11 435/1/11
f 91/1/64 269/1/64 578/1/64 425/1/64
f 269/1/2 268/1/2 577/1/2 578/1/2
f 359/1/104 403/1/104 406/1/104 405/1/104 404/1/104 354/1/104 578/1/104 577/1/104 390/1/104
f 579/1/9 418/1/9 439/1/9 442/1/9
f 579/1/9 442/1/9 15/1/9 271/1/9
f 533/5/105 219/5/24 336/5/24 642/5/97
f 535/5/98 533/5/105 642/5/97 643/5/100
f 412/5/98 528/5/98 530/5/98 641/5/98
f 419/1/106 637/1/106 644/1/106 426/1/106
f 94/1/25 426/1/25 644/1/25 333/1/25
f 415/5/84 535/5/84 643/5/84 641/5/84
f 419/1/67 384/1/67 639/1/67 637/1/67
f 385/1/67 526/1/67 638/1/67
usemtl body_white.002
f 52/1/107 21/1/107 138/1/107 132/1/107
f 107/7/108 49/7/109 133/7/109 129/7/108
f 119/7/110 120/7/110 139/7/110 140/7/110
f 99/7/111 102/7/111 45/7/18 11/7/18
f 48/7/112 118/7/112 127/7/112 131/7/112
f 13/7/113 48/7/113 131/7/113 137/7/113
f 88/7/24 87/7/24 89/7/24 90/7/24
f 95/7/25 96/7/25 98/7/25 97/7/25
f 114/7/114 116/7/114 104/7/114 339/7/114
f 12/7/111 44/7/111 102/7/111 99/7/111
f 116/7/114 25/7/114 106/7/114 104/7/114
f 331/7/1 113/7/1 100/7/1 332/7/1
f 115/1/107 52/1/107 132/1/107 128/1/107
f 49/7/115 107/7/115 260/7/115 261/7/115
f 53/7/115 23/7/115 340/7/115 341/7/115
f 14/7/115 49/7/115 261/7/115 111/7/115
f 23/7/116 14/7/116 111/7/116 340/7/116
f 112/7/115 53/7/115 341/7/115 342/7/115
f 13/7/117 21/7/117 114/7/117 113/7/117
f 52/7/118 115/7/118 25/7/118 116/7/118
f 48/7/118 13/7/119 113/7/119 117/7/118
f 118/7/118 48/7/118 117/7/118 15/7/118
f 21/7/118 52/7/118 116/7/118 114/7/118
f 100/7/120 113/7/120 120/7/120 119/7/120
f 113/7/121 114/7/121 121/7/121 120/7/121
f 114/7/122 339/7/122 122/7/122 121/7/122
f 339/7/123 100/7/123 119/7/123 122/7/123
f 111/7/120 100/7/120 124/7/120 123/7/120
f 100/7/123 339/7/123 125/7/123 124/7/123
f 339/7/120 340/7/120 126/7/120 125/7/120
f 340/7/123 111/7/123 123/7/123 126/7/123
f 123/7/110 124/7/110 143/7/110 144/7/110
f 122/7/25 119/7/25 140/7/25 141/7/25
f 23/7/124 53/7/124 134/7/124 135/7/124
f 126/7/125 123/7/125 144/7/125 145/7/125
f 120/7/126 121/7/126 142/7/126 139/7/126
f 49/7/109 14/7/109 136/7/109 133/7/109
f 124/7/24 125/7/24 146/7/24 143/7/24
f 121/7/127 122/7/127 141/7/127 142/7/127
f 14/1/128 23/1/128 135/1/128 136/1/128
f 125/7/129 126/7/129 145/7/129 146/7/129
f 21/7/130 13/7/130 137/7/130 138/7/130
f 53/7/124 112/7/124 130/7/124 134/7/124
f 148/7/24 147/7/24 162/7/24 161/7/24
f 159/7/131 160/7/131 161/7/131 162/7/131
f 150/7/25 149/7/25 160/7/25 159/7/25
f 330/7/1 45/7/1 102/7/1 332/7/1
f 151/7/25 152/7/25 156/7/25 155/7/25
f 155/7/131 156/7/131 157/7/131 158/7/131
f 153/7/24 154/7/24 158/7/24 157/7/24
f 154/7/132 151/7/132 155/7/132 158/7/132
f 152/7/133 153/7/133 157/7/133 156/7/133
f 147/7/134 150/7/134 159/7/134 162/7/134
f 149/7/133 148/7/133 161/7/133 160/7/133
f 111/7/1 330/7/1 332/7/1 100/7/1
f 44/7/1 331/7/1 332/7/1 102/7/1
f 101/7/9 109/7/9 340/7/9 339/7/9
f 109/7/9 110/7/9 341/7/9 340/7/9
f 110/7/9 26/7/9 342/7/9 341/7/9
f 343/7/9 101/7/9 339/7/9 104/7/9
f 344/7/9 343/7/9 104/7/9 106/7/9
f 345/7/9 347/7/9 348/7/9 346/7/9
f 343/7/135 344/7/135 347/7/135 345/7/135
f 26/7/136 110/7/136 346/7/136 348/7/136
f 392/1/107 452/1/107 458/1/107 364/1/107
f 107/7/108 129/7/108 453/7/108 389/7/108
f 443/7/137 460/7/137 459/7/137 444/7/137
f 429/7/138 358/7/80 385/7/80 432/7/138
f 388/7/112 451/7/112 127/7/112 118/7/112
f 360/7/139 457/7/139 451/7/139 388/7/139
f 423/7/24 424/7/24 89/7/24 87/7/24
f 95/7/25 427/7/25 428/7/25 96/7/25
f 440/7/114 645/7/114 434/7/114 441/7/114
f 359/7/138 429/7/138 432/7/138 384/7/138
f 441/7/114 434/7/114 106/7/114 25/7/114
f 639/7/67 640/7/67 430/7/67 439/7/67
f 115/1/107 128/1/107 452/1/107 392/1/107
f 389/7/115 574/7/115 260/7/115 107/7/115
f 393/7/115 647/7/115 646/7/115 366/7/115
f 361/7/115 438/7/115 574/7/115 389/7/115
f 366/7/116 646/7/116 438/7/116 361/7/116
f 112/7/115 342/7/115 647/7/115 393/7/115
f 360/7/117 439/7/117 440/7/117 364/7/117
f 392/7/118 441/7/118 25/7/118 115/7/118
f 388/7/118 442/7/118 439/7/118 360/7/118
f 118/7/118 15/7/118 442/7/118 388/7/118
f 364/7/118 440/7/118 441/7/118 392/7/118
f 430/7/140 443/7/140 444/7/140 439/7/140
f 439/7/141 444/7/141 445/7/141 440/7/141
f 440/7/142 445/7/142 446/7/142 645/7/142
f 645/7/143 446/7/143 443/7/143 430/7/143
f 438/7/140 447/7/140 448/7/140 430/7/140
f 430/7/143 448/7/143 449/7/143 645/7/143
f 645/7/140 449/7/140 450/7/140 646/7/140
f 646/7/144 450/7/144 447/7/144 438/7/144
f 447/7/137 464/7/137 463/7/137 448/7/137
f 446/7/25 461/7/25 460/7/25 443/7/25
f 366/7/124 455/7/124 454/7/124 393/7/124
f 450/7/145 465/7/145 464/7/145 447/7/145
f 444/7/146 459/7/146 462/7/146 445/7/146
f 389/7/108 453/7/108 456/7/108 361/7/108
f 448/7/24 463/7/24 466/7/24 449/7/24
f 445/7/147 462/7/147 461/7/147 446/7/147
f 361/1/148 456/1/148 455/1/148 366/1/148
f 449/7/149 466/7/149 465/7/149 450/7/149
f 364/7/150 458/7/150 457/7/150 360/7/150
f 393/7/124 454/7/124 130/7/124 112/7/124
f 468/1/24 481/1/24 482/1/24 467/1/24
f 479/1/151 482/1/151 481/1/151 480/1/151
f 470/1/25 479/1/25 480/1/25 469/1/25
f 638/7/67 640/7/67 432/7/67 385/7/67
f 471/1/25 475/1/25 476/1/25 472/1/25
f 475/1/151 478/1/151 477/1/151 476/1/151
f 473/1/24 477/1/24 478/1/24 474/1/24
f 474/1/152 478/1/152 475/1/152 471/1/152
f 472/1/153 476/1/153 477/1/153 473/1/153
f 467/1/152 482/1/152 479/1/152 470/1/152
f 469/1/153 480/1/153 481/1/153 468/1/153
f 438/7/67 430/7/67 640/7/67 638/7/67
f 384/7/67 432/7/67 640/7/67 639/7/67
f 431/7/9 645/7/9 646/7/9 436/7/9
f 436/7/9 646/7/9 647/7/9 437/7/9
f 437/7/9 647/7/9 342/7/9 26/7/9
f 648/7/9 434/7/9 645/7/9 431/7/9
f 344/7/9 106/7/9 434/7/9 648/7/9
f 649/7/9 650/7/9 348/7/9 347/7/9
f 648/7/135 649/7/135 347/7/135 344/7/135
f 26/7/136 348/7/136 650/7/136 437/7/136
usemtl windows.002
f 36/8/154 38/8/154 34/8/154 33/8/154
f 27/8/155 28/8/155 38/8/155 36/8/155
f 140/9/156 139/9/156 142/9/156 141/9/156
f 131/9/157 127/9/158 128/9/158 132/9/159
f 133/9/160 136/9/160 135/9/160 134/9/160
f 129/9/160 133/9/160 134/9/160 130/9/160
f 137/9/161 131/9/157 132/9/159 138/9/161
f 144/9/162 143/9/162 146/9/162 145/9/162
f 377/8/163 374/8/163 375/8/163 379/8/163
f 368/8/164 377/8/164 379/8/164 369/8/164
f 460/9/165 461/9/165 462/9/165 459/9/165
f 451/9/166 452/9/167 128/9/158 127/9/158
f 453/9/160 454/9/160 455/9/160 456/9/160
f 129/9/160 130/9/160 454/9/160 453/9/160
f 457/9/168 458/9/168 452/9/167 451/9/166
f 464/9/169 465/9/169 466/9/169 463/9/169
usemtl headlights.002
f 230/10/170 223/10/170 225/10/170
f 223/10/171 222/10/171 224/10/171 225/10/171
f 225/10/172 224/10/172 226/10/172 227/10/172
f 230/10/173 225/10/173 227/10/173
f 227/10/174 226/10/174 228/10/174 229/10/174
f 230/10/175 227/10/175 229/10/175
f 229/10/176 228/10/176 231/10/176 232/10/176
f 230/10/177 229/10/177 232/10/177
f 232/10/178 231/10/178 233/10/178 234/10/178
f 230/10/179 232/10/179 234/10/179
f 234/10/180 233/10/180 222/10/180 223/10/180
f 230/10/181 234/10/181 223/10/181
f 233/10/182 239/10/182 240/10/182 222/10/182
f 231/10/11 238/10/11 239/10/11 233/10/11
f 228/10/183 237/10/183 238/10/183 231/10/183
f 226/10/184 236/10/184 237/10/184 228/10/184
f 224/10/20 235/10/20 236/10/20 226/10/20
f 222/10/185 240/10/185 235/10/185 224/10/185
f 249/10/170 242/10/170 244/10/170
f 242/10/171 241/10/171 243/10/171 244/10/171
f 244/10/172 243/10/172 245/10/172 246/10/172
f 249/10/173 244/10/173 246/10/173
f 246/10/174 245/10/174 247/10/174 248/10/174
f 249/10/175 246/10/175 248/10/175
f 248/10/186 247/10/186 250/10/186 251/10/186
f 249/10/177 248/10/177 251/10/177
f 251/10/178 250/10/178 252/10/178 253/10/178
f 249/10/179 251/10/179 253/10/179
f 253/10/180 252/10/180 241/10/180 242/10/180
f 249/10/187 253/10/187 242/10/187
f 252/10/182 258/10/182 259/10/182 241/10/182
f 250/10/11 257/10/11 258/10/11 252/10/11
f 247/10/183 256/10/183 257/10/183 250/10/183
f 245/10/184 255/10/184 256/10/184 247/10/184
f 243/10/20 254/10/20 255/10/20 245/10/20
f 241/10/185 259/10/185 254/10/185 243/10/185
f 544/10/187 539/10/187 537/10/187
f 537/10/180 539/10/180 538/10/180 536/10/180
f 539/10/178 541/10/178 540/10/178 538/10/178
f 544/10/179 541/10/179 539/10/179
f 541/10/176 543/10/176 542/10/176 540/10/176
f 544/10/188 543/10/188 541/10/188
f 543/10/174 546/10/174 545/10/174 542/10/174
f 544/10/189 546/10/189 543/10/189
f 546/10/172 548/10/172 547/10/172 545/10/172
f 544/10/173 548/10/173 546/10/173
f 548/10/171 537/10/171 536/10/171 547/10/171
f 544/10/170 537/10/170 548/10/170
f 547/10/185 536/10/185 554/10/185 553/10/185
f 545/10/20 547/10/20 553/10/20 552/10/20
f 542/10/184 545/10/184 552/10/184 551/10/184
f 540/10/183 542/10/183 551/10/183 550/10/183
f 538/10/11 540/10/11 550/10/11 549/10/11
f 536/10/190 538/10/190 549/10/190 554/10/190
f 563/10/191 558/10/191 556/10/191
f 556/10/180 558/10/180 557/10/180 555/10/180
f 558/10/178 560/10/178 559/10/178 557/10/178
f 563/10/179 560/10/179 558/10/179
f 560/10/176 562/10/176 561/10/176 559/10/176
f 563/10/192 562/10/192 560/10/192
f 562/10/174 565/10/174 564/10/174 561/10/174
f 563/10/175 565/10/175 562/10/175
f 565/10/172 567/10/172 566/10/172 564/10/172
f 563/10/173 567/10/173 565/10/173
f 567/10/171 556/10/171 555/10/171 566/10/171
f 563/10/170 556/10/170 567/10/170
f 566/10/185 555/10/185 573/10/185 572/10/185
f 564/10/20 566/10/20 572/10/20 571/10/20
f 561/10/184 564/10/184 571/10/184 570/10/184
f 559/10/183 561/10/183 570/10/183 569/10/183
f 557/10/11 559/10/11 569/10/11 568/10/11
f 555/10/182 557/10/182 568/10/182 573/10/182
usemtl rear_lights.002
f 280/11/193 273/11/193 275/11/193
f 273/11/194 272/11/194 274/11/194 275/11/194
f 275/11/195 274/11/195 276/11/195 277/11/195
f 280/11/196 275/11/196 277/11/196
f 277/11/197 276/11/197 278/11/197 279/11/197
f 280/11/198 277/11/198 279/11/198
f 279/11/199 278/11/199 281/11/199 282/11/199
f 280/11/200 279/11/200 282/11/200
f 282/11/201 281/11/201 283/11/201 284/11/201
f 280/11/202 282/11/202 284/11/202
f 284/11/203 283/11/203 272/11/203 273/11/203
f 280/11/204 284/11/204 273/11/204
f 283/11/185 289/11/185 290/11/185 272/11/185
f 281/11/20 288/11/20 289/11/20 283/11/20
f 278/11/184 287/11/184 288/11/184 281/11/184
f 276/11/183 286/11/183 287/11/183 278/11/183
f 274/11/11 285/11/11 286/11/11 276/11/11
f 272/11/182 290/11/182 285/11/182 274/11/182
f 299/11/205 292/11/205 294/11/205
f 292/11/194 291/11/194 293/11/194 294/11/194
f 294/11/195 293/11/195 295/11/195 296/11/195
f 299/11/196 294/11/196 296/11/196
f 296/11/197 295/11/197 297/11/197 298/11/197
f 299/11/198 296/11/198 298/11/198
f 298/11/199 297/11/199 300/11/199 301/11/199
f 299/11/200 298/11/200 301/11/200
f 301/11/201 300/11/201 302/11/201 303/11/201
f 299/11/202 301/11/202 303/11/202
f 303/11/203 302/11/203 291/11/203 292/11/203
f 299/11/206 303/11/206 292/11/206
f 302/11/185 308/11/185 309/11/185 291/11/185
f 300/11/20 307/11/20 308/11/20 302/11/20
f 297/11/184 306/11/184 307/11/184 300/11/184
f 295/11/183 305/11/183 306/11/183 297/11/183
f 293/11/11 304/11/11 305/11/11 295/11/11
f 291/11/182 309/11/182 304/11/182 293/11/182
f 318/11/193 311/11/193 313/11/193
f 311/11/194 310/11/194 312/11/194 313/11/194
f 313/11/195 312/11/195 314/11/195 315/11/195
f 318/11/196 313/11/196 315/11/196
f 315/11/197 314/11/197 316/11/197 317/11/197
f 318/11/198 315/11/198 317/11/198
f 317/11/199 316/11/199 319/11/199 320/11/199
f 318/11/200 317/11/200 320/11/200
f 320/11/201 319/11/201 321/11/201 322/11/201
f 318/11/202 320/11/202 322/11/202
f 322/11/203 321/11/203 310/11/203 311/11/203
f 318/11/204 322/11/204 311/11/204
f 321/11/185 327/11/185 328/11/185 310/11/185
f 319/11/20 326/11/20 327/11/20 321/11/20
f 316/11/184 325/11/184 326/11/184 319/11/184
f 314/11/183 324/11/183 325/11/183 316/11/183
f 312/11/11 323/11/11 324/11/11 314/11/11
f 310/11/182 328/11/182 323/11/182 312/11/182
f 588/11/206 583/11/206 581/11/206
f 581/11/207 583/11/207 582/11/207 580/11/207
f 583/11/201 585/11/201 584/11/201 582/11/201
f 588/11/202 585/11/202 583/11/202
f 585/11/199 587/11/199 586/11/199 584/11/199
f 588/11/200 587/11/200 585/11/200
f 587/11/197 590/11/197 589/11/197 586/11/197
f 588/11/198 590/11/198 587/11/198
f 590/11/195 592/11/195 591/11/195 589/11/195
f 588/11/196 592/11/196 590/11/196
f 592/11/208 581/11/208 580/11/208 591/11/208
f 588/11/205 581/11/205 592/11/205
f 591/11/182 580/11/182 598/11/182 597/11/182
f 589/11/11 591/11/11 597/11/11 596/11/11
f 586/11/183 589/11/183 596/11/183 595/11/183
f 584/11/184 586/11/184 595/11/184 594/11/184
f 582/11/20 584/11/20 594/11/20 593/11/20
f 580/11/185 582/11/185 593/11/185 598/11/185
f 607/11/206 602/11/206 600/11/206
f 600/11/203 602/11/203 601/11/203 599/11/203
f 602/11/201 604/11/201 603/11/201 601/11/201
f 607/11/209 604/11/209 602/11/209
f 604/11/199 606/11/199 605/11/199 603/11/199
f 607/11/200 606/11/200 604/11/200
f 606/11/197 609/11/197 608/11/197 605/11/197
f 607/11/198 609/11/198 606/11/198
f 609/11/195 611/11/195 610/11/195 608/11/195
f 607/11/196 611/11/196 609/11/196
f 611/11/194 600/11/194 599/11/194 610/11/194
f 607/11/205 600/11/205 611/11/205
f 610/11/182 599/11/182 617/11/182 616/11/182
f 608/11/11 610/11/11 616/11/11 615/11/11
f 605/11/183 608/11/183 615/11/183 614/11/183
f 603/11/184 605/11/184 614/11/184 613/11/184
f 601/11/20 603/11/20 613/11/20 612/11/20
f 599/11/185 601/11/185 612/11/185 617/11/185
f 626/11/206 621/11/206 619/11/206
f 619/11/203 621/11/203 620/11/203 618/11/203
f 621/11/201 623/11/201 622/11/201 620/11/201
f 626/11/202 623/11/202 621/11/202
f 623/11/199 625/11/199 624/11/199 622/11/199
f 626/11/200 625/11/200 623/11/200
f 625/11/197 628/11/197 627/11/197 624/11/197
f 626/11/198 628/11/198 625/11/198
f 628/11/195 630/11/195 629/11/195 627/11/195
f 626/11/196 630/11/196 628/11/196
f 630/11/208 619/11/208 618/11/208 629/11/208
f 626/11/205 619/11/205 630/11/205
f 629/11/182 618/11/182 636/11/182 635/11/182
f 627/11/11 629/11/11 635/11/11 634/11/11
f 624/11/183 627/11/183 634/11/183 633/11/183
f 622/11/184 624/11/184 633/11/184 632/11/184
f 620/11/20 622/11/20 632/11/20 631/11/20
f 618/11/185 620/11/185 631/11/185 636/11/185
usemtl flashers_siren_red
f 110/12/136 109/12/136 350/12/136 346/12/136
f 101/12/135 343/12/135 345/12/135 349/12/135
f 349/12/9 345/12/9 346/12/9 350/12/9
f 109/12/20 101/12/20 349/12/20 350/12/20
usemtl flashers_siren_blue
f 437/13/136 650/13/136 652/13/136 436/13/136
f 431/13/135 651/13/135 649/13/135 648/13/135
f 651/13/9 652/13/9 650/13/9 649/13/9
f 436/13/11 652/13/11 651/13/11 431/13/11
usemtl wheels.002
f 668/14/210 666/14/210 665/14/210 667/14/210
f 683/15/211 684/15/211 714/15/211 713/15/211
f 656/14/212 654/14/212 653/14/212 655/14/212
f 664/14/213 662/14/213 697/14/214 698/14/214
f 672/14/215 670/14/215 669/14/215 671/14/215
f 666/14/216 664/14/216 663/14/216 665/14/216
f 687/15/217 697/15/217 705/15/217 717/15/217
f 690/15/217 689/15/217 719/15/217 720/15/217
f 696/15/211 686/15/211 716/15/211 706/15/211
f 713/15/20 714/15/20 722/15/20 721/15/20 720/15/20 719/15/20 718/15/20 717/15/20 716/15/20 715/15/20
f 713/15/20 715/15/20 703/15/20 704/15/20
f 716/15/20 717/15/20 705/15/20 706/15/20
f 718/15/20 719/15/20 707/15/20 708/15/20
f 720/15/20 721/15/20 709/15/20 710/15/20
f 722/15/20 714/15/20 711/15/20 712/15/20
f 698/15/25 688/15/25 718/15/25 708/15/25
f 692/15/218 691/15/218 721/15/218 722/15/218
f 689/15/218 699/15/218 707/15/218 719/15/218
f 670/14/219 668/14/219 667/14/219 669/14/219
f 686/15/25 685/15/25 715/15/25 716/15/25
f 700/15/220 690/15/220 720/15/220 710/15/220
f 684/15/25 694/15/25 711/15/25 714/15/25
f 691/15/211 701/15/211 709/15/211 721/15/211
f 693/15/221 683/15/221 713/15/221 704/15/221
f 688/15/220 687/15/220 717/15/220 718/15/220
f 702/15/217 692/15/217 722/15/217 712/15/217
f 685/15/220 695/15/220 703/15/220 715/15/220
f 698/14/214 697/14/214 661/14/222 663/14/222
f 697/14/223 696/14/223 659/14/223 661/14/223
f 697/14/218 662/14/218 660/14/218 706/14/218 705/14/218
f 706/14/224 660/14/224 658/14/224 657/14/224 659/14/224 696/14/224
f 658/14/225 656/14/225 655/14/225 657/14/225
f 654/14/226 672/14/226 671/14/226 653/14/226
f 693/15/11 695/15/11 685/15/11 683/15/11
f 697/15/11 687/15/11 686/15/11 696/15/11
f 698/15/11 699/15/11 689/15/11 688/15/11
f 700/15/11 701/15/11 691/15/11 690/15/11
f 694/15/11 684/15/11 692/15/11 702/15/11
f 684/15/11 683/15/11 685/15/11 686/15/11 687/15/11 688/15/11 689/15/11 690/15/11 691/15/11 692/15/11
f 748/14/230 747/14/230 745/14/230 746/14/230
f 763/15/211 793/15/211 794/15/211 764/15/211
f 736/14/231 735/14/231 733/14/231 734/14/231
f 744/14/213 778/14/232 777/14/232 742/14/213
f 752/14/233 751/14/233 749/14/233 750/14/233
f 746/14/234 745/14/234 743/14/234 744/14/234
f 767/15/217 797/15/217 785/15/217 777/15/217
f 770/15/217 800/15/217 799/15/217 769/15/217
f 776/15/211 786/15/211 796/15/211 766/15/211
f 793/15/11 795/15/11 796/15/11 797/15/11 798/15/11 799/15/11 800/15/11 801/15/11 802/15/11 794/15/11
f 793/15/11 784/15/11 783/15/11 795/15/11
f 796/15/11 786/15/11 785/15/11 797/15/11
f 798/15/11 788/15/11 787/15/11 799/15/11
f 800/15/11 790/15/11 789/15/11 801/15/11
f 802/15/11 792/15/11 791/15/11 794/15/11
f 778/15/25 788/15/25 798/15/25 768/15/25
f 772/15/218 802/15/218 801/15/218 771/15/218
f 769/15/218 799/15/218 787/15/218 779/15/218
f 750/14/235 749/14/235 747/14/235 748/14/235
f 766/15/25 796/15/25 795/15/25 765/15/25
f 780/15/220 790/15/220 800/15/220 770/15/220
f 764/15/25 794/15/25 791/15/25 774/15/25
f 771/15/211 801/15/211 789/15/211 781/15/211
f 773/15/221 784/15/221 793/15/221 763/15/221
f 768/15/220 798/15/220 797/15/220 767/15/220
f 782/15/217 792/15/217 802/15/217 772/15/217
f 765/15/220 795/15/220 783/15/220 775/15/220
f 778/14/232 743/14/236 741/14/236 777/14/232
f 777/14/237 741/14/237 739/14/237 776/14/237
f 777/14/221 785/14/221 786/14/221 740/14/221 742/14/221
f 786/14/238 776/14/238 739/14/238 737/14/238 738/14/238 740/14/238
f 738/14/239 737/14/239 735/14/239 736/14/239
f 734/14/240 733/14/240 751/14/240 752/14/240
f 773/15/20 763/15/20 765/15/20 775/15/20
f 777/15/20 776/15/20 766/15/20 767/15/20
f 778/15/20 768/15/20 769/15/20 779/15/20
f 780/15/20 770/15/20 771/15/20 781/15/20
f 774/15/20 782/15/20 772/15/20 764/15/20
f 764/15/20 772/15/20 771/15/20 770/15/20 769/15/20 768/15/20 767/15/20 766/15/20 765/15/20 763/15/20
f 828/14/241 827/14/241 825/14/241 826/14/241
f 843/15/213 873/15/213 874/15/213 844/15/213
f 816/14/226 815/14/226 813/14/226 814/14/226
f 824/14/211 858/14/242 857/14/242 822/14/211
f 832/14/225 831/14/225 829/14/225 830/14/225
f 826/14/243 825/14/243 823/14/243 824/14/243
f 847/15/228 877/15/228 865/15/228 857/15/228
f 850/15/244 880/15/244 879/15/244 849/15/244
f 856/15/213 866/15/213 876/15/213 846/15/213
f 873/15/20 875/15/20 876/15/20 877/15/20 878/15/20 879/15/20 880/15/20 881/15/20 882/15/20 874/15/20
f 873/15/20 864/15/20 863/15/20 875/15/20
f 876/15/20 866/15/20 865/15/20 877/15/20
f 878/15/20 868/15/20 867/15/20 879/15/20
f 880/15/20 870/15/20 869/15/20 881/15/20
f 882/15/20 872/15/20 871/15/20 874/15/20
f 858/15/24 868/15/24 878/15/24 848/15/24
f 852/15/227 882/15/227 881/15/227 851/15/227
f 849/15/227 879/15/227 867/15/227 859/15/227
f 830/14/245 829/14/245 827/14/245 828/14/245
f 846/15/24 876/15/24 875/15/24 845/15/24
f 860/15/229 870/15/229 880/15/229 850/15/229
f 844/15/24 874/15/24 871/15/24 854/15/24
f 851/15/213 881/15/213 869/15/213 861/15/213
f 853/15/227 864/15/227 873/15/227 843/15/227
f 848/15/229 878/15/229 877/15/229 847/15/229
f 862/15/228 872/15/228 882/15/228 852/15/228
f 845/15/229 875/15/229 863/15/229 855/15/229
f 858/14/242 823/14/246 821/14/246 857/14/242
f 857/14/247 821/14/247 819/14/247 856/14/247
f 857/14/227 865/14/227 866/14/227 820/14/227 822/14/227
f 866/14/248 856/14/248 819/14/248 817/14/248 818/14/248 820/14/248
f 818/14/249 817/14/249 815/14/249 816/14/249
f 814/14/212 813/14/212 831/14/212 832/14/212
f 858/15/11 848/15/11 849/15/11 859/15/11
f 860/15/11 850/15/11 851/15/11 861/15/11
f 854/15/11 862/15/11 852/15/11 844/15/11
f 853/15/11 843/15/11 845/15/11 855/15/11
f 857/15/11 856/15/11 846/15/11 847/15/11
f 844/15/11 852/15/11 851/15/11 850/15/11 849/15/11 848/15/11 847/15/11 846/15/11 845/15/11 843/15/11
f 908/14/250 906/14/250 905/14/250 907/14/250
f 923/15/213 924/15/213 954/15/213 953/15/213
f 896/14/240 894/14/240 893/14/240 895/14/240
f 904/14/211 902/14/211 937/14/251 938/14/251
f 912/14/239 910/14/239 909/14/239 911/14/239
f 906/14/252 904/14/252 903/14/252 905/14/252
f 927/15/228 937/15/228 945/15/228 957/15/228
f 930/15/244 929/15/244 959/15/244 960/15/244
f 936/15/213 926/15/213 956/15/213 946/15/213
f 953/15/11 954/15/11 962/15/11 961/15/11 960/15/11 959/15/11 958/15/11 957/15/11 956/15/11 955/15/11
f 953/15/11 955/15/11 943/15/11 944/15/11
f 956/15/11 957/15/11 945/15/11 946/15/11
f 958/15/11 959/15/11 947/15/11 948/15/11
f 960/15/11 961/15/11 949/15/11 950/15/11
f 962/15/11 954/15/11 951/15/11 952/15/11
f 938/15/24 928/15/24 958/15/24 948/15/24
f 932/15/227 931/15/227 961/15/227 962/15/227
f 929/15/227 939/15/227 947/15/227 959/15/227
f 910/14/253 908/14/253 907/14/253 909/14/253
f 926/15/24 925/15/24 955/15/24 956/15/24
f 940/15/229 930/15/229 960/15/229 950/15/229
f 924/15/24 934/15/24 951/15/24 954/15/24
f 931/15/213 941/15/213 949/15/213 961/15/213
f 933/15/227 923/15/227 953/15/227 944/15/227
f 928/15/229 927/15/229 957/15/229 958/15/229
f 942/15/244 932/15/244 962/15/244 952/15/244
f 925/15/229 935/15/229 943/15/229 955/15/229
f 938/14/251 937/14/251 901/14/254 903/14/254
f 937/14/255 936/14/255 899/14/255 901/14/255
f 937/14/227 902/14/227 900/14/227 946/14/227 945/14/227
f 946/14/256 900/14/256 898/14/256 897/14/256 899/14/256 936/14/256
f 898/14/233 896/14/233 895/14/233 897/14/233
f 894/14/231 912/14/231 911/14/231 893/14/231
f 938/15/20 939/15/20 929/15/20 928/15/20
f 940/15/20 941/15/20 931/15/20 930/15/20
f 934/15/20 924/15/20 932/15/20 942/15/20
f 933/15/20 935/15/20 925/15/20 923/15/20
f 937/15/20 927/15/20 926/15/20 936/15/20
f 924/15/20 923/15/20 925/15/20 926/15/20 927/15/20 928/15/20 929/15/20 930/15/20 931/15/20 932/15/20
usemtl tires.002
f 723/16/211 674/16/211 673/16/211 724/16/211
f 724/16/227 673/16/227 675/16/227 725/16/227
f 725/16/25 675/16/25 676/16/25 726/16/25
f 726/16/228 676/16/228 677/16/228 727/16/228
f 727/16/220 677/16/220 678/16/220 728/16/220
f 728/16/229 678/16/229 679/16/229 729/16/229
f 729/16/217 679/16/217 680/16/217 730/16/217
f 730/16/24 680/16/24 681/16/24 731/16/24
f 731/16/218 681/16/218 682/16/218 732/16/218
f 732/16/213 682/16/213 674/16/213 723/16/213
f 654/16/20 656/16/20 673/16/20 674/16/20
f 656/16/20 658/16/20 675/16/20 673/16/20
f 658/16/20 660/16/20 676/16/20 675/16/20
f 660/16/20 662/16/20 677/16/20 676/16/20
f 662/16/20 664/16/20 678/16/20 677/16/20
f 664/16/20 666/16/20 679/16/20 678/16/20
f 666/16/20 668/16/20 680/16/20 679/16/20
f 668/16/20 670/16/20 681/16/20 680/16/20
f 670/16/20 672/16/20 682/16/20 681/16/20
f 672/16/20 654/16/20 674/16/20 682/16/20
f 655/16/11 653/16/11 723/16/11 724/16/11
f 657/16/11 655/16/11 724/16/11 725/16/11
f 659/16/11 657/16/11 725/16/11 726/16/11
f 661/16/11 659/16/11 726/16/11 727/16/11
f 663/16/11 661/16/11 727/16/11 728/16/11
f 665/16/11 663/16/11 728/16/11 729/16/11
f 667/16/11 665/16/11 729/16/11 730/16/11
f 669/16/11 667/16/11 730/16/11 731/16/11
f 671/16/11 669/16/11 731/16/11 732/16/11
f 653/16/11 671/16/11 732/16/11 723/16/11
f 803/16/211 804/16/211 753/16/211 754/16/211
f 804/16/227 805/16/227 755/16/227 753/16/227
f 805/16/25 806/16/25 756/16/25 755/16/25
f 806/16/228 807/16/228 757/16/228 756/16/228
f 807/16/220 808/16/220 758/16/220 757/16/220
f 808/16/229 809/16/229 759/16/229 758/16/229
f 809/16/217 810/16/217 760/16/217 759/16/217
f 810/16/24 811/16/24 761/16/24 760/16/24
f 811/16/218 812/16/218 762/16/218 761/16/218
f 812/16/213 803/16/213 754/16/213 762/16/213
f 734/16/11 754/16/11 753/16/11 736/16/11
f 736/16/11 753/16/11 755/16/11 738/16/11
f 738/16/11 755/16/11 756/16/11 740/16/11
f 740/16/11 756/16/11 757/16/11 742/16/11
f 742/16/11 757/16/11 758/16/11 744/16/11
f 744/16/11 758/16/11 759/16/11 746/16/11
f 746/16/11 759/16/11 760/16/11 748/16/11
f 748/16/11 760/16/11 761/16/11 750/16/11
f 750/16/11 761/16/11 762/16/11 752/16/11
f 752/16/11 762/16/11 754/16/11 734/16/11
f 735/16/20 804/16/20 803/16/20 733/16/20
f 737/16/20 805/16/20 804/16/20 735/16/20
f 739/16/20 806/16/20 805/16/20 737/16/20
f 741/16/20 807/16/20 806/16/20 739/16/20
f 743/16/20 808/16/20 807/16/20 741/16/20
f 745/16/20 809/16/20 808/16/20 743/16/20
f 747/16/20 810/16/20 809/16/20 745/16/20
f 749/16/20 811/16/20 810/16/20 747/16/20
f 751/16/20 812/16/20 811/16/20 749/16/20
f 733/16/20 803/16/20 812/16/20 751/16/20
f 883/16/213 884/16/213 833/16/213 834/16/213
f 884/16/221 885/16/221 835/16/221 833/16/221
f 885/16/24 886/16/24 836/16/24 835/16/24
f 886/16/217 887/16/217 837/16/217 836/16/217
f 887/16/229 888/16/229 838/16/229 837/16/229
f 888/16/220 889/16/220 839/16/220 838/16/220
f 889/16/244 890/16/244 840/16/244 839/16/244
f 890/16/25 891/16/25 841/16/25 840/16/25
f 891/16/227 892/16/227 842/16/227 841/16/227
f 892/16/211 883/16/211 834/16/211 842/16/211
f 814/16/20 834/16/20 833/16/20 816/16/20
f 816/16/20 833/16/20 835/16/20 818/16/20
f 818/16/20 835/16/20 836/16/20 820/16/20
f 820/16/20 836/16/20 837/16/20 822/16/20
f 822/16/20 837/16/20 838/16/20 824/16/20
f 824/16/20 838/16/20 839/16/20 826/16/20
f 826/16/20 839/16/20 840/16/20 828/16/20
f 828/16/20 840/16/20 841/16/20 830/16/20
f 830/16/20 841/16/20 842/16/20 832/16/20
f 832/16/20 842/16/20 834/16/20 814/16/20
f 815/16/11 884/16/11 883/16/11 813/16/11
f 817/16/11 885/16/11 884/16/11 815/16/11
f 819/16/11 886/16/11 885/16/11 817/16/11
f 821/16/11 887/16/11 886/16/11 819/16/11
f 823/16/11 888/16/11 887/16/11 821/16/11
f 825/16/11 889/16/11 888/16/11 823/16/11
f 827/16/11 890/16/11 889/16/11 825/16/11
f 829/16/11 891/16/11 890/16/11 827/16/11
f 831/16/11 892/16/11 891/16/11 829/16/11
f 813/16/11 883/16/11 892/16/11 831/16/11
f 963/16/213 914/16/213 913/16/213 964/16/213
f 964/16/218 913/16/218 915/16/218 965/16/218
f 965/16/24 915/16/24 916/16/24 966/16/24
f 966/16/217 916/16/217 917/16/217 967/16/217
f 967/16/229 917/16/229 918/16/229 968/16/229
f 968/16/220 918/16/220 919/16/220 969/16/220
f 969/16/244 919/16/244 920/16/244 970/16/244
f 970/16/25 920/16/25 921/16/25 971/16/25
f 971/16/227 921/16/227 922/16/227 972/16/227
f 972/16/211 922/16/211 914/16/211 963/16/211
f 894/16/11 896/16/11 913/16/11 914/16/11
f 896/16/11 898/16/11 915/16/11 913/16/11
f 898/16/11 900/16/11 916/16/11 915/16/11
f 900/16/11 902/16/11 917/16/11 916/16/11
f 902/16/11 904/16/11 918/16/11 917/16/11
f 904/16/11 906/16/11 919/16/11 918/16/11
f 906/16/11 908/16/11 920/16/11 919/16/11
f 908/16/11 910/16/11 921/16/11 920/16/11
f 910/16/11 912/16/11 922/16/11 921/16/11
f 912/16/11 894/16/11 914/16/11 922/16/11
f 895/16/20 893/16/20 963/16/20 964/16/20
f 897/16/20 895/16/20 964/16/20 965/16/20
f 899/16/20 897/16/20 965/16/20 966/16/20
f 901/16/20 899/16/20 966/16/20 967/16/20
f 903/16/20 901/16/20 967/16/20 968/16/20
f 905/16/20 903/16/20 968/16/20 969/16/20
f 907/16/20 905/16/20 969/16/20 970/16/20
f 909/16/20 907/16/20 970/16/20 971/16/20
f 911/16/20 909/16/20 971/16/20 972/16/20
f 893/16/20 911/16/20 972/16/20 963/16/20
