# Blender 5.1.2
# www.blender.org
mtllib fireflies.mtl
o Fireflies
v 4.405298 1.302361 -0.708745
v 4.415209 1.309932 -0.701545
v 4.401513 1.309932 -0.697095
v 4.393047 1.309932 -0.708745
v 4.401513 1.309932 -0.720396
v 4.415209 1.309932 -0.715946
v 4.409083 1.322183 -0.697095
v 4.395387 1.322183 -0.701545
v 4.395387 1.322183 -0.715946
v 4.409083 1.322183 -0.720396
v 4.417548 1.322183 -0.708745
v 4.405298 1.329754 -0.708745
v -5.381828 2.623028 -1.639943
v -5.372341 2.630275 -1.633051
v -5.385451 2.630275 -1.628791
v -5.393555 2.630275 -1.639943
v -5.385451 2.630275 -1.651096
v -5.372341 2.630275 -1.646836
v -5.378204 2.642002 -1.628791
v -5.391315 2.642002 -1.633051
v -5.391315 2.642002 -1.646836
v -5.378204 2.642002 -1.651096
v -5.370101 2.642002 -1.639943
v -5.381828 2.649249 -1.639943
v -3.661198 2.767386 -2.837703
v -3.653076 2.773591 -2.831802
v -3.664300 2.773591 -2.828155
v -3.671238 2.773591 -2.837703
v -3.664300 2.773591 -2.847252
v -3.653076 2.773591 -2.843605
v -3.658095 2.783631 -2.828155
v -3.669320 2.783631 -2.831802
v -3.669320 2.783631 -2.843605
v -3.658095 2.783631 -2.847252
v -3.651158 2.783631 -2.837703
v -3.661198 2.789835 -2.837703
v -2.978531 1.441569 -2.056048
v -2.972142 1.446450 -2.051406
v -2.980972 1.446450 -2.048537
v -2.986429 1.446450 -2.056048
v -2.980972 1.446450 -2.063560
v -2.972142 1.446450 -2.060690
v -2.976091 1.454348 -2.048537
v -2.984921 1.454348 -2.051406
v -2.984921 1.454348 -2.060690
v -2.976091 1.454348 -2.063560
v -2.970634 1.454348 -2.056048
v -2.978531 1.459229 -2.056048
v 4.089242 2.258282 -2.293974
v 4.098146 2.265085 -2.287504
v 4.085840 2.265085 -2.283505
v 4.078234 2.265085 -2.293974
v 4.085840 2.265085 -2.304443
v 4.098146 2.265085 -2.300444
v 4.092643 2.276092 -2.283505
v 4.080336 2.276092 -2.287504
v 4.080336 2.276092 -2.300444
v 4.092643 2.276092 -2.304443
v 4.100249 2.276092 -2.293974
v 4.089242 2.282895 -2.293974
v -0.873967 2.544157 -4.966660
v -0.867269 2.549273 -4.961795
v -0.876525 2.549273 -4.958787
v -0.882245 2.549273 -4.966660
v -0.876525 2.549273 -4.974535
v -0.867269 2.549273 -4.971527
v -0.871409 2.557552 -4.958787
v -0.880664 2.557552 -4.961795
v -0.880664 2.557552 -4.971527
v -0.871409 2.557552 -4.974535
v -0.865688 2.557552 -4.966660
v -0.873967 2.562669 -4.966660
v -3.058783 2.006237 -4.371317
v -3.048614 2.014004 -4.363929
v -3.062667 2.014004 -4.359364
v -3.071351 2.014004 -4.371317
v -3.062667 2.014004 -4.383271
v -3.048614 2.014004 -4.378705
v -3.054899 2.026573 -4.359364
v -3.068951 2.026573 -4.363929
v -3.068951 2.026573 -4.378705
v -3.054899 2.026573 -4.383271
v -3.046214 2.026573 -4.371317
v -3.058783 2.034341 -4.371317
v -1.133811 3.312104 -3.525673
v -1.126404 3.317763 -3.520291
v -1.136640 3.317763 -3.516965
v -1.142966 3.317763 -3.525673
v -1.136640 3.317763 -3.534380
v -1.126404 3.317763 -3.531054
v -1.130981 3.326918 -3.516965
v -1.141218 3.326918 -3.520291
v -1.141218 3.326918 -3.531054
v -1.130981 3.326918 -3.534380
v -1.124655 3.326918 -3.525673
v -1.133811 3.332577 -3.525673
v 2.874159 3.254921 -2.841946
v 2.877664 3.257599 -2.839400
v 2.872820 3.257599 -2.837826
v 2.869826 3.257599 -2.841946
v 2.872820 3.257599 -2.846067
v 2.877664 3.257599 -2.844493
v 2.875498 3.261932 -2.837826
v 2.870653 3.261932 -2.839400
v 2.870653 3.261932 -2.844493
v 2.875498 3.261932 -2.846067
v 2.878492 3.261932 -2.841946
v 2.874159 3.264610 -2.841946
v -2.671667 3.299900 -3.770669
v -2.664383 3.305465 -3.765377
v -2.674449 3.305465 -3.762106
v -2.680671 3.305465 -3.770669
v -2.674449 3.305465 -3.779233
v -2.664383 3.305465 -3.775962
v -2.668885 3.314469 -3.762106
v -2.678951 3.314469 -3.765377
v -2.678951 3.314469 -3.775962
v -2.668885 3.314469 -3.779233
v -2.662663 3.314469 -3.770669
v -2.671667 3.320034 -3.770669
v -4.665223 1.224078 -1.062982
v -4.657504 1.229975 -1.057374
v -4.668171 1.229975 -1.053908
v -4.674764 1.229975 -1.062982
v -4.668171 1.229975 -1.072056
v -4.657504 1.229975 -1.068590
v -4.662275 1.239516 -1.053908
v -4.672941 1.239516 -1.057374
v -4.672941 1.239516 -1.068590
v -4.662275 1.239516 -1.072056
v -4.655682 1.239516 -1.062982
v -4.665223 1.245413 -1.062982
v 2.237805 2.458014 -3.503754
v 2.246975 2.465019 -3.497092
v 2.234302 2.465019 -3.492975
v 2.226470 2.465019 -3.503754
v 2.234302 2.465019 -3.514534
v 2.246975 2.465019 -3.510417
v 2.241307 2.476354 -3.492975
v 2.228635 2.476354 -3.497092
v 2.228635 2.476354 -3.510417
v 2.241307 2.476354 -3.514534
v 2.249140 2.476354 -3.503754
v 2.237805 2.483359 -3.503754
v 1.734732 2.209017 -2.293974
v 1.742448 2.214911 -2.288368
v 1.731784 2.214911 -2.284903
v 1.725194 2.214911 -2.293974
v 1.731784 2.214911 -2.303045
v 1.742448 2.214911 -2.299580
v 1.737679 2.224449 -2.284903
v 1.727015 2.224449 -2.288368
v 1.727015 2.224449 -2.299580
v 1.737679 2.224449 -2.303045
v 1.744269 2.224449 -2.293974
v 1.734732 2.230344 -2.293974
s 0
usemtl Fireflies
f 1 2 3
f 2 1 6
f 1 3 4
f 1 4 5
f 1 5 6
f 2 6 11
f 3 2 7
f 4 3 8
f 5 4 9
f 6 5 10
f 2 11 7
f 3 7 8
f 4 8 9
f 5 9 10
f 6 10 11
f 7 11 12
f 8 7 12
f 9 8 12
f 10 9 12
f 11 10 12
f 13 14 15
f 14 13 18
f 13 15 16
f 13 16 17
f 13 17 18
f 14 18 23
f 15 14 19
f 16 15 20
f 17 16 21
f 18 17 22
f 14 23 19
f 15 19 20
f 16 20 21
f 17 21 22
f 18 22 23
f 19 23 24
f 20 19 24
f 21 20 24
f 22 21 24
f 23 22 24
f 25 26 27
f 26 25 30
f 25 27 28
f 25 28 29
f 25 29 30
f 26 30 35
f 27 26 31
f 28 27 32
f 29 28 33
f 30 29 34
f 26 35 31
f 27 31 32
f 28 32 33
f 29 33 34
f 30 34 35
f 31 35 36
f 32 31 36
f 33 32 36
f 34 33 36
f 35 34 36
f 37 38 39
f 38 37 42
f 37 39 40
f 37 40 41
f 37 41 42
f 38 42 47
f 39 38 43
f 40 39 44
f 41 40 45
f 42 41 46
f 38 47 43
f 39 43 44
f 40 44 45
f 41 45 46
f 42 46 47
f 43 47 48
f 44 43 48
f 45 44 48
f 46 45 48
f 47 46 48
f 49 50 51
f 50 49 54
f 49 51 52
f 49 52 53
f 49 53 54
f 50 54 59
f 51 50 55
f 52 51 56
f 53 52 57
f 54 53 58
f 50 59 55
f 51 55 56
f 52 56 57
f 53 57 58
f 54 58 59
f 55 59 60
f 56 55 60
f 57 56 60
f 58 57 60
f 59 58 60
f 61 62 63
f 62 61 66
f 61 63 64
f 61 64 65
f 61 65 66
f 62 66 71
f 63 62 67
f 64 63 68
f 65 64 69
f 66 65 70
f 62 71 67
f 63 67 68
f 64 68 69
f 65 69 70
f 66 70 71
f 67 71 72
f 68 67 72
f 69 68 72
f 70 69 72
f 71 70 72
f 73 74 75
f 74 73 78
f 73 75 76
f 73 76 77
f 73 77 78
f 74 78 83
f 75 74 79
f 76 75 80
f 77 76 81
f 78 77 82
f 74 83 79
f 75 79 80
f 76 80 81
f 77 81 82
f 78 82 83
f 79 83 84
f 80 79 84
f 81 80 84
f 82 81 84
f 83 82 84
f 85 86 87
f 86 85 90
f 85 87 88
f 85 88 89
f 85 89 90
f 86 90 95
f 87 86 91
f 88 87 92
f 89 88 93
f 90 89 94
f 86 95 91
f 87 91 92
f 88 92 93
f 89 93 94
f 90 94 95
f 91 95 96
f 92 91 96
f 93 92 96
f 94 93 96
f 95 94 96
f 97 98 99
f 98 97 102
f 97 99 100
f 97 100 101
f 97 101 102
f 98 102 107
f 99 98 103
f 100 99 104
f 101 100 105
f 102 101 106
f 98 107 103
f 99 103 104
f 100 104 105
f 101 105 106
f 102 106 107
f 103 107 108
f 104 103 108
f 105 104 108
f 106 105 108
f 107 106 108
f 109 110 111
f 110 109 114
f 109 111 112
f 109 112 113
f 109 113 114
f 110 114 119
f 111 110 115
f 112 111 116
f 113 112 117
f 114 113 118
f 110 119 115
f 111 115 116
f 112 116 117
f 113 117 118
f 114 118 119
f 115 119 120
f 116 115 120
f 117 116 120
f 118 117 120
f 119 118 120
f 121 122 123
f 122 121 126
f 121 123 124
f 121 124 125
f 121 125 126
f 122 126 131
f 123 122 127
f 124 123 128
f 125 124 129
f 126 125 130
f 122 131 127
f 123 127 128
f 124 128 129
f 125 129 130
f 126 130 131
f 127 131 132
f 128 127 132
f 129 128 132
f 130 129 132
f 131 130 132
f 133 134 135
f 134 133 138
f 133 135 136
f 133 136 137
f 133 137 138
f 134 138 143
f 135 134 139
f 136 135 140
f 137 136 141
f 138 137 142
f 134 143 139
f 135 139 140
f 136 140 141
f 137 141 142
f 138 142 143
f 139 143 144
f 140 139 144
f 141 140 144
f 142 141 144
f 143 142 144
f 145 146 147
f 146 145 150
f 145 147 148
f 145 148 149
f 145 149 150
f 146 150 155
f 147 146 151
f 148 147 152
f 149 148 153
f 150 149 154
f 146 155 151
f 147 151 152
f 148 152 153
f 149 153 154
f 150 154 155
f 151 155 156
f 152 151 156
f 153 152 156
f 154 153 156
f 155 154 156
